<svg xmlns="http://www.w3.org/2000/svg" width="17.411" height="18.056" viewBox="0 0 17.411 18.056"><defs><style>.a{fill:#43b9be;}</style></defs><g transform="translate(-72.707 -0.871)"><g transform="translate(72.707 0.871)"><path class="a" d="M81.448,1.539a8.7,8.7,0,0,0-6.066,2.443V1.539a.669.669,0,0,0-1.338,0V5.552a.67.67,0,0,0,.458.635l4.012,1.337a.67.67,0,0,0,.423-1.271l-2.962-.985a7.326,7.326,0,1,1-1.828,3.739.669.669,0,0,0-1.317-.234l0,.012a8.707,8.707,0,1,0,8.62-7.245Z" transform="translate(-72.707 -0.871)"/></g><g transform="translate(79.492 5.384)"><path class="a" d="M86.019,17.5V16.453a4.443,4.443,0,0,1-1.881-.476l.332-1.295a3.906,3.906,0,0,0,1.837.487c.63,0,1.062-.244,1.062-.686,0-.421-.354-.686-1.173-.963-1.184-.4-1.992-.952-1.992-2.025a2.045,2.045,0,0,1,1.87-1.969V8.475h1.084v.973a3.987,3.987,0,0,1,1.6.365l-.321,1.251a3.673,3.673,0,0,0-1.594-.376c-.719,0-.951.31-.951.62,0,.365.387.6,1.328.952,1.317.465,1.848,1.073,1.848,2.069A2.12,2.12,0,0,1,87.1,16.376V17.5Z" transform="translate(-84.138 -8.475)"/></g></g></svg>