<svg xmlns="http://www.w3.org/2000/svg" width="15.549" height="19.65" viewBox="0 0 15.549 19.65"><defs><style>.a{fill:#43b9be;}</style></defs><path class="a" d="M15.228,15.638a3.053,3.053,0,0,1-.928-1.264A14.621,14.621,0,0,1,13.333,8.6V8.576A5.576,5.576,0,0,0,10.05,3.519V2.189A2.19,2.19,0,0,0,7.865,0H7.684A2.189,2.189,0,0,0,5.5,2.189v1.33A5.576,5.576,0,0,0,2.216,8.6a14.621,14.621,0,0,1-.967,5.777,3.058,3.058,0,0,1-.928,1.264.559.559,0,0,0-.308.636.586.586,0,0,0,.577.45h4.22a2.964,2.964,0,0,0,5.928,0h4.22a.586.586,0,0,0,.577-.45A.56.56,0,0,0,15.228,15.638ZM6.65,2.189A1.036,1.036,0,0,1,7.684,1.153h.181A1.036,1.036,0,0,1,8.9,2.189v.956a5.582,5.582,0,0,0-2.249,0V2.189ZM7.774,18.5a1.816,1.816,0,0,1-1.812-1.772H9.587A1.816,1.816,0,0,1,7.774,18.5Zm2.318-2.926H1.9a5.9,5.9,0,0,0,.3-.53A14.571,14.571,0,0,0,3.368,8.6a4.407,4.407,0,1,1,8.813,0v.022a14.547,14.547,0,0,0,1.163,6.42c.1.2.2.374.3.53Z"/></svg>