<svg xmlns="http://www.w3.org/2000/svg" width="35" height="35" viewBox="0 0 35 35"><defs><style>.a{fill:#43b9be;}</style></defs><g transform="translate(-949.504 -268.733)"><path class="a" d="M951.762,290.184h1.129v1.13h-1.129Z"/><path class="a" d="M954.02,290.184h1.129v1.13H954.02Z"/><path class="a" d="M956.278,290.184h1.129v1.13h-1.129Z"/><path class="a" d="M978.295,268.733h-12.42a6.217,6.217,0,0,0-6.21,6.21v5.379a5.807,5.807,0,0,0-.816.326,4.828,4.828,0,0,1-2.139.5H949.5V286.8h19.758a2.827,2.827,0,0,0,2.037-.868,3.957,3.957,0,0,0,5.3-.322v2.319H951.2a1.7,1.7,0,0,0-1.694,1.694v2.258a1.7,1.7,0,0,0,1.694,1.694h8.467v2.258H959.1a47.32,47.32,0,0,0-1.694,3.951,1.666,1.666,0,0,1,0,2.258,1.7,1.7,0,0,0,1.694,1.694h25.4v-28.79A6.217,6.217,0,0,0,978.295,268.733Zm-17.5,6.21a5.085,5.085,0,0,1,5.08-5.081h9.032a5.086,5.086,0,0,1,5.081,5.081V302.6H977.73V274.943a2.826,2.826,0,0,0-2.823-2.823h-9.032a2.825,2.825,0,0,0-2.822,2.823v5.08h-1.561a5.793,5.793,0,0,0-.7.043Zm-2.259,24.838a.565.565,0,0,1,.565-.564h17.5v1.129H959.1A.565.565,0,0,1,958.536,299.781ZM967,280.045c-.162-.013-.325-.022-.489-.022h-2.333v-5.08a1.7,1.7,0,0,1,1.693-1.694h1.708a2.8,2.8,0,0,0-.579,1.694Zm2.258,5.623h-7.338a.564.564,0,1,1,0-1.129H967V283.41h-5.08a1.7,1.7,0,0,0-1.694,1.694,1.675,1.675,0,0,0,.1.564h-9.7v-3.387h6.077a5.941,5.941,0,0,0,2.644-.624,4.807,4.807,0,0,1,2.138-.505h5.022a4.769,4.769,0,0,1,2.652.8l.49.326h1.327l.133-.376a2.82,2.82,0,0,1,3.227-1.825v1.277a1.7,1.7,0,0,1-1.032,1.559l-2.159.955a2.894,2.894,0,0,1-.157-.554l-1.113.187a3.933,3.933,0,0,0,.646,1.6,1.693,1.693,0,0,1-1.266.569Zm6.708-1.043a2.813,2.813,0,0,1-4.191.2l1.983-.877a2.819,2.819,0,0,0,1.71-2.594v-.778a2.785,2.785,0,0,1,1.065,1.653,2.85,2.85,0,0,1-.567,2.393Zm-1.382-5.65a3.947,3.947,0,0,0-4.381,2.177H970l-.2-.136a5.877,5.877,0,0,0-1.659-.765v-5.308a1.7,1.7,0,0,1,1.693-1.694h5.081a1.7,1.7,0,0,1,1.694,1.694v5.136a3.915,3.915,0,0,0-2.014-1.1Zm-23.955,12.9V289.62a.565.565,0,0,1,.565-.565h25.4v2.259h-9.166l-2.258,1.129H951.2A.565.565,0,0,1,950.633,291.878Zm10.162,1.694h4.649l2.258-1.129h8.9v3.387H960.795Zm-1.694,3.387h17.5v1.129H959.1a.564.564,0,1,1,0-1.129Zm-.565,5.08a.565.565,0,0,1,.565-.564h17.5V302.6H959.1A.565.565,0,0,1,958.536,302.039Zm24.839.565h-2.258V274.943a6.2,6.2,0,0,0-2.638-5.071,5.081,5.081,0,0,1,4.9,5.071Z"/></g></svg>