<svg xmlns="http://www.w3.org/2000/svg" width="17.563" height="19.882" viewBox="0 0 17.563 19.882"><defs><style>.a{fill:#43b9be;}</style></defs><g transform="translate(-209.791 -1.994)"><path class="a" d="M215.991,8.524h7.29a.331.331,0,0,0,0-.663h-7.29a.331.331,0,1,0,0,.663Z" transform="translate(-2.222 -2.222)"/><path class="a" d="M215.991,11.724h7.29a.331.331,0,0,0,0-.663h-7.29a.331.331,0,1,0,0,.663Z" transform="translate(-2.222 -3.434)"/><path class="a" d="M215.991,14.924h7.29a.331.331,0,0,0,0-.663h-7.29a.331.331,0,1,0,0,.663Z" transform="translate(-2.222 -4.645)"/><path class="a" d="M215.991,18.124h7.29a.331.331,0,0,0,0-.663h-7.29a.331.331,0,1,0,0,.663Z" transform="translate(-2.222 -5.857)"/><path class="a" d="M215.991,21.324h2.651a.331.331,0,1,0,0-.663h-2.651a.331.331,0,1,0,0,.663Z" transform="translate(-2.222 -7.069)"/><path class="a" d="M226.863,9.823a1,1,0,0,0-1.36.355l-.8,1.363V3.32a.332.332,0,0,0-.332-.332h-2.513a13,13,0,0,0-1.036-.98.334.334,0,0,0-.1-.014h-9.61a.331.331,0,0,0-.331.332V3.362a1.326,1.326,0,0,0,0,2.567v.746a1.325,1.325,0,0,0,0,2.567v.747a1.325,1.325,0,0,0,0,2.567v.416a1.325,1.325,0,0,0,0,2.567v2.03a.331.331,0,0,0,.331.331h.331v.994a.332.332,0,0,0,.332.332h8.42l-.227.387a.32.32,0,0,0-.04.113v.011h0l-.265,1.758a.331.331,0,0,0,.531.311l1.41-1.094c.09-.07.134-.113.127-.171l.771-1.316h1.867a.332.332,0,0,0,.332-.332v-3.42l2.514-4.29A1,1,0,0,0,226.863,9.823Zm-.587.537a.331.331,0,0,1,.37.488l-.167.286-.572-.335.167-.286A.33.33,0,0,1,226.276,10.361ZM221.285,20l-.572-.336,4.356-7.433.572.335Zm-.226-16.872,1.188,1.189h-1.188Zm4.345,8.531.168-.286.572.336-.167.286Zm-1.363-8.006V12.6a.32.32,0,0,0,.006.064l-.669,1.141V4.645a.331.331,0,0,0-.1-.234h0l-.76-.76Zm-12.592-.994H220.4V4.645a.332.332,0,0,0,.332.331h1.988v9.958l-1.349,2.3h-9.917v-1.7a1.323,1.323,0,0,0,.952-.952.331.331,0,0,0-.642-.165h0a.663.663,0,0,1-.311.408V12.556a1.323,1.323,0,0,0,.952-.952.331.331,0,0,0-.642-.165h0a.663.663,0,0,1-.311.408v-2.6a1.324,1.324,0,0,0,.952-.952.331.331,0,0,0-.642-.165h0a.664.664,0,0,1-.311.408v-2.6a1.324,1.324,0,0,0,.952-.952.331.331,0,1,0-.642-.165.661.661,0,0,1-.311.408Zm-.994,1.988a.662.662,0,0,1,.332-.573V5.218A.663.663,0,0,1,210.455,4.645Zm0,3.313a.663.663,0,0,1,.332-.573V8.532A.664.664,0,0,1,210.455,7.959Zm0,3.314a.663.663,0,0,1,.332-.573v1.146A.663.663,0,0,1,210.455,11.273Zm0,2.982a.663.663,0,0,1,.332-.573v1.146A.663.663,0,0,1,210.455,14.255Zm1.657,4.308V17.9h8.866l-.388.663Zm8.4,1.751.3.175-.368.286Zm3.527-1.751h-1.148l1.148-1.958Z" transform="translate(0)"/></g></svg>