<svg xmlns="http://www.w3.org/2000/svg" width="49.995" height="50" viewBox="0 0 49.995 50"><defs><style>.a{opacity:0.504;}.b{fill:#ccc;}</style></defs><g class="a" transform="translate(-663.919 -62.148)"><path class="b" d="M671.826,93.193a8.654,8.654,0,0,0-.873,17.122,3.327,3.327,0,0,0,2.961,1.833h20a3.326,3.326,0,0,0,2.961-1.833A8.653,8.653,0,0,0,696,93.193a39.847,39.847,0,0,0-6.338-.328,29.437,29.437,0,0,1-.6-3.638,12.315,12.315,0,0,0,3.16-5.5,4.166,4.166,0,0,0,.856.088v3.333a.833.833,0,0,0,.833.834c.375,0,.022.175,6.1-4.167h9.733a4.173,4.173,0,0,0,4.167-4.167V66.315a4.173,4.173,0,0,0-4.167-4.167H693.081a4.152,4.152,0,0,0-2.879,1.167,19.252,19.252,0,0,0-6.288-1.167c-.289,0-7.114.042-9.833,3.667-1.75,2.338-1.241,8.381-1.045,10.167a4.137,4.137,0,0,0-.789,2.777c0,3.653,2.218,4.667,3.341,4.947a12.2,12.2,0,0,0,3.167,5.536,29.208,29.208,0,0,1-.583,3.626,41.034,41.034,0,0,0-6.346.325Zm18.717,8.955a1.944,1.944,0,0,1,.617.643,28.981,28.981,0,0,0-4.639,5.481,48.009,48.009,0,0,1,2.966-13.566,6.756,6.756,0,0,1,3.267,2.875,6.674,6.674,0,0,0-2.963,3.475.806.806,0,0,0,.752,1.092Zm-5.779,8.334h-1.7a49.742,49.742,0,0,0-2.3-13.917,8.712,8.712,0,0,0,6.289,0A49.82,49.82,0,0,0,684.764,110.482Zm-6.727-9.43a6.677,6.677,0,0,0-2.965-3.476,6.706,6.706,0,0,1,3.27-2.875,47.834,47.834,0,0,1,2.965,13.568,28.929,28.929,0,0,0-4.64-5.483,2.144,2.144,0,0,1,.58-.638.832.832,0,0,0,.79-1.1Zm-5.79,7.763v-5a.833.833,0,0,0-1.666,0v4.7a6.989,6.989,0,0,1,1.388-13.662l3.466-.3a9.564,9.564,0,0,0-2.289,3.106.833.833,0,0,0,.505,1.114,4.638,4.638,0,0,1,2.485,2.139,5.271,5.271,0,0,0-1.3,1.7.832.832,0,0,0,.246,1.039c2.242,1.682,4.531,5.019,5.681,6.834h-6.848a1.668,1.668,0,0,1-1.667-1.667Zm30-6.992a7,7,0,0,1-5,6.692v-4.7a.833.833,0,0,0-1.666,0v5a1.667,1.667,0,0,1-1.667,1.667h-6.847c1.15-1.815,3.438-5.152,5.68-6.834a.833.833,0,0,0,.25-1.039,5.281,5.281,0,0,0-1.3-1.7,4.612,4.612,0,0,1,2.49-2.136.833.833,0,0,0,.505-1.114,9.623,9.623,0,0,0-2.286-3.1l3.461.3A6.966,6.966,0,0,1,702.247,101.823Zm-9.166-38.008h16.666a2.5,2.5,0,0,1,2.5,2.5V79.648a2.5,2.5,0,0,1-2.5,2.5c-10.885,0-10.175-.066-10.484.155l-4.516,3.226V82.982a.833.833,0,0,0-.833-.834h-.833a2.5,2.5,0,0,1-2.5-2.5V66.315a2.5,2.5,0,0,1,2.5-2.5Zm-17.667,3c2.218-2.958,8.438-3,8.5-3a18.139,18.139,0,0,1,5.316.917,4.114,4.114,0,0,0-.308,1.509,4.749,4.749,0,0,0-2.873-.141c-4.259.727-5.092-.907-7.507.3-1.924.963-2.961,3.68-2.961,5.747a14.334,14.334,0,0,1-.653,3.458,2.43,2.43,0,0,0-.262-.074C674.427,73.143,674.228,68.4,675.414,66.815Zm-1.5,11.942c0-1.351.3-1.61.3-1.61a.985.985,0,0,1,.552.211,29.734,29.734,0,0,0,.354,4.348,3.307,3.307,0,0,1-1.2-2.949Zm3.97,6.367a20.257,20.257,0,0,1-1.47-8.677,16.985,16.985,0,0,0,.833-4.3c0-1.562.82-3.645,2.04-4.254,1.705-.855,2.537.621,7.041-.15a2.878,2.878,0,0,1,2.584.39V79.648a4.158,4.158,0,0,0,1.775,3.4c-.967,3.45-3.138,6.6-6.773,6.6C681.324,89.648,679.3,88.127,677.884,85.124Zm9.635,5.245a28.309,28.309,0,0,0,.6,3.243c-1.436,2.5-6.975,2.517-8.411,0a28.865,28.865,0,0,0,.6-3.236A7.363,7.363,0,0,0,687.519,90.369Z"/><path class="b" d="M696.414,75.482h2.5v2.5a1.666,1.666,0,0,0,1.667,1.666h1.666a1.666,1.666,0,0,0,1.667-1.666v-2.5h2.5a1.667,1.667,0,0,0,1.667-1.667V72.148a1.666,1.666,0,0,0-1.667-1.666h-2.5v-2.5a1.667,1.667,0,0,0-1.667-1.667h-1.666a1.667,1.667,0,0,0-1.667,1.667v2.5h-2.5a1.667,1.667,0,0,0-1.667,1.666v1.667A1.668,1.668,0,0,0,696.414,75.482Zm0-3.334h2.5a1.666,1.666,0,0,0,1.667-1.666v-2.5h1.666v2.5a1.667,1.667,0,0,0,1.667,1.666h2.5v1.667h-2.5a1.667,1.667,0,0,0-1.667,1.667v2.5h-1.666v-2.5a1.667,1.667,0,0,0-1.667-1.667h-2.5Z"/></g></svg>