<svg xmlns="http://www.w3.org/2000/svg" width="19.437" height="19.744" viewBox="0 0 19.437 19.744"><defs><style>.a{fill:#43b9be;}</style></defs><g transform="translate(-32.722 0.268)"><path class="a" d="M46.031,32.421h-.008a.386.386,0,1,0,0,.771h.008a.386.386,0,1,0,0-.771Z" transform="translate(-5.419 -13.717)"/><path class="a" d="M43.1,15.133a.386.386,0,0,0,.386.386l5.415,0h0a.386.386,0,1,0,0-.771l-5.416,0A.386.386,0,0,0,43.1,15.133Z" transform="translate(-4.355 -6.301)"/><path class="a" d="M51.239,2.152a1.563,1.563,0,0,0-2.169.708l-.583,1.166V3.091a.386.386,0,0,0-.1-.262l0,0L45.561-.148a.392.392,0,0,0-.282-.12H34.218a1.5,1.5,0,0,0-1.5,1.5v16.75a1.5,1.5,0,0,0,1.5,1.5h4.85a.386.386,0,0,0,0-.771h-4.85a.726.726,0,0,1-.724-.726V1.228A.726.726,0,0,1,34.218.5H44.9V2.055a1.423,1.423,0,0,0,1.421,1.422h1.4V5.567L44.6,11.791a.371.371,0,0,0-.051,0H39.132a.386.386,0,1,0,0,.771H44.4l-.207,2.57-5.059,0a.386.386,0,1,0,0,.772h0l5.414,0h0a.387.387,0,0,0,.255-.1l2.475-2.179a.4.4,0,0,0,.09-.117h0l0,0v0l.345-.688v5.165a.726.726,0,0,1-.724.726H42.141a.386.386,0,1,0,0,.771H46.99a1.5,1.5,0,0,0,1.5-1.5V11.273l3.485-6.959A1.564,1.564,0,0,0,51.239,2.152Zm-4.922.553a.651.651,0,0,1-.65-.651V1.085L47.2,2.705ZM45.008,14.595l.142-1.767,1.188.6ZM51.282,3.969,46.85,12.817l-1.521-.763,3.11-6.212v0l1.32-2.636a.8.8,0,0,1,1.134-.363A.8.8,0,0,1,51.282,3.969Z"/><path class="a" d="M39.383,18.808a.386.386,0,0,0-.538.091l-1.132,1.587-.311-.275a.386.386,0,0,0-.512.577l.632.559a.386.386,0,0,0,.255.1l.044,0a.384.384,0,0,0,.27-.159l1.381-1.937A.386.386,0,0,0,39.383,18.808Z" transform="translate(-1.694 -7.975)"/><path class="a" d="M39.383,24.008a.386.386,0,0,0-.538.09l-1.132,1.589-.311-.276a.386.386,0,0,0-.512.577l.631.561a.386.386,0,0,0,.256.1l.044,0a.384.384,0,0,0,.27-.16l1.381-1.938A.386.386,0,0,0,39.383,24.008Z" transform="translate(-1.694 -10.156)"/><path class="a" d="M36.89,15.587l.631.561a.386.386,0,0,0,.256.1l.044,0a.384.384,0,0,0,.27-.16l1.381-1.938a.386.386,0,1,0-.628-.447l-1.132,1.588L37.4,15.01a.386.386,0,1,0-.512.577Z" transform="translate(-1.694 -5.792)"/><path class="a" d="M44.9,3.1h-.775a.835.835,0,0,0-.834.834V4.37h-.435a.834.834,0,0,0-.833.833v.776a.835.835,0,0,0,.833.834h.435v.435a.835.835,0,0,0,.834.834H44.9a.835.835,0,0,0,.834-.834V6.813h.435a.835.835,0,0,0,.834-.834V5.2a.835.835,0,0,0-.834-.833h-.435V3.935A.835.835,0,0,0,44.9,3.1Zm1.269,2.041a.064.064,0,0,1,.062.062v.776a.064.064,0,0,1-.062.062h-.821a.386.386,0,0,0-.386.386v.821a.063.063,0,0,1-.062.063h-.775a.064.064,0,0,1-.063-.063V6.427a.386.386,0,0,0-.385-.386h-.821a.062.062,0,0,1-.061-.062V5.2a.063.063,0,0,1,.061-.062h.821a.385.385,0,0,0,.385-.385V3.935a.064.064,0,0,1,.063-.062H44.9a.063.063,0,0,1,.062.062v.821a.386.386,0,0,0,.386.385Z" transform="translate(-3.904 -1.414)"/></g></svg>