<svg xmlns="http://www.w3.org/2000/svg" width="19" height="20" style=""><rect id="backgroundrect" width="100%" height="100%" x="0" y="0" fill="none" stroke="none" class="" style=""/><defs><style>.a{fill:#43b9be;}</style></defs><g class="currentLayer" style=""><title>Layer 1</title><g id="svg_1" class="" stroke-opacity="1" stroke="#f70202"><path class="a" d="M7.893999916076659,18.971999991595755 h-0.008000000000000005 a0.3860000000000002,0.3860000000000002 0 1 0 0,0.771 h0.008000000000000005 a0.3860000000000002,0.3860000000000002 0 1 0 0,-0.771 z" id="svg_2" stroke="#f70202"/><path class="a" d="M6.027000045776369,9.099999880969534 a0.3860000000000002,0.3860000000000002 0 0 0 0.3860000000000002,0.3860000000000002 l5.415,0 h0 a0.3860000000000002,0.3860000000000002 0 1 0 0,-0.771 l-5.416,0 A0.3860000000000002,0.3860000000000002 0 0 0 6.027000045776369,9.099999880969534 z" id="svg_3" stroke="#f70202"/><path class="a" d="M18.52100006484985,2.4199999992251513 a1.5630000000000002,1.5630000000000002 0 0 0 -2.169,0.7080000000000002 l-0.5830000000000002,1.166 V3.3589999992251514 a0.3860000000000001,0.3860000000000001 0 0 0 -0.1,-0.262 l0,0 L12.843000064849853,0.11999999922515114 a0.3920000000000001,0.3920000000000001 0 0 0 -0.2820000000000001,-0.12000000000000002 H1.500000064849857 a1.5,1.5 0 0 0 -1.5,1.5 v16.75 a1.5,1.5 0 0 0 1.5,1.5 h4.85 a0.3860000000000001,0.3860000000000001 0 0 0 0,-0.771 h-4.85 a0.7260000000000002,0.7260000000000002 0 0 1 -0.7240000000000002,-0.7260000000000002 V1.4959999992251511 A0.7260000000000002,0.7260000000000002 0 0 1 1.500000064849857,0.7679999992251514 H12.182000064849852 V2.3229999992251513 a1.423,1.423 0 0 0 1.421,1.4220000000000002 h1.4 V5.834999999225151 L11.882000064849855,12.05899999922515 a0.3710000000000001,0.3710000000000001 0 0 0 -0.05100000000000002,0 H6.414000064849851 a0.3860000000000001,0.3860000000000001 0 1 0 0,0.771 H11.682000064849852 l-0.20700000000000005,2.5700000000000003 l-5.059,0 a0.3860000000000001,0.3860000000000001 0 1 0 0,0.772 h0 l5.414,0 h0 a0.3870000000000001,0.3870000000000001 0 0 0 0.255,-0.1 l2.475,-2.179 a0.4,0.4 0 0 0 0.09000000000000004,-0.11700000000000003 h0 l0,0 v0 l0.3450000000000002,-0.6880000000000004 v5.165 a0.7260000000000002,0.7260000000000002 0 0 1 -0.7240000000000002,0.7260000000000002 H9.423000064849852 a0.3860000000000001,0.3860000000000001 0 1 0 0,0.771 H14.272000064849856 a1.5,1.5 0 0 0 1.5,-1.5 V11.54099999922515 l3.485,-6.959 A1.564,1.564 0 0 0 18.52100006484985,2.4199999992251513 zm-4.922,0.553 a0.6510000000000002,0.6510000000000002 0 0 1 -0.6500000000000002,-0.6510000000000002 V1.3529999992251511 L14.482000064849856,2.9729999992251512 zM12.290000064849856,14.862999999225153 l0.14200000000000004,-1.7670000000000003 l1.188,0.6000000000000002 zM18.56400006484985,4.2369999992251515 L14.132000064849855,13.08499999922515 l-1.521,-0.7630000000000002 l3.11,-6.212 v0 l1.32,-2.636 a0.8,0.8 0 0 1 1.134,-0.3630000000000001 A0.8,0.8 0 0 1 18.56400006484985,4.2369999992251515 z" id="svg_4" stroke="#f70202"/><path class="a" d="M4.97100005912781,11.101000094592582 a0.3860000000000002,0.3860000000000002 0 0 0 -0.538,0.09100000000000008 l-1.1320000000000001,1.5870000000000002 l-0.31100000000000017,-0.275 a0.3860000000000002,0.3860000000000002 0 0 0 -0.512,0.5770000000000003 l0.6320000000000003,0.559 a0.3860000000000002,0.3860000000000002 0 0 0 0.255,0.1 l0.04400000000000003,0 a0.3840000000000002,0.3840000000000002 0 0 0 0.27,-0.15900000000000009 l1.381,-1.937 A0.3860000000000002,0.3860000000000002 0 0 0 4.97100005912781,11.101000094592582 z" id="svg_5" stroke="#f70202"/><path class="a" d="M4.97100005912781,14.119999861896048 a0.3860000000000002,0.3860000000000002 0 0 0 -0.538,0.09000000000000007 l-1.1320000000000001,1.589 l-0.31100000000000017,-0.276 a0.3860000000000002,0.3860000000000002 0 0 0 -0.512,0.5770000000000003 l0.6310000000000003,0.561 a0.3860000000000002,0.3860000000000002 0 0 0 0.256,0.1 l0.04400000000000003,0 a0.3840000000000002,0.3840000000000002 0 0 0 0.27,-0.1600000000000001 l1.381,-1.9380000000000002 A0.3860000000000002,0.3860000000000002 0 0 0 4.97100005912781,14.119999861896048 z" id="svg_6" stroke="#f70202"/><path class="a" d="M2.478000059127808,10.063000182330619 l0.6310000000000003,0.561 a0.3860000000000002,0.3860000000000002 0 0 0 0.256,0.1 l0.04400000000000003,0 a0.3840000000000002,0.3840000000000002 0 0 0 0.27,-0.1600000000000001 l1.381,-1.9380000000000002 a0.3860000000000002,0.3860000000000002 0 1 0 -0.6280000000000003,-0.4470000000000002 l-1.1320000000000001,1.588 L2.988000059127806,9.48600018233062 a0.3860000000000002,0.3860000000000002 0 1 0 -0.512,0.5770000000000003 z" id="svg_7" stroke="#f70202"/><path class="a" d="M8.278000020980834,1.9539999648928763 h-0.775 a0.8350000000000003,0.8350000000000003 0 0 0 -0.8340000000000003,0.8340000000000003 V3.223999964892876 h-0.43500000000000016 a0.8340000000000003,0.8340000000000003 0 0 0 -0.8330000000000003,0.8330000000000003 v0.776 a0.8350000000000003,0.8350000000000003 0 0 0 0.8330000000000003,0.8340000000000003 h0.43500000000000016 v0.43500000000000016 a0.8350000000000003,0.8350000000000003 0 0 0 0.8340000000000003,0.8340000000000003 H8.278000020980834 a0.8350000000000003,0.8350000000000003 0 0 0 0.8340000000000003,-0.8340000000000003 V5.6669999648928755 h0.43500000000000016 a0.8350000000000003,0.8350000000000003 0 0 0 0.8340000000000003,-0.8340000000000003 V4.053999964892876 a0.8350000000000003,0.8350000000000003 0 0 0 -0.8340000000000003,-0.8330000000000003 h-0.43500000000000016 V2.7889999648928763 A0.8350000000000003,0.8350000000000003 0 0 0 8.278000020980834,1.9539999648928763 zm1.2690000000000001,2.041 a0.06400000000000004,0.06400000000000004 0 0 1 0.062000000000000034,0.062000000000000034 v0.776 a0.06400000000000004,0.06400000000000004 0 0 1 -0.062000000000000034,0.062000000000000034 h-0.8210000000000003 a0.3860000000000002,0.3860000000000002 0 0 0 -0.3860000000000002,0.3860000000000002 v0.8210000000000003 a0.06300000000000004,0.06300000000000004 0 0 1 -0.062000000000000034,0.06300000000000004 h-0.775 a0.06400000000000004,0.06400000000000004 0 0 1 -0.06300000000000004,-0.06300000000000004 V5.280999964892875 a0.3860000000000002,0.3860000000000002 0 0 0 -0.3850000000000002,-0.3860000000000002 h-0.8210000000000003 a0.062000000000000034,0.062000000000000034 0 0 1 -0.06100000000000003,-0.062000000000000034 V4.053999964892876 a0.06300000000000004,0.06300000000000004 0 0 1 0.06100000000000003,-0.062000000000000034 h0.8210000000000003 a0.3850000000000002,0.3850000000000002 0 0 0 0.3850000000000002,-0.3850000000000002 V2.7889999648928763 a0.06400000000000004,0.06400000000000004 0 0 1 0.06300000000000004,-0.062000000000000034 H8.278000020980834 a0.06300000000000004,0.06300000000000004 0 0 1 0.062000000000000034,0.062000000000000034 v0.8210000000000003 a0.3860000000000002,0.3860000000000002 0 0 0 0.3860000000000002,0.3850000000000002 z" id="svg_8" stroke="#f70202"/></g></g></svg>