<svg xmlns="http://www.w3.org/2000/svg" width="19.437" height="19.744"><rect id="backgroundrect" width="100%" height="100%" x="0" y="0" fill="none" stroke="none"/><defs><style>.a{fill:#43b9be;}</style></defs><g class="currentLayer" style=""><title>Layer 1</title><g id="svg_1" class="selected" fill="#d50b0b" fill-opacity="1" stroke="#f99e61" stroke-opacity="1"><path class="a" d="M7.889999729156493,18.971999999046325 h-0.008000000000000007 a0.3860000000000003,0.3860000000000003 0 1 0 0,0.771 h0.008000000000000007 a0.3860000000000003,0.3860000000000003 0 1 0 0,-0.771 z" id="svg_2" fill="#d50b0b" fill-opacity="1" stroke="#f99e61" stroke-opacity="1"/><path class="a" d="M6.022999858856203,9.099999888420104 a0.3860000000000003,0.3860000000000003 0 0 0 0.3860000000000003,0.3860000000000003 l5.415,0 h0 a0.3860000000000003,0.3860000000000003 0 1 0 0,-0.771 l-5.416,0 A0.3860000000000003,0.3860000000000003 0 0 0 6.022999858856203,9.099999888420104 z" id="svg_3" fill="#d50b0b" fill-opacity="1" stroke="#f99e61" stroke-opacity="1"/><path class="a" d="M18.516999877929685,2.4200000066757203 a1.5630000000000002,1.5630000000000002 0 0 0 -2.169,0.7080000000000003 l-0.5830000000000003,1.166 V3.3590000066757204 a0.3860000000000002,0.3860000000000002 0 0 0 -0.1,-0.262 l0,0 L12.838999877929687,0.1200000066757202 a0.3920000000000002,0.3920000000000002 0 0 0 -0.28200000000000014,-0.12000000000000002 H1.495999877929691 a1.5,1.5 0 0 0 -1.5,1.5 v16.75 a1.5,1.5 0 0 0 1.5,1.5 h4.85 a0.3860000000000002,0.3860000000000002 0 0 0 0,-0.771 h-4.85 a0.7260000000000003,0.7260000000000003 0 0 1 -0.7240000000000003,-0.7260000000000003 V1.4960000066757202 A0.7260000000000003,0.7260000000000003 0 0 1 1.495999877929691,0.7680000066757207 H12.177999877929686 V2.3230000066757204 a1.423,1.423 0 0 0 1.421,1.4220000000000002 h1.4 V5.83500000667572 L11.877999877929689,12.05900000667572 a0.37100000000000016,0.37100000000000016 0 0 0 -0.05100000000000003,0 H6.409999877929685 a0.3860000000000002,0.3860000000000002 0 1 0 0,0.771 H11.677999877929686 l-0.20700000000000007,2.5700000000000003 l-5.059,0 a0.3860000000000002,0.3860000000000002 0 1 0 0,0.772 h0 l5.414,0 h0 a0.3870000000000002,0.3870000000000002 0 0 0 0.255,-0.1 l2.475,-2.179 a0.4,0.4 0 0 0 0.09000000000000007,-0.11700000000000005 h0 l0,0 v0 l0.3450000000000003,-0.6880000000000006 v5.165 a0.7260000000000003,0.7260000000000003 0 0 1 -0.7240000000000003,0.7260000000000003 H9.418999877929686 a0.3860000000000002,0.3860000000000002 0 1 0 0,0.771 H14.26799987792969 a1.5,1.5 0 0 0 1.5,-1.5 V11.54100000667572 l3.485,-6.959 A1.564,1.564 0 0 0 18.516999877929685,2.4200000066757203 zm-4.922,0.553 a0.6510000000000004,0.6510000000000004 0 0 1 -0.6500000000000004,-0.6510000000000004 V1.3530000066757202 L14.47799987792969,2.9730000066757203 zM12.28599987792969,14.86300000667572 l0.14200000000000004,-1.7670000000000003 l1.188,0.6000000000000003 zM18.559999877929684,4.2370000066757205 L14.127999877929689,13.08500000667572 l-1.521,-0.7630000000000003 l3.11,-6.212 v0 l1.32,-2.636 a0.8,0.8 0 0 1 1.134,-0.36300000000000016 A0.8,0.8 0 0 1 18.559999877929684,4.2370000066757205 z" id="svg_4" fill="#d50b0b" fill-opacity="1" stroke="#f99e61" stroke-opacity="1"/><path class="a" d="M4.966999872207644,11.101000102043152 a0.3860000000000003,0.3860000000000003 0 0 0 -0.538,0.09100000000000011 l-1.1320000000000001,1.5870000000000002 l-0.3110000000000002,-0.275 a0.3860000000000003,0.3860000000000003 0 0 0 -0.512,0.5770000000000004 l0.6320000000000005,0.559 a0.3860000000000003,0.3860000000000003 0 0 0 0.255,0.1 l0.04400000000000004,0 a0.3840000000000003,0.3840000000000003 0 0 0 0.27,-0.1590000000000001 l1.381,-1.937 A0.3860000000000003,0.3860000000000003 0 0 0 4.966999872207644,11.101000102043152 z" id="svg_5" fill="#d50b0b" fill-opacity="1" stroke="#f99e61" stroke-opacity="1"/><path class="a" d="M4.966999872207644,14.119999869346618 a0.3860000000000003,0.3860000000000003 0 0 0 -0.538,0.0900000000000001 l-1.1320000000000001,1.589 l-0.3110000000000002,-0.276 a0.3860000000000003,0.3860000000000003 0 0 0 -0.512,0.5770000000000004 l0.6310000000000004,0.561 a0.3860000000000003,0.3860000000000003 0 0 0 0.256,0.1 l0.04400000000000004,0 a0.3840000000000003,0.3840000000000003 0 0 0 0.27,-0.16000000000000014 l1.381,-1.9380000000000002 A0.3860000000000003,0.3860000000000003 0 0 0 4.966999872207644,14.119999869346618 z" id="svg_6" fill="#d50b0b" fill-opacity="1" stroke="#f99e61" stroke-opacity="1"/><path class="a" d="M2.473999872207642,10.063000189781189 l0.6310000000000004,0.561 a0.3860000000000003,0.3860000000000003 0 0 0 0.256,0.1 l0.04400000000000004,0 a0.3840000000000003,0.3840000000000003 0 0 0 0.27,-0.16000000000000014 l1.381,-1.9380000000000002 a0.3860000000000003,0.3860000000000003 0 1 0 -0.6280000000000004,-0.4470000000000003 l-1.1320000000000001,1.588 L2.98399987220764,9.486000189781189 a0.3860000000000003,0.3860000000000003 0 1 0 -0.512,0.5770000000000004 z" id="svg_7" fill="#d50b0b" fill-opacity="1" stroke="#f99e61" stroke-opacity="1"/><path class="a" d="M8.273999834060668,1.9539999723434458 h-0.775 a0.8350000000000004,0.8350000000000004 0 0 0 -0.8340000000000004,0.8340000000000004 V3.223999972343445 h-0.4350000000000002 a0.8340000000000004,0.8340000000000004 0 0 0 -0.8330000000000004,0.8330000000000004 v0.776 a0.8350000000000004,0.8350000000000004 0 0 0 0.8330000000000004,0.8340000000000004 h0.4350000000000002 v0.4350000000000002 a0.8350000000000004,0.8350000000000004 0 0 0 0.8340000000000004,0.8340000000000004 H8.273999834060668 a0.8350000000000004,0.8350000000000004 0 0 0 0.8340000000000004,-0.8340000000000004 V5.6669999723434445 h0.4350000000000002 a0.8350000000000004,0.8350000000000004 0 0 0 0.8340000000000004,-0.8340000000000004 V4.053999972343445 a0.8350000000000004,0.8350000000000004 0 0 0 -0.8340000000000004,-0.8330000000000004 h-0.4350000000000002 V2.7889999723434453 A0.8350000000000004,0.8350000000000004 0 0 0 8.273999834060668,1.9539999723434458 zm1.2690000000000001,2.041 a0.06400000000000006,0.06400000000000006 0 0 1 0.06200000000000005,0.06200000000000005 v0.776 a0.06400000000000006,0.06400000000000006 0 0 1 -0.06200000000000005,0.06200000000000005 h-0.8210000000000004 a0.3860000000000003,0.3860000000000003 0 0 0 -0.3860000000000003,0.3860000000000003 v0.8210000000000004 a0.06300000000000006,0.06300000000000006 0 0 1 -0.06200000000000005,0.06300000000000006 h-0.775 a0.06400000000000006,0.06400000000000006 0 0 1 -0.06300000000000006,-0.06300000000000006 V5.280999972343444 a0.3860000000000003,0.3860000000000003 0 0 0 -0.3850000000000003,-0.3860000000000003 h-0.8210000000000004 a0.06200000000000005,0.06200000000000005 0 0 1 -0.06100000000000004,-0.06200000000000005 V4.053999972343445 a0.06300000000000006,0.06300000000000006 0 0 1 0.06100000000000004,-0.06200000000000005 h0.8210000000000004 a0.3850000000000003,0.3850000000000003 0 0 0 0.3850000000000003,-0.3850000000000003 V2.7889999723434453 a0.06400000000000006,0.06400000000000006 0 0 1 0.06300000000000006,-0.06200000000000005 H8.273999834060668 a0.06300000000000006,0.06300000000000006 0 0 1 0.06200000000000005,0.06200000000000005 v0.8210000000000004 a0.3860000000000003,0.3860000000000003 0 0 0 0.3860000000000003,0.3850000000000003 z" id="svg_8" fill="#d50b0b" fill-opacity="1" stroke="#f99e61" stroke-opacity="1"/></g></g></svg>