<svg xmlns="http://www.w3.org/2000/svg" width="21.874" height="21.168" viewBox="0 0 21.874 21.168"><defs><style>.a{fill:#43b9be;}</style></defs><g transform="translate(-158.474 1.631)"><path class="a" d="M166.63,3.808l3.527,3.527L177.92-.425V.836h.706V-1.631h-2.472v.706h1.266l-7.264,7.264L166.63,2.809l-4.482,4.482.5.5Z" transform="translate(-1.452)"/><path class="a" d="M179.642,22.058V6.535h-3.527V22.058h-.706V8.654h-3.526V22.063h-.706v-8.47h-3.531v8.465h-.706V11.474h-3.527V22.058h-.706V17.119H159.18v4.939h-.706v.706h21.874v-.706Zm-17.637,0h-2.119V17.825H162Zm4.233,0h-2.119V12.18h2.119Zm4.232,0h-2.118V14.3h2.118Zm4.233,0h-2.119V9.36H174.7Zm4.237,0h-2.119V7.241h2.119Z" transform="translate(0 -3.227)"/></g></svg>