<svg xmlns="http://www.w3.org/2000/svg" width="35" height="35" viewBox="0 0 35 35"><defs><style>.a{fill:#43b9be;}</style></defs><g transform="translate(-1222.579 -116.74)"><path class="a" d="M1245.16,134.24a6.21,6.21,0,1,0-6.21,6.209A6.217,6.217,0,0,0,1245.16,134.24Zm-11.291,0a5.081,5.081,0,1,1,5.081,5.08A5.087,5.087,0,0,1,1233.869,134.24Z"/><path class="a" d="M1239.515,138.191v-1.129h1.129v-1.693a1.7,1.7,0,0,0-1.694-1.694.565.565,0,0,1-.565-.564v-.565h.565a.566.566,0,0,1,.565.565h1.129a1.692,1.692,0,0,0-1.129-1.59v-1.233h-1.13v1.129h-1.129v1.694a1.7,1.7,0,0,0,1.694,1.693.566.566,0,0,1,.565.565v.564h-.565a.565.565,0,0,1-.565-.564h-1.129a1.69,1.69,0,0,0,1.129,1.589v1.233Z"/><rect class="a" width="1.129" height="1.129" transform="translate(1241.773 133.675)"/><rect class="a" width="1.129" height="1.129" transform="translate(1234.998 133.675)"/><path class="a" d="M1228.789,129.159a6.209,6.209,0,1,0-6.21-6.21A6.216,6.216,0,0,0,1228.789,129.159Zm0-11.29a5.08,5.08,0,1,1-5.081,5.08A5.086,5.086,0,0,1,1228.789,117.869Z"/><path class="a" d="M1228.789,124.643a.566.566,0,0,1-.565-.565h-1.129a1.692,1.692,0,0,0,1.129,1.59V126.9h1.129v-1.129h1.129v-1.694a1.7,1.7,0,0,0-1.693-1.693.566.566,0,0,1-.565-.565v-.564h.565a.565.565,0,0,1,.564.564h1.129a1.689,1.689,0,0,0-1.129-1.589V119h-1.129v1.129h-1.129v1.693a1.7,1.7,0,0,0,1.694,1.694.565.565,0,0,1,.564.564v.565Z"/><rect class="a" width="1.129" height="1.129" transform="translate(1231.611 122.385)"/><rect class="a" width="1.129" height="1.129" transform="translate(1224.837 122.385)"/><rect class="a" width="4.516" height="1.129" transform="translate(1245.16 148.353)"/><path class="a" d="M1254.756,116.74h-14.677a2.826,2.826,0,0,0-2.823,2.822v6.38a8.454,8.454,0,0,0-5.4,12.9l-1.089,1.089-.847-.846-6.472,6.471a2.96,2.96,0,1,0,4.185,4.186l6.472-6.472-.847-.847,1.089-1.089a8.416,8.416,0,0,0,2.911,1.2v6.38a2.827,2.827,0,0,0,2.823,2.823h14.677a2.826,2.826,0,0,0,2.823-2.823V119.562A2.825,2.825,0,0,0,1254.756,116.74Zm-10.725,1.129h6.774v.564a.566.566,0,0,1-.565.565h-5.645a.565.565,0,0,1-.564-.565Zm-17.2,31.076a1.83,1.83,0,1,1-2.589-2.588l5.674-5.674,2.589,2.589Zm5.625-7.318-.9-.9.976-.976a8.6,8.6,0,0,0,.9.9Zm-.847-7.387a7.339,7.339,0,1,1,7.339,7.338A7.348,7.348,0,0,1,1231.611,134.24Zm21.452,8.467v-7.9h-5.674c.012-.187.029-.374.029-.564a8.483,8.483,0,0,0-6.774-8.3v-3.557h13.548v21.451h-13.548v-1.3a8.3,8.3,0,0,0,1.129-.324v.494Zm-9.907-1.129a8.483,8.483,0,0,0,4.091-5.645h4.687v5.645Zm13.294,7.339a1.7,1.7,0,0,1-1.694,1.694h-14.677a1.7,1.7,0,0,1-1.694-1.694v-1.693h18.065Zm0-2.823h-18.065v-3.415c.188.012.374.028.565.028s.377-.016.565-.028v1.157a1.13,1.13,0,0,0,1.129,1.129h13.548a1.13,1.13,0,0,0,1.129-1.129V122.385a1.13,1.13,0,0,0-1.129-1.129h-13.548a1.13,1.13,0,0,0-1.129,1.129V125.8c-.188-.013-.374-.029-.565-.029s-.377.016-.565.029v-6.239a1.7,1.7,0,0,1,1.694-1.693h2.823v.564a1.7,1.7,0,0,0,1.693,1.694h5.645a1.7,1.7,0,0,0,1.694-1.694v-.564h2.822a1.7,1.7,0,0,1,1.694,1.693Z"/><rect class="a" width="1.129" height="1.129" transform="translate(1241.773 123.514)"/><rect class="a" width="1.129" height="1.129" transform="translate(1244.031 123.514)"/><rect class="a" width="6.774" height="1.129" transform="translate(1246.289 123.514)"/><rect class="a" width="6.774" height="1.129" transform="translate(1246.289 125.772)"/><rect class="a" width="4.516" height="1.129" transform="translate(1248.547 128.03)"/><rect class="a" width="4.516" height="1.129" transform="translate(1248.547 130.288)"/><rect class="a" width="4.516" height="1.129" transform="translate(1248.547 132.546)"/></g></svg>