<svg xmlns="http://www.w3.org/2000/svg" width="34.685" height="26.853" viewBox="0 0 34.685 26.853"><defs><style>.a{fill:#43b9be;}</style></defs><g transform="translate(-1271.92 -219.155)"><g transform="translate(1271.92 219.155)"><path class="a" d="M1306.6,242.649V219.155H1271.92v23.494h13.423v2.24h-6.152v1.119h20.135v-1.119h-6.152v-2.24Zm-33.565-22.381h32.445v16.783h-3.359v-5.517h-1.953a10.289,10.289,0,0,0-.683-1.645l1.386-1.38-4.7-4.7-1.38,1.386a11.339,11.339,0,0,0-1.652-.683v-1.96H1286.5v1.96a11,11,0,0,0-1.646.683l-1.379-1.386-4.7,4.7,1.38,1.38a9.971,9.971,0,0,0-.676,1.652h-1.959v5.517h-4.472Zm16.783,9.19a5.408,5.408,0,0,0-5.4,5.4,5.3,5.3,0,0,0,.478,2.2h-6.268v-4.4h1.686l.117-.41a9.572,9.572,0,0,1,.9-2.185l.212-.369-1.188-1.188,3.12-3.12,1.188,1.195.369-.211a9.809,9.809,0,0,1,2.177-.908l.41-.116v-1.68h4.411v1.68l.41.116a9.616,9.616,0,0,1,2.185.908l.368.211,1.188-1.188,3.12,3.12-1.2,1.188.212.369a9.941,9.941,0,0,1,.908,2.185l.116.41h1.679v4.4h-6.267a5.306,5.306,0,0,0,.478-2.2A5.43,5.43,0,0,0,1289.822,229.458Zm4.281,5.394a4.277,4.277,0,0,1-.608,2.2h-7.347a4.281,4.281,0,1,1,7.955-2.2Zm-2.042,10.037h-5.6v-2.24h5.6Zm-6.719-3.359h-12.3v-3.36h32.445v3.36h-20.142Z" transform="translate(-1271.92 -219.155)"/></g><g transform="translate(1288.702 239.29)"><g transform="translate(0)"><rect class="a" width="1.12" height="1.12"/></g></g><g transform="translate(1290.942 239.29)"><rect class="a" width="1.12" height="1.12"/></g><g transform="translate(1286.463 239.29)"><g transform="translate(0)"><rect class="a" width="1.12" height="1.12"/></g></g><g transform="translate(1298.937 234.163)"><g transform="translate(0)"><rect class="a" width="1.12" height="1.379"/></g></g><g transform="translate(1279.587 234.163)"><g transform="translate(0)"><rect class="a" width="1.12" height="1.379"/></g></g><g transform="translate(1282.1 227.132)"><rect class="a" width="1.379" height="1.12" transform="translate(0 0.975) rotate(-45.004)"/></g><g transform="translate(1289.132 224.624)"><rect class="a" width="1.379" height="1.12"/></g><g transform="translate(1295.779 227.133)"><rect class="a" width="1.12" height="1.379" transform="translate(0 0.792) rotate(-45)"/></g></g></svg>