<svg xmlns="http://www.w3.org/2000/svg" width="60.807" height="50" viewBox="0 0 60.807 50"><defs><style>.a{opacity:0.495;}.b{fill:#ccc;}</style></defs><g class="a" transform="translate(-722.96 -62.148)"><path class="b" d="M744.519,90.63a1.2,1.2,0,0,0,1.743-1.228l-.926-6.539a12.458,12.458,0,0,0,2.292-6.79,12.339,12.339,0,1,0-16.123,11.359,12.464,12.464,0,0,0,7.165.127Zm-17.354-9.215a9.944,9.944,0,1,1,15.972.39,1.2,1.2,0,0,0-.242.9l.667,4.712-4.215-2.213a1.194,1.194,0,0,0-.556-.137,1.207,1.207,0,0,0-.376.06,9.889,9.889,0,0,1-11.25-3.717Z"/><path class="b" d="M735.05,68.1a3.647,3.647,0,0,0-3.642,3.643v.474a1.2,1.2,0,1,0,2.395,0v-.474a1.247,1.247,0,0,1,2.494,0v.474c0,.184-.386.645-.642.95a4.2,4.2,0,0,0-1.272,2.674v1.5a1.2,1.2,0,0,0,2.4,0v-1.5c0-.284.379-.737.713-1.136a3.96,3.96,0,0,0,1.2-2.488v-.474A3.645,3.645,0,0,0,735.05,68.1Z"/><path class="b" d="M735.584,80.72a1.2,1.2,0,0,0-1.2,1.2v0a1.2,1.2,0,1,0,1.2-1.2Z"/><path class="b" d="M783.508,106.61c-1.343-6.068-4.257-13.207-14.85-15.157V86.972c2.357-2.4,3.7-5.076,3.7-7.409V76.684a7.243,7.243,0,0,0,3.022-3.07c1.227-2.31,1.7-5.69,1.448-10.333a1.2,1.2,0,0,0-1.665-1.037c-4.275,1.821-8.387,1.291-12.014.824a20.13,20.13,0,0,0-5.859-.23A5.58,5.58,0,0,0,753.039,66c-3.329,2.075-3.329,6.081-3.329,9.959v3.6c0,2.34,1.351,5.028,3.72,7.43v4.46c-10.594,1.95-13.508,9.089-14.85,15.156-.3,1.352-.523,3.054.424,4.236.927,1.155,2.545,1.3,3.851,1.3h7.311a1.2,1.2,0,1,0,0-2.4h-7.311c-1.44,0-1.86-.256-1.982-.408s-.3-.667.046-2.217c1.027-4.645,2.917-9.494,8.619-12.02l5.172,7.936a1.2,1.2,0,0,0,.9.539c.033,0,.066,0,.1,0a1.2,1.2,0,0,0,.884-.389l4.447-4.857,4.447,4.857a1.2,1.2,0,0,0,.883.389c.033,0,.065,0,.1,0a1.2,1.2,0,0,0,.906-.539l5.171-7.936c5.7,2.526,7.592,7.375,8.62,12.02.344,1.55.177,2.055.046,2.217s-.542.407-1.982.407H761.655a1.2,1.2,0,1,0,0,2.4h17.578c1.306,0,2.924-.148,3.851-1.3.947-1.182.724-2.885.424-4.235ZM754.537,67.9a1.2,1.2,0,0,0,.522-.567c1.161-2.622,3.346-2.463,7.784-1.891,3.322.428,7.368.949,11.651-.4.049,3.317-.363,5.818-1.229,7.447a5.049,5.049,0,0,1-2.386,2.27c-6.386-.117-10.291-1.047-13.432-3.187a1.2,1.2,0,0,0-1.55.171,9.108,9.108,0,0,1-3.779,2.545c.064-3.214.431-5.3,2.419-6.386ZM752.1,79.563V76.836a12.011,12.011,0,0,0,4.833-2.745c3.24,1.949,7.154,2.86,13.025,3.042v2.43c0,1.773-1.24,4.027-3.316,6.031-1.911,1.843-4.166,3.082-5.613,3.082s-3.7-1.239-5.613-3.082c-2.076-2-3.316-4.258-3.316-6.031Zm3.768,20.878-4.017-6.165a22.279,22.279,0,0,1,2.508-.554L759.2,96.81Zm-.047-8.628v-2.78a7.677,7.677,0,0,0,10.436-.014v2.794l-5.218,3.333Zm10.389,8.628L762.89,96.81l4.834-3.088a22.282,22.282,0,0,1,2.508.554Z"/><path class="b" d="M755.911,109.752a1.2,1.2,0,0,0,0,2.4h.006a1.2,1.2,0,0,0-.006-2.4Z"/></g></svg>