<svg xmlns="http://www.w3.org/2000/svg" width="35.401" height="35" viewBox="0 0 35.401 35"><defs><style>.a{fill:#43b9be;}</style></defs><g transform="translate(-1170.107 -219.155)"><path class="a" d="M1203,231.868l2.5-2.5-7.042-7.041-2.5,2.5,1.134,1.135-3.168,3.168-2.269-2.269-2.5,2.5,1.135,1.134-3.169,3.169v-5.174l-5.1-3.4v-1.4a1.7,1.7,0,0,0,1.7-1.7v-1.134a1.7,1.7,0,0,0-1.7-1.7h-6.807a1.7,1.7,0,0,0-1.7,1.7v1.134a1.7,1.7,0,0,0,1.7,1.7v1.4l-5.1,3.4V242.41a2.839,2.839,0,0,0,2.835,2.836h6.807v.333l-3.071,3.071.851.85-3.853,3.853.8.8,3.853-3.853.851.851,3.07-3.071h4.538l10.542-10.542,1.134,1.135,2.5-2.5L1198.7,233.9l3.169-3.168Zm-4.538-7.94,5.437,5.437-.9.9-5.437-5.437Zm-17.187,2.034,3.4,2.268h-12.135l3.4-2.268Zm-6.635-3.971v-1.134a.568.568,0,0,1,.567-.567h6.807a.568.568,0,0,1,.567.567v1.134a.568.568,0,0,1-.567.567h-6.807A.568.568,0,0,1,1174.644,221.991Zm6.239,1.7v1.134h-4.537v-1.134Zm-7.941,20.419a1.7,1.7,0,0,1-1.7-1.7V229.365h14.747V234.8l-1.134,1.134v-4.3a1.136,1.136,0,0,0-1.135-1.135H1173.51a1.136,1.136,0,0,0-1.135,1.135v10.209a1.136,1.136,0,0,0,1.135,1.135h6.239v1.134Zm7.941,1.467v-2.934l4.3,4.3h-2.934Zm-.567-5.1V238.44h2.034Zm-4.538-3.168v-1.135h2.269V233.9h1.135v2.269h2.268v1.135h-2.268v2.268h-1.135v-2.268Zm4.538-2.269v-2.269h-3.4v2.269h-2.269v3.4h2.269v2.269h3.168l-.332.332v.8h-6.239V231.634h10.209v5.437l-1.134,1.134v-3.168Zm-2.034,13.613,2.034-2.034.9.9-2.034,2.034Zm16.781-10.445-3-3-.8.8,3,3-.9.9-1.868-1.868-.8.8,1.868,1.868-.9.9-3-3-.8.8,3,3-.9.9-1.867-1.868-.8.8,1.867,1.868-.9.9-3-3-.8.8,3,3-.9.9-5.437-5.437,9.975-9.975,5.437,5.437Zm3.4-1.134-7.706-7.706.9-.9,7.706,7.706Zm-.567-3.971-3.168-3.168,3.168-3.168,3.168,3.168Z"/></g></svg>