<svg xmlns="http://www.w3.org/2000/svg" width="22.028" height="19.882" viewBox="0 0 22.028 19.882"><defs><style>.a{fill:#43b9be;}</style></defs><g transform="translate(-107.928 -1.476)"><path class="a" d="M129.954,7.8A6.5,6.5,0,0,0,118.942,3.3,6.5,6.5,0,0,0,107.929,7.8a7,7,0,0,0,2.248,5.109l8.309,8.263a.646.646,0,0,0,.911,0l8.309-8.263A7,7,0,0,0,129.954,7.8Zm-11.012,12-7.09-7.05h2.268a.646.646,0,0,0,.554-.314l.5-.826,1.849,2.906a.646.646,0,0,0,1.128-.07L120.7,9.061l1.8,3.352a.646.646,0,0,0,.568.339h2.957Zm8.338-8.341h-3.82l-2.227-4.136a.646.646,0,0,0-1.152.03l-2.6,5.484-1.783-2.8a.646.646,0,0,0-1.1.014l-.845,1.408H110.6a5.5,5.5,0,0,1-1.384-3.637c.081-4.025,5.211-7.232,9.265-3.179a.646.646,0,0,0,.913,0c5.176-5.175,12.291,1.515,7.882,6.816Z" transform="translate(0)"/></g></svg>