<svg xmlns="http://www.w3.org/2000/svg" width="23.465" height="56.287" viewBox="0 0 23.465 56.287"><defs><style>.a{fill:#d3d3d3;}</style></defs><path class="a" d="M475.7,461.518a5.233,5.233,0,1,1-5.234-5.231h0A5.233,5.233,0,0,1,475.7,461.518Z" transform="translate(-458.827 -456.287)"/><path class="a" d="M466.713,520.387h0a2.464,2.464,0,0,1-2.463-2.464V495.07a2.462,2.462,0,0,1,2.462-2.462h0a2.462,2.462,0,0,1,2.462,2.462v22.853a2.463,2.463,0,0,1-2.462,2.464Z" transform="translate(-458.616 -464.1)"/><path class="a" d="M475.734,520.387h0a2.462,2.462,0,0,1-2.462-2.464V495.07a2.462,2.462,0,0,1,2.462-2.462h0a2.462,2.462,0,0,1,2.462,2.462v22.853a2.464,2.464,0,0,1-2.462,2.464Z" transform="translate(-460.557 -464.1)"/><path class="a" d="M458.907,492.863h0a1.836,1.836,0,0,1-1.835-1.836V474.785a1.834,1.834,0,0,1,1.834-1.834h0a1.834,1.834,0,0,1,1.834,1.834v16.242a1.836,1.836,0,0,1-1.834,1.836Z" transform="translate(-457.072 -459.871)"/><path class="a" d="M484.127,492.863h0a1.836,1.836,0,0,1-1.835-1.836V474.785a1.834,1.834,0,0,1,1.834-1.834h0a1.835,1.835,0,0,1,1.834,1.834v16.242a1.836,1.836,0,0,1-1.834,1.836Z" transform="translate(-462.497 -459.871)"/><ellipse class="a" cx="0.737" cy="0.737" rx="0.737" ry="0.737" transform="translate(20.892 33.936)"/><path class="a" d="M473.852,472.756l-3.6,11.7-3.477-11.7h-2.525v23.392h12V472.756Z" transform="translate(-458.616 -459.829)"/><g transform="translate(9.89 12.465)"><path class="a" d="M470.833,472.755l-1.161-.587V473.4l1.161-.367Z" transform="translate(-469.672 -472.168)"/><path class="a" d="M472.646,472.755l1.161-.587V473.4l-1.161-.367Z" transform="translate(-470.312 -472.168)"/><ellipse class="a" cx="0.346" cy="0.346" rx="0.346" ry="0.346" transform="translate(1.401 0.409)"/></g><rect class="a" width="2.769" height="11.4" transform="translate(20.245 36.355)"/></svg>