<svg xmlns="http://www.w3.org/2000/svg" width="34.456" height="35" viewBox="0 0 34.456 35"><defs><style>.a{fill:#43b9be;}</style></defs><g transform="translate(-1224.283 -65.883)"><path class="a" d="M1238.268,99.516h-.013a.684.684,0,1,0,0,1.367h.013a.684.684,0,1,0,0-1.367Z"/><path class="a" d="M1234.962,82.016a.683.683,0,0,0,.683.684l9.6,0h0a.684.684,0,0,0,0-1.368l-9.6,0A.685.685,0,0,0,1234.962,82.016Z"/><path class="a" d="M1257.108,70.174a2.77,2.77,0,0,0-3.845,1.255l-1.035,2.067V71.838a.682.682,0,0,0-.183-.465l0-.006-5-5.27a.689.689,0,0,0-.5-.214h-19.608a2.655,2.655,0,0,0-2.652,2.653V98.229a2.655,2.655,0,0,0,2.652,2.654h8.6a.684.684,0,1,0,0-1.367h-8.6a1.288,1.288,0,0,1-1.285-1.287V68.536a1.287,1.287,0,0,1,1.285-1.285h18.928V70a2.524,2.524,0,0,0,2.52,2.521h2.477v3.7l-5.524,11.034a.685.685,0,0,0-.091-.007l-9.6,0a.684.684,0,0,0,0,1.368l9.335,0-.366,4.556-8.969,0a.684.684,0,0,0,0,1.368h0l9.6,0h0a.682.682,0,0,0,.452-.171l4.387-3.863a.688.688,0,0,0,.16-.207h0l0-.006,0,0,.611-1.22v9.156a1.286,1.286,0,0,1-1.284,1.286h-8.6a.684.684,0,0,0,0,1.368h8.6a2.656,2.656,0,0,0,2.652-2.654V86.342l6.179-12.336A2.772,2.772,0,0,0,1257.108,70.174Zm-8.725.98A1.154,1.154,0,0,1,1247.231,70V68.282l2.723,2.872Zm-2.321,21.076.252-3.131,2.1,1.055Zm11.122-18.836-7.857,15.686-2.7-1.352,5.515-11.012v0l2.339-4.672a1.509,1.509,0,0,1,2.7,1.353Z"/><path class="a" d="M1233.087,85.563a.685.685,0,0,0-.954.16l-2.007,2.815-.551-.488a.684.684,0,0,0-.907,1.024l1.12.992a.684.684,0,0,0,.453.172c.026,0,.052,0,.077,0a.683.683,0,0,0,.48-.283l2.448-3.433A.685.685,0,0,0,1233.087,85.563Z"/><path class="a" d="M1233.086,90.913a.684.684,0,0,0-.953.16l-2.007,2.816-.55-.489a.684.684,0,1,0-.908,1.023l1.119.994a.684.684,0,0,0,.454.173.651.651,0,0,0,.077,0,.679.679,0,0,0,.48-.282l2.448-3.436A.683.683,0,0,0,1233.086,90.913Z"/><path class="a" d="M1228.668,83.721l1.119.994a.684.684,0,0,0,.454.173.652.652,0,0,0,.077,0,.683.683,0,0,0,.48-.283l2.448-3.436a.683.683,0,1,0-1.113-.793l-2.007,2.815-.55-.488a.684.684,0,1,0-.908,1.022Z"/><path class="a" d="M1238.956,69.35h-1.375a1.48,1.48,0,0,0-1.478,1.478V71.6h-.771a1.478,1.478,0,0,0-1.477,1.476v1.376a1.479,1.479,0,0,0,1.477,1.478h.77V76.7a1.481,1.481,0,0,0,1.479,1.479h1.375a1.48,1.48,0,0,0,1.478-1.479V75.93h.771a1.48,1.48,0,0,0,1.478-1.478V73.076A1.479,1.479,0,0,0,1241.2,71.6h-.771v-.772A1.48,1.48,0,0,0,1238.956,69.35Zm2.249,3.617a.113.113,0,0,1,.11.109v1.376a.113.113,0,0,1-.11.11h-1.455a.684.684,0,0,0-.684.684V76.7a.112.112,0,0,1-.11.111h-1.375a.114.114,0,0,1-.111-.111V75.246a.684.684,0,0,0-.684-.684h-1.454a.111.111,0,0,1-.109-.11V73.076a.112.112,0,0,1,.109-.109h1.454a.683.683,0,0,0,.684-.683V70.828a.114.114,0,0,1,.111-.11h1.375a.111.111,0,0,1,.11.11v1.456a.683.683,0,0,0,.684.683Z"/></g></svg>