<svg xmlns="http://www.w3.org/2000/svg" width="35" height="35" viewBox="0 0 35 35"><defs><style>.a{fill:#43b9be;}</style></defs><g transform="translate(-1170.307 -164.662)"><path class="a" d="M1180.224,190.912a1.75,1.75,0,1,0,1.75,1.75A1.75,1.75,0,0,0,1180.224,190.912Zm0,2.334a.584.584,0,1,1,.583-.584A.583.583,0,0,1,1180.224,193.246Z"/><path class="a" d="M1204.723,198.5h-2.475a1.142,1.142,0,0,0-.257-.74c-1.158-1.4-3.1-4.147-3.1-6.844v-4.871a1.158,1.158,0,0,0,.89-.777l.356-1.112a1.166,1.166,0,0,0-.758-1.466l4.78-14.98a2.333,2.333,0,1,0-4.446-1.419l-4.779,14.981a1.17,1.17,0,0,0-1.466.758l-.354,1.108a1.156,1.156,0,0,0,.016.744,24.863,24.863,0,0,0-3.459,2.426l.424-4.238a1.745,1.745,0,0,0,1.213-1.653v-1.167a1.751,1.751,0,0,0-1.75-1.75h-.583a2.884,2.884,0,0,0-3.5-2.85V170.5a3.5,3.5,0,0,0-7,0v2.1a4.623,4.623,0,0,0-1.842,1.347,2.909,2.909,0,0,0-4.328,3.557h-.247a1.751,1.751,0,0,0-1.75,1.75v1.167a1.747,1.747,0,0,0,1.213,1.656l1.5,14.968a2.9,2.9,0,0,0,2.9,2.625h9.776a2.9,2.9,0,0,0,1.934-.74,11.469,11.469,0,0,0,4.845.74h12.249a.583.583,0,1,0,0-1.166Zm-3.9-31.854a1.168,1.168,0,0,1,2.225.709l-4.781,14.981-2.222-.71Zm-6.245,15.737,4.446,1.417-.355,1.111-4.445-1.417Zm-5.021-3.716a.583.583,0,0,1,.583.583v1.167a.583.583,0,0,1-.583.583h-4.083v-2.333Zm-7.583,0h2.333V181h-2.333Zm4.083-2.917a1.75,1.75,0,0,1,1.75,1.75h-2.333v-1.633A1.687,1.687,0,0,1,1186.057,175.746Zm-6.416-5.25a2.333,2.333,0,0,1,4.666,0v4.184a4.614,4.614,0,0,0-4.666-2.395Zm-6.417,5.833a1.741,1.741,0,0,1,3.065-1.139.585.585,0,0,0,.94-.081,3.5,3.5,0,0,1,6.419,1.083.583.583,0,0,0,.44.449.556.556,0,0,0,.219,0v.852h-2.333v-.583a.583.583,0,1,0-1.167,0V188a.571.571,0,0,1-.178.415.558.558,0,0,1-.405.168.583.583,0,0,1-.583-.583v-4.083a1.75,1.75,0,0,0-3.5,0v1.75a.572.572,0,0,1-.179.415.56.56,0,0,1-.405.168.583.583,0,0,1-.583-.583v-8.75a.583.583,0,1,0-1.167,0v.583h-.121a1.742,1.742,0,0,1-.462-1.167Zm-1.75,2.917a.583.583,0,0,1,.583-.583h1.75V181h-1.75a.583.583,0,0,1-.583-.583Zm14.221,19.25h-9.776a1.742,1.742,0,0,1-1.741-1.575l-1.476-14.758h1.1v3.5a1.75,1.75,0,0,0,3.5,0v-1.75a.583.583,0,0,1,.584-.584.568.568,0,0,1,.415.179.562.562,0,0,1,.168.4V188a1.75,1.75,0,1,0,3.5,0v-5.833h2.333v1.274a1.75,1.75,0,1,0,1.167,0v-1.274h3.441l-.539,5.392a10.946,10.946,0,0,0-2.9,6.2,5.179,5.179,0,0,0,.91,4.254c.069.078.151.14.225.211A1.738,1.738,0,0,1,1185.695,198.5Zm-.221-13.417a.583.583,0,1,1-.584-.583A.584.584,0,0,1,1185.474,185.079Zm14.583,13.417h-2.726a5.37,5.37,0,0,0-.5-.309,4.338,4.338,0,0,1-2.6-4.358c0-3.754,1.566-5.407,1.579-5.421a.583.583,0,0,0-.825-.825c-.079.079-1.921,1.97-1.921,6.246a5.467,5.467,0,0,0,2.087,4.667h-2.508a4.6,4.6,0,0,1-2.353-2.843,6.416,6.416,0,0,1,.927-4.418.583.583,0,0,0-.971-.646,7.5,7.5,0,0,0-1.092,5.332,5.17,5.17,0,0,0,1.459,2.509,4.966,4.966,0,0,1-3.34-1.19,4.13,4.13,0,0,1-.627-3.338c.573-4.577,3.893-7.153,7.447-9.231l3.637,1.161v5.08c0,3.062,2.111,6.067,3.367,7.584Z"/><path class="a" d="M1175.557,169.913a1.75,1.75,0,1,0-.512,1.237A1.749,1.749,0,0,0,1175.557,169.913Zm-2.333,0a.583.583,0,1,1,.583.583A.583.583,0,0,1,1173.224,169.913Z"/><path class="a" d="M1189.557,172.829a1.749,1.749,0,1,0-1.75-1.749A1.75,1.75,0,0,0,1189.557,172.829Zm0-2.333a.583.583,0,1,1-.583.584A.583.583,0,0,1,1189.557,170.5Z"/><circle class="a" cx="0.583" cy="0.583" r="0.583" transform="translate(1186.64 166.413)"/><circle class="a" cx="0.583" cy="0.583" r="0.583" transform="translate(1176.724 166.413)"/></g></svg>