<svg xmlns="http://www.w3.org/2000/svg" width="46.216" height="46.945" viewBox="0 0 46.216 46.945"><defs><style>.a{fill:#50c4ca;}</style></defs><g transform="translate(-431.272 -64.879)"><path class="a" d="M450.03,109.99h-.018a.917.917,0,0,0,0,1.834h.018a.917.917,0,1,0,0-1.834Z"/><path class="a" d="M445.6,86.518a.918.918,0,0,0,.917.917l12.877.006h0a.917.917,0,0,0,0-1.835L446.513,85.6A.919.919,0,0,0,445.6,86.518Z"/><path class="a" d="M475.3,70.634a3.716,3.716,0,0,0-5.158,1.683l-1.388,2.772V72.866a.914.914,0,0,0-.246-.624l-.006-.008-6.7-7.069a.926.926,0,0,0-.67-.286h-26.3a3.562,3.562,0,0,0-3.557,3.558v39.827a3.563,3.563,0,0,0,3.557,3.56h11.53a.917.917,0,0,0,0-1.834h-11.53a1.727,1.727,0,0,1-1.723-1.726V68.437a1.725,1.725,0,0,1,1.723-1.723h25.388V70.4a3.385,3.385,0,0,0,3.381,3.381h3.322v4.97l-7.41,14.8a.97.97,0,0,0-.121-.009l-12.877,0a.917.917,0,1,0,0,1.834l12.521,0-.492,6.111-12.03,0a.918.918,0,0,0,0,1.835h0l12.874-.005h0a.916.916,0,0,0,.606-.229l5.885-5.183a.91.91,0,0,0,.213-.277h0l.005-.008,0-.007.819-1.636v12.28a1.725,1.725,0,0,1-1.722,1.726h-11.53a.917.917,0,1,0,0,1.835H465.2a3.563,3.563,0,0,0,3.557-3.561V92.32l8.287-16.546A3.717,3.717,0,0,0,475.3,70.634Zm-11.7,1.314a1.548,1.548,0,0,1-1.546-1.546V68.1l3.652,3.851Zm-3.113,28.27.338-4.2,2.823,1.416ZM475.4,74.952l-10.538,21.04-3.616-1.813,7.4-14.771,0,0,3.138-6.266a2.024,2.024,0,0,1,3.618,1.813Z"/><path class="a" d="M443.081,91.276a.918.918,0,0,0-1.28.214l-2.692,3.775-.738-.654a.917.917,0,1,0-1.217,1.373l1.5,1.331a.917.917,0,0,0,1.355-.154l3.284-4.606A.917.917,0,0,0,443.081,91.276Z"/><path class="a" d="M443.08,98.452a.917.917,0,0,0-1.279.214l-2.691,3.777-.739-.655a.917.917,0,1,0-1.218,1.371l1.5,1.334a.922.922,0,0,0,.609.231.89.89,0,0,0,.1-.006.916.916,0,0,0,.644-.379l3.284-4.608A.916.916,0,0,0,443.08,98.452Z"/><path class="a" d="M437.153,88.805l1.5,1.333a.918.918,0,0,0,.609.232.89.89,0,0,0,.1-.006.919.919,0,0,0,.644-.379l3.284-4.608a.917.917,0,1,0-1.494-1.065l-2.692,3.776-.738-.655a.917.917,0,1,0-1.218,1.372Z"/><path class="a" d="M450.953,69.529h-1.845a1.984,1.984,0,0,0-1.982,1.983v1.034h-1.034a1.983,1.983,0,0,0-1.98,1.981v1.844a1.984,1.984,0,0,0,1.98,1.984h1.033v1.034a1.986,1.986,0,0,0,1.983,1.983h1.845a1.985,1.985,0,0,0,1.982-1.983V78.355h1.034a1.986,1.986,0,0,0,1.983-1.984V74.527a1.985,1.985,0,0,0-1.983-1.981h-1.034V71.512A1.984,1.984,0,0,0,450.953,69.529Zm3.016,4.852a.15.15,0,0,1,.148.145v1.845a.152.152,0,0,1-.148.149h-1.951a.917.917,0,0,0-.917.917v1.952a.15.15,0,0,1-.148.148h-1.845a.152.152,0,0,1-.148-.148V77.437a.917.917,0,0,0-.917-.917h-1.951a.149.149,0,0,1-.145-.149V74.526a.148.148,0,0,1,.145-.145h1.951a.918.918,0,0,0,.917-.917V71.512a.153.153,0,0,1,.148-.149h1.845a.151.151,0,0,1,.148.149v1.952a.917.917,0,0,0,.917.917Z"/></g></svg>