<svg xmlns="http://www.w3.org/2000/svg" width="41.682" height="31.957" viewBox="0 0 41.682 31.957"><defs><style>.a{fill:#43b9be;}</style></defs><path class="a" d="M1040.458,143.271h-2.779V118.956a.7.7,0,0,0-.694-.695h-33.346a.7.7,0,0,0-.7.695v24.315h-2.779a.7.7,0,0,0-.694.7v5.557a.7.7,0,0,0,.694.7h5.558a.7.7,0,0,0,.7-.7v-2.084h10.42v2.084a.7.7,0,0,0,.7.7h5.558a.7.7,0,0,0,.694-.7v-2.084h10.421v2.084a.7.7,0,0,0,.695.7h5.557a.7.7,0,0,0,.695-.7v-5.557A.7.7,0,0,0,1040.458,143.271Zm-9.031-23.62h4.863v1.389h-4.863Zm-4.168,0h2.779v3.564l-1-.669a.7.7,0,0,0-.771,0l-1,.669Zm-6.252,0h4.863v1.389h-4.863Zm0,2.779h4.863v2.084a.694.694,0,0,0,1.08.578l1.7-1.134,1.7,1.132a.694.694,0,0,0,1.08-.576V122.43h4.863v8.336h-15.283Zm15.283,9.726v1.389h-4.863v-1.389Zm-6.252,0v3.564l-1-.669a.694.694,0,0,0-.771,0l-1,.669v-3.564Zm-9.031,0h4.863v1.389h-4.863Zm0,2.778h4.863v2.084a.694.694,0,0,0,1.08.578l1.7-1.133,1.7,1.132a.694.694,0,0,0,1.08-.577v-2.084h4.863v8.337h-15.283Zm-6.253-15.283h4.863v1.389h-4.863Zm-4.168,0h2.779v3.564l-1-.669a.7.7,0,0,0-.771,0l-1,.669Zm-6.252,0h4.863v1.389h-4.863Zm0,2.779h4.863v2.084a.694.694,0,0,0,1.08.578l1.7-1.134,1.7,1.132a.695.695,0,0,0,1.08-.576V122.43h4.863v8.336h-15.283Zm15.283,9.726v1.389h-4.863v-1.389Zm-6.252,0v3.564l-1-.669a.694.694,0,0,0-.771,0l-1,.669v-3.564Zm-9.031,0h4.863v1.389h-4.863Zm0,2.778h4.863v2.084a.694.694,0,0,0,1.08.578l1.7-1.133,1.7,1.132a.695.695,0,0,0,1.08-.577v-2.084h4.863v8.337h-15.283Zm.694,13.894h-4.168v-1.389h4.168Zm17.368,0h-4.168v-1.389h4.168Zm17.368,0h-4.169v-1.389h4.169Zm0-2.778h-38.9v-1.39h38.9Z" transform="translate(-999.471 -118.261)"/></svg>