<svg xmlns="http://www.w3.org/2000/svg" width="62.787" height="15.893" viewBox="0 0 62.787 15.893"><defs><style>.a{fill:#292728;}.b{fill:#005c7c;}.c{fill:#3dafa4;}</style></defs><g transform="translate(-511.663 -435.198)"><g transform="translate(524.652 435.198)"><path class="a" d="M690.989,440.249h1.152l.52-2.313L693,439.6h.854l1-1.857-.353,2.507h1.1l.65-4.383h-1.319l-1.17,2.192-.409-2.192H691.9Z" transform="translate(-690.989 -435.818)"/><path class="a" d="M762.378,440.249h1.156l1.385-2.93.277,2.93h1.18l-.638-4.383h-1.192Z" transform="translate(-757.207 -435.818)"/><path class="a" d="M881.858,440.249h1.156l1.385-2.93.277,2.93h1.18l-.638-4.383h-1.192Z" transform="translate(-868.033 -435.818)"/><path class="a" d="M824.563,440.249h1.12l.422-2.424,1.06,2.424h1.048l.795-4.383H827.9l-.409,2.345-1.012-2.345h-1.144Z" transform="translate(-814.888 -435.818)"/><path class="a" d="M944.815,436.519s-.1-.431-.482-.416a.477.477,0,0,0-.439.236.33.33,0,0,0-.053.223.394.394,0,0,0,.227.271c.26.132.562.157.824.285a1.3,1.3,0,0,1,.5.406,1.337,1.337,0,0,1-.186,1.669,1.827,1.827,0,0,1-.989.5,2.634,2.634,0,0,1-1.184-.061,6.336,6.336,0,0,1-.747-.28l.325-.988a1.75,1.75,0,0,0,.771.385,1.025,1.025,0,0,0,.9-.181.418.418,0,0,0-.167-.628,2.27,2.27,0,0,0-.5-.148,1.852,1.852,0,0,1-.487-.2,1.1,1.1,0,0,1-.4-1.128,1.665,1.665,0,0,1,1.986-1.234,1.389,1.389,0,0,1,1.168,1.137Z" transform="translate(-924.08 -435.198)"/></g><g transform="translate(549.327 441.007)"><path class="b" d="M1036.266,518.359a1.631,1.631,0,0,0-.266-.711,1.115,1.115,0,0,0-.966-.427,1.271,1.271,0,0,0-1.276.924,3.831,3.831,0,0,0-.182,1.3,3.522,3.522,0,0,0,.182,1.244,1.232,1.232,0,0,0,1.244.879,1.1,1.1,0,0,0,.92-.349,1.734,1.734,0,0,0,.33-.905h1.881a3.081,3.081,0,0,1-.608,1.59,2.958,2.958,0,0,1-2.569,1.209,3.006,3.006,0,0,1-2.5-1.008,4.073,4.073,0,0,1-.8-2.615,4.133,4.133,0,0,1,.886-2.821,3.087,3.087,0,0,1,2.446-1.008,3.687,3.687,0,0,1,2.171.595,2.765,2.765,0,0,1,1,2.1Z" transform="translate(-1031.65 -515.644)"/><path class="b" d="M1128.184,518.591a2.92,2.92,0,0,0,.736-.161.555.555,0,0,0,.4-.524.62.62,0,0,0-.3-.6,1.927,1.927,0,0,0-.895-.165,1.174,1.174,0,0,0-.937.323,1.332,1.332,0,0,0-.262.646h-1.778a2.7,2.7,0,0,1,.519-1.519,3.028,3.028,0,0,1,2.519-.931,4.492,4.492,0,0,1,2.064.459,1.761,1.761,0,0,1,.9,1.732v3.232q0,.336.013.815a1.024,1.024,0,0,0,.11.491.659.659,0,0,0,.272.213v.271h-2a2.028,2.028,0,0,1-.116-.4c-.021-.125-.039-.267-.052-.427a3.8,3.8,0,0,1-.884.7,2.672,2.672,0,0,1-1.352.343,2.333,2.333,0,0,1-1.59-.546,1.942,1.942,0,0,1-.627-1.548,2.006,2.006,0,0,1,1.009-1.881,4.509,4.509,0,0,1,1.628-.452Zm1.127.86a2.051,2.051,0,0,1-.357.178,3.013,3.013,0,0,1-.495.126l-.419.078a2.756,2.756,0,0,0-.847.252.841.841,0,0,0-.435.782.817.817,0,0,0,.266.682,1.01,1.01,0,0,0,.646.21,1.926,1.926,0,0,0,1.113-.349,1.479,1.479,0,0,0,.528-1.273Z" transform="translate(-1118.16 -515.644)"/><path class="b" d="M1229.521,515.666l.158.01v1.887q-.174-.019-.31-.026c-.09,0-.164-.006-.22-.006a1.528,1.528,0,0,0-1.493.724,2.813,2.813,0,0,0-.214,1.254v3.368h-1.855v-7.046h1.758v1.228a3.9,3.9,0,0,1,.743-.963,2.025,2.025,0,0,1,1.345-.433C1229.468,515.663,1229.5,515.664,1229.521,515.666Z" transform="translate(-1211.54 -515.644)"/><path class="b" d="M1287.142,515.726a2.865,2.865,0,0,1,1.218,1.042,3.466,3.466,0,0,1,.562,1.457,9.032,9.032,0,0,1,.061,1.4h-5.132a1.691,1.691,0,0,0,.737,1.487,1.871,1.871,0,0,0,1.016.265,1.43,1.43,0,0,0,1.4-.808h1.881a2.3,2.3,0,0,1-.683,1.273,3.425,3.425,0,0,1-2.651,1.028,3.841,3.841,0,0,1-2.482-.867,3.416,3.416,0,0,1-1.075-2.821,3.816,3.816,0,0,1,.971-2.808,3.4,3.4,0,0,1,2.52-.977A4.012,4.012,0,0,1,1287.142,515.726Zm-2.756,1.591a1.915,1.915,0,0,0-.491,1.091h3.174a1.537,1.537,0,0,0-.491-1.113,1.615,1.615,0,0,0-1.093-.38A1.461,1.461,0,0,0,1284.386,517.318Z" transform="translate(-1263.862 -515.396)"/></g><g transform="translate(524.629 439.236)"><path class="c" d="M796.222,517.984v4.247a2.232,2.232,0,0,0,.142.9.978.978,0,0,0,.984.536,1.286,1.286,0,0,0,1.286-.763,2.773,2.773,0,0,0,.18-1.092v-3.833h1.868v7.046h-.6l-1.19-1c-.017.022-.06.086-.129.194a1.3,1.3,0,0,1-.245.284,2.556,2.556,0,0,1-.835.53,2.84,2.84,0,0,1-.944.142,2.1,2.1,0,0,1-2.1-1.125,4.313,4.313,0,0,1-.3-1.829v-4.247Z" transform="translate(-786.826 -516.025)"/><path class="c" d="M894.822,517.984H896.8l-2.544,7.046h-1.943l-2.527-7.046h2.068l1.467,5.2Z" transform="translate(-875.364 -516.025)"/><path class="c" d="M995.94,533.779h0v5.9h-1.868v-4.034A1.868,1.868,0,0,1,995.94,533.779Z" transform="translate(-972.096 -530.676)"/><path class="c" d="M697.674,517.984h-1.959l-1.454,5.2-1.539-5.2h-2.049l2.589,7.356s0,0,0,.007l-.883,2.533h1.847l1.226-3.517h0Z" transform="translate(-690.673 -516.025)"/><path class="c" d="M995.938,491.909c0-.024,0-.037,0-.037a.933.933,0,0,0-1.866,0,1.364,1.364,0,0,0,.532.974.343.343,0,0,1,.058.462.088.088,0,0,0,0,.115,1.913,1.913,0,0,0,1.246-1.316A.928.928,0,0,0,995.938,491.909Z" transform="translate(-972.096 -490.939)"/></g><g transform="translate(511.663 439.671)"><path class="c" d="M523.084,502.534h0a5.709,5.709,0,0,0-11.41-.151h0l0,.231c0,.016,0,.031,0,.046,0,.092,0,.182.007.273,0,.027,0,.054.005.081,0,.065.009.129.015.194,0,.008,0,.015,0,.023h-.006l.038.262v.007l.009.056q.011.071.024.142l.005.028.013.07,0,.017c.007.034.014.068.022.1l0,.02c.01.045.021.091.032.136h-.01l.072.224c.012.042.026.084.039.125s.026.081.039.121l.017.048c.021.058.042.116.064.172l.011.028c.019.047.037.094.057.14l-.025,0,.171.315a5.667,5.667,0,0,0,2.373,2.442h0q.1.052.2.1l.042.02c.053.025.106.05.16.074l.064.028.143.059.077.03.136.049.085.03.091.029.07.022.062.019.03.009v0l.138.034.014,0,.037.009h.015l.3.074v-.009l.072.013h0l.032.006h0l.017,0h0l.016,0,.1.015.093.013h0l.1.012h.016l.064.007h.006l.045,0h.006l.181.013h0l.051,0h.03c.078,0,.156.005.235.005h.038c.084,0,.168,0,.251-.006l.057,0c.078,0,.155-.01.232-.018l.04,0c.083-.009.166-.019.248-.032h.009a5.715,5.715,0,0,0,4.651-4.208c.011-.04.019-.081.029-.121s.023-.094.033-.141c.015-.073.028-.146.04-.22,0-.016.006-.031.008-.047.014-.088.026-.177.036-.266v-.005q.03-.275.034-.557s0,0,0,0v0c0-.024,0-.047,0-.071,0-.008,0-.015,0-.023Zm-7.263,5.093c-.047-.015-.094-.031-.141-.047l-.079-.027-.13-.05-.127-.052-.1-.042c-.077-.034-.153-.07-.227-.108l-.008,0q-.125-.064-.247-.135l0,0a5.267,5.267,0,0,1-1.318-1.092l0,0q-.089-.1-.172-.209l-.013-.017c-.049-.063-.1-.128-.142-.193a5.171,5.171,0,0,1,2.716,1.9C515.826,507.574,515.823,507.6,515.821,507.627Zm.18-1.081-.012.043c-.022.085-.042.17-.06.255h0l0,.022a5.659,5.659,0,0,0-3.181-1.829c-.026-.05-.052-.1-.076-.151-.016-.033-.031-.068-.046-.1s-.043-.1-.064-.147l-.018-.045a5.194,5.194,0,0,1,3.511,1.775Q516.025,506.456,516,506.545Zm.331-.913-.04.089c-.017.037-.033.075-.049.112a5.694,5.694,0,0,0-3.878-1.754c-.011-.038-.022-.076-.032-.114l0-.018c-.018-.07-.034-.141-.049-.213l-.008-.036v-.011c.078,0,.155-.005.231-.005a5.188,5.188,0,0,1,3.916,1.777Q516.373,505.545,516.333,505.633Zm-3.832-2.455c-.1,0-.2,0-.307.009,0-.01,0-.02,0-.031q-.009-.1-.015-.2c0-.026,0-.052,0-.079s0-.051,0-.077a5.195,5.195,0,0,1,4.758,1.824q-.134.18-.251.368A5.689,5.689,0,0,0,512.5,503.178Zm4.066,4.032a3.875,3.875,0,0,1,1.362-2.771,3.769,3.769,0,0,1-.184,1.64C517.52,506.7,516.567,507.209,516.567,507.209Zm.4.591a4.112,4.112,0,0,0,.378-.447,1.732,1.732,0,0,1,.476-.352,2.543,2.543,0,0,1,1.371-.017,3.569,3.569,0,0,0,.632.041S519.111,508.045,516.966,507.8Zm2.087-4.211a4.079,4.079,0,0,1,.716-.382s.014.155,0,.844c-.018.875-.763,1.273-1.378,1.743C518.366,505.058,518.368,504.057,519.053,503.59Zm2.26,2.347a1.058,1.058,0,0,1-.61.458,4.082,4.082,0,0,1-1.9-.129,2.955,2.955,0,0,1,1.728-.951c.364-.023.738.006,1.1.006A1.836,1.836,0,0,1,521.313,505.937Zm-.867-2.69a.732.732,0,0,1,.591-.378,8.682,8.682,0,0,1,.869,0l-1.561,1.35A1.891,1.891,0,0,1,520.446,503.247Zm1.572,1.373c-.348.272-.846.135-1.247.083l1.61-1.273C522.35,503.835,522.369,504.346,522.018,504.62Zm-.5-2.3a5.674,5.674,0,0,0-4.012,1.648c-.087.086-.17.175-.251.266a5.684,5.684,0,0,0-5.072-1.937,5.2,5.2,0,0,1,10.392.122A5.719,5.719,0,0,0,521.516,502.318Z" transform="translate(-511.663 -496.949)"/><path class="c" d="M567.393,506.008l-1.419,3.954h1.677s-.035,2.591,0,2.556,1.411-3.884,1.411-3.884h-1.656Z" transform="translate(-562.04 -505.352)"/></g></g></svg>