<svg xmlns="http://www.w3.org/2000/svg" width="46.875" height="46.875" viewBox="0 0 46.875 46.875"><defs><style>.a{opacity:0.504;}.b{fill:#ccc;}</style></defs><g class="a" transform="translate(-573.08 -63.711)"><path class="b" d="M619.955,98.867V76.992a3.911,3.911,0,0,0-3.906-3.906h-8.594V63.711h-1.562V81.68a.781.781,0,0,0,.781.781h2.648l-12.8,7.683-12.8-7.683h2.648a.782.782,0,0,0,.782-.781V63.711H585.58v9.375h-8.594a3.911,3.911,0,0,0-3.906,3.906V98.867a3.911,3.911,0,0,0,3.906,3.906h12.8l-1.563,3.125H573.861a.782.782,0,0,0-.781.782c0,3.906,4.116,3.906,5.469,3.906h35.937c1.353,0,5.469,0,5.469-3.906a.782.782,0,0,0-.781-.782H604.813l-1.563-3.125h12.8A3.911,3.911,0,0,0,619.955,98.867ZM585.58,80.9h-4.687a.782.782,0,0,0-.4,1.451l15.625,9.375a.781.781,0,0,0,.8,0l15.625-9.375a.781.781,0,0,0-.4-1.451h-4.688V77.773h7.813v18.75h-37.5V77.773h7.812ZM618.3,107.461c-.273.962-1.216,1.562-3.812,1.562H578.549c-2.6,0-3.539-.6-3.812-1.562ZM589.969,105.9l1.563-3.125H601.5l1.563,3.125Zm-12.983-4.687a2.344,2.344,0,0,1-2.343-2.344V76.992a2.344,2.344,0,0,1,2.343-2.344h8.594v1.563h-8.594a.781.781,0,0,0-.781.781V97.305a.781.781,0,0,0,.781.781h39.063a.781.781,0,0,0,.781-.781V76.992a.781.781,0,0,0-.781-.781h-8.594V74.648h8.594a2.345,2.345,0,0,1,2.344,2.344V98.867a2.345,2.345,0,0,1-2.344,2.344Z"/><path class="b" d="M599.926,75.465a5.417,5.417,0,0,0,2.06-3.942c0-5.165-2.974-6.25-5.468-6.25s-5.469,1.085-5.469,6.25a5.42,5.42,0,0,0,2.06,3.945,4.128,4.128,0,0,0-3.623,4.1v2.891h1.563V79.57a2.578,2.578,0,0,1,2.578-2.578h5.781a2.578,2.578,0,0,1,2.578,2.578v2.891h1.563V79.57A4.129,4.129,0,0,0,599.926,75.465ZM592.652,70.7c.212-2.618,1.444-3.86,3.866-3.86a3.414,3.414,0,0,1,3.786,3.236l-2.6-1.563a.781.781,0,0,0-1.072.268.8.8,0,0,0-.071.155C596.163,70.118,594.028,70.566,592.652,70.7Zm3.866,4.734a4.924,4.924,0,0,1-3.8-3.166v0c1.337-.111,3.75-.515,4.875-2l2.792,1.675A4.835,4.835,0,0,1,596.518,75.43Z"/><path class="b" d="M612.143,91.836V90.273H610.58v1.563h-1.562V93.4h1.563v1.563h1.563V93.4h1.563V91.836Z"/></g></svg>