<svg xmlns="http://www.w3.org/2000/svg" width="34.996" height="35" viewBox="0 0 34.996 35"><defs><style>.a{fill:#43b9be;}</style></defs><g transform="translate(-949.506 -116.74)"><path class="a" d="M983.245,128.583l-3.823-2.549v-1.495a1.663,1.663,0,0,0,1.025-2.154h.1a1.7,1.7,0,0,0,1.693-1.694v-2.258a1.7,1.7,0,0,0-1.693-1.693H969.26a1.7,1.7,0,0,0-1.693,1.693v2.258a1.7,1.7,0,0,0,1.693,1.694h.1a1.663,1.663,0,0,0,1.025,2.154v1.495l-3.823,2.55a2.815,2.815,0,0,0-1.257,2.348v1.83a6.767,6.767,0,0,0-11.983,6.113,6.77,6.77,0,1,0,8.6,9.829,6.751,6.751,0,0,0,10.676.778h9.078a2.826,2.826,0,0,0,2.822-2.823V130.932A2.818,2.818,0,0,0,983.245,128.583Zm-4.388-5.069h-7.9a.564.564,0,1,1,0-1.129h7.9a.564.564,0,1,1,0,1.129Zm-9.6-2.258a.565.565,0,0,1-.564-.565v-2.258a.565.565,0,0,1,.564-.564h.565v2.258h1.129v-2.258h1.129v2.258h1.129v-2.258h1.129v2.258h1.129v-2.258H976.6v2.258h1.129v-2.258h1.129v2.258h1.129v-2.258h.565a.565.565,0,0,1,.564.564v2.258a.565.565,0,0,1-.564.565H969.26ZM966.438,136.5v-5.081h3.387v7.169a6.643,6.643,0,0,0-3.651-.247A6.754,6.754,0,0,0,966.438,136.5Zm-6.774-5.645a5.652,5.652,0,0,1,5.616,5.08H954.047A5.652,5.652,0,0,1,959.664,130.853Zm-7.379,10.121a5.652,5.652,0,0,1,7.564-.379l-7.943,7.943A5.653,5.653,0,0,1,952.285,140.974Zm7.983,7.983a5.653,5.653,0,0,1-7.564.379l7.943-7.943A5.653,5.653,0,0,1,960.268,148.957Zm1.659-7.729a6.774,6.774,0,0,0-7.55-2.762,5.537,5.537,0,0,1-.327-1.4h11.228a5.549,5.549,0,0,1-.458,1.718A6.812,6.812,0,0,0,961.927,141.228Zm.624,6.29a6.81,6.81,0,0,0,0-5.105,5.619,5.619,0,0,1,8.586-1.816l-7.93,7.93A5.622,5.622,0,0,1,962.551,147.518Zm5.016,3.093a5.634,5.634,0,0,1-3.562-1.285l7.93-7.931a5.641,5.641,0,0,1-4.368,9.216Zm5.645-9.383a6.819,6.819,0,0,0-2.258-2.121v-8.819h-4.376a1.675,1.675,0,0,1,.614-.765l4.326-2.885v-2h6.775v2l4.326,2.885a1.677,1.677,0,0,1,.614.764H973.212Zm10.161,5.431a1.7,1.7,0,0,1-1.693,1.694h-8.256a6.717,6.717,0,0,0,.815-2.259h9.134Zm0-1.694h-9.032V131.417h9.032Z"/><path class="a" d="M977.164,139.32h3.387v-1.693h1.693V134.24h-1.693v-1.694h-3.387v1.694H975.47v3.387h1.694ZM976.6,136.5v-1.129h1.694v-1.694h1.129v1.694h1.693V136.5h-1.693v1.693h-1.129V136.5Z"/><rect class="a" width="6.774" height="1.129" transform="translate(975.47 140.449)"/><rect class="a" width="1.129" height="1.129" transform="translate(975.47 142.707)"/><rect class="a" width="4.516" height="1.129" transform="translate(977.728 142.707)"/><path class="a" d="M951.76,144.965h1.129a3.391,3.391,0,0,1,3.388-3.387v-1.129A4.521,4.521,0,0,0,951.76,144.965Z"/></g></svg>