<svg xmlns="http://www.w3.org/2000/svg" width="31.391" height="35" viewBox="0 0 31.391 35"><defs><style>.a{fill:#43b9be;}</style></defs><g transform="translate(-1278.828 -164.662)"><path class="a" d="M1287.262,192.33a12.381,12.381,0,0,1,6.468-22.5v1.1a.878.878,0,0,0,1.372.724l3.939-2.7a.877.877,0,0,0,0-1.447l-3.94-2.7a.869.869,0,0,0-.494-.154.879.879,0,0,0-.878.878v1.117a15.5,15.5,0,0,0-7.661,2.388.513.513,0,0,0,.549.867,14.474,14.474,0,0,1,7.111-2.228V168.8a13.408,13.408,0,0,0-7.057,24.367.559.559,0,0,1-.635.92,14.534,14.534,0,0,1-1.017-23.007.513.513,0,1,0-.662-.785,15.562,15.562,0,0,0,1.089,24.632,1.585,1.585,0,0,0,1.815-2.6Zm7.495-26.506,3.524,2.411-3.524,2.41Z"/><path class="a" d="M1303.595,169.4a1.591,1.591,0,0,0-2.49,1.344,1.572,1.572,0,0,0,.675,1.255,12.381,12.381,0,0,1-6.468,22.5v-1.1a.878.878,0,0,0-1.372-.724L1290,195.366a.876.876,0,0,0,0,1.447c4.3,2.944,4.064,2.849,4.433,2.849a.879.879,0,0,0,.878-.878v-1.117a15.552,15.552,0,0,0,8.283-28.272Zm-9.31,29.1-3.524-2.41,3.524-2.411Zm1.028-1.86v-1.118a13.409,13.409,0,0,0,7.058-24.368.554.554,0,0,1-.24-.443.564.564,0,0,1,.874-.476,14.526,14.526,0,0,1-7.692,26.4Z"/><path class="a" d="M1292.076,182.952l-1.371-1.827a2.224,2.224,0,1,0-3.559,2.669l2.509,3.345a2.643,2.643,0,0,0,3.8.449l8.081-6.7a2.225,2.225,0,1,0-2.84-3.425Zm8.963-4.543a1.2,1.2,0,0,1-.158,1.687l-8.081,6.7a1.618,1.618,0,0,1-2.324-.274l-2.509-3.345a1.2,1.2,0,0,1,1.917-1.437l1.694,2.258a.513.513,0,0,0,.738.088l7.036-5.835A1.2,1.2,0,0,1,1301.039,178.409Z"/></g></svg>