<svg xmlns="http://www.w3.org/2000/svg" width="36.058" height="32.544" viewBox="0 0 36.058 32.544"><defs><style>.a{fill:#43b9be;}</style></defs><g transform="translate(-1057.801 -269.961)"><path class="a" d="M1061.323,288.42a.7.7,0,1,0,.7.7A.7.7,0,0,0,1061.323,288.42Z"/><path class="a" d="M1090.171,290.862l-6.64,2.282a2.755,2.755,0,0,0,.046-.5,2.82,2.82,0,0,0-2.817-2.817H1076.2a.7.7,0,0,1-.345-.091l-3.721-2.092a4.933,4.933,0,0,0-2.418-.634h-4.992a2.116,2.116,0,0,0-1.992-1.408h-4.225a.7.7,0,0,0-.7.7v12.676a.705.705,0,0,0,.7.7h4.225a2.118,2.118,0,0,0,1.972-1.356,6.418,6.418,0,0,1,2.3.683l3.683,2.21a8.976,8.976,0,0,0,8.335.475l13.145-5.788a2.715,2.715,0,0,0-1.994-5.05Zm-26.736,6.716a.7.7,0,0,1-.7.7h-3.521V287.011h3.521a.705.705,0,0,1,.7.7Zm28.195-2.968-.023.009-13.167,5.8a7.568,7.568,0,0,1-7.03-.4l-3.683-2.21a7.779,7.779,0,0,0-2.883-.877v-8.51h4.871a3.528,3.528,0,0,1,1.727.452l3.721,2.093a2.112,2.112,0,0,0,1.036.272h4.561a1.408,1.408,0,1,1,0,2.817H1073.6a.7.7,0,0,0,0,1.408h7.159a2.81,2.81,0,0,0,1.32-.33l8.564-2.943a1.307,1.307,0,1,1,.986,2.421Z"/><path class="a" d="M1078.313,287.043a.705.705,0,0,0,.923,0c5.746-4.98,9.3-7.5,9.3-11.416a5.393,5.393,0,0,0-5.275-5.666,5.04,5.04,0,0,1-9.142,0,5.2,5.2,0,0,0-5.024,3.894.7.7,0,0,0,1.351.4,3.821,3.821,0,0,1,3.673-2.882c2.009,0,3.419,1.784,3.892,3.445a.7.7,0,0,0,1.357,0c.01-.035.988-3.445,3.893-3.445a3.986,3.986,0,0,1,3.866,4.257c0,3.133-3.062,5.391-8.353,9.954-3.224-2.769-5.785-4.718-7.241-6.624a.7.7,0,0,0-1.12.854C1072.054,281.96,1074.824,284.019,1078.313,287.043Z"/><path class="a" d="M1069.7,276.165a.7.7,0,1,0,.7.7A.705.705,0,0,0,1069.7,276.165Z"/></g></svg>