<svg xmlns="http://www.w3.org/2000/svg" width="29.6" height="30" viewBox="0 0 29.6 30"><defs><style>.a{fill:#ee2e24;}</style></defs><g transform="translate(-241.2 -241)"><path class="a" d="M266.533,262.076h-1.978v-1.962a.557.557,0,0,0-.544-.57h-1.782a.584.584,0,0,0-.586.57v1.962h-2.009a.584.584,0,0,0-.586.57v1.772a.584.584,0,0,0,.586.569h2.009v2.026a.584.584,0,0,0,.586.569H264a.557.557,0,0,0,.554-.56v-2.035h1.978a.557.557,0,0,0,.554-.56v-1.781a.557.557,0,0,0-.544-.57ZM266.2,264.1h-1.946a.583.583,0,0,0-.585.57V266.7h-1.14v-2.025a.557.557,0,0,0-.544-.57h-2.051v-1.139h2.042a.558.558,0,0,0,.554-.56V260.43h1.14v1.962a.583.583,0,0,0,.585.57H266.2Z"/><path class="a" d="M263.215,255.82a7.59,7.59,0,0,0-6.228,3.257c-.119-.036-.232-.072-.339-.107l-.43-1.219a4.946,4.946,0,0,0,1.793-3.3,3.477,3.477,0,0,0,2.043-2.684,1.5,1.5,0,0,0-.646-1.744,1.1,1.1,0,0,0-.5-.123c.029-.218.06-.485.091-.814.074-.767.121-1.542.121-1.739,0-.139,0-.283.005-.435a5.035,5.035,0,0,0-1.284-4.072h0a6.383,6.383,0,0,0-9.173.22l-.1.117a5.471,5.471,0,0,0-1.526,4.413,17.082,17.082,0,0,0,.508,2.34,1.1,1.1,0,0,0-.425.131,1.488,1.488,0,0,0-.617,1.706,3.474,3.474,0,0,0,2.048,2.685,5.079,5.079,0,0,0,1.778,3.275l-.568,1.166c-.4.127-.861.253-1.332.385-3.046.854-7.225,2.023-7.225,5.82v3.971c0,.938.5,1.935,1.4,1.935h20.651a7.59,7.59,0,0,0-.039-15.179Zm-14-12.056.107-.12a5.368,5.368,0,0,1,3.875-1.756,5.423,5.423,0,0,1,4,1.571,4.243,4.243,0,0,1,1.028,3.432c0,.156-.005.3-.005.452,0,.094-.01.289-.026.537a5.082,5.082,0,0,0-.926-2.016l-.033-.065a.444.444,0,0,0-.6-.2.45.45,0,0,0-.2.213c-.714,1.571-1.421,1.507-2.592,1.4-.136-.012-.275-.025-.415-.034a.6.6,0,0,0-.656.341c-.144.336.056.7.424,1.128-1.17-.14-1.466-.995-1.733-1.767-.186-.536-.4-1.143-1.007-1.143a2.064,2.064,0,0,0-1.567.676,3.917,3.917,0,0,0-.853,1.863,5.619,5.619,0,0,1-.126-.716A4.6,4.6,0,0,1,249.219,243.764Zm.174,10.275a.446.446,0,0,0-.443-.425h-.019c-.649,0-1.334-1.059-1.57-2.055-.09-.382.028-.643.177-.723.167-.09.346.069.415.142a.443.443,0,0,0,.761-.253.43.43,0,0,0,.057-.25c-.047-.68,0-2.625.775-3.455a1.185,1.185,0,0,1,.866-.392,3.135,3.135,0,0,1,.222.546,2.956,2.956,0,0,0,3.648,2.327.442.442,0,0,0,.237-.764,8.034,8.034,0,0,1-.611-.627,2.706,2.706,0,0,0,2.983-1.257,12.916,12.916,0,0,1,.914,3.932.443.443,0,0,0,.441.4h.039a.443.443,0,0,0,.369-.269c.088-.086.221-.18.349-.114.162.084.279.369.189.753-.236,1-.921,2.055-1.57,2.055h-.011a.442.442,0,0,0-.451.43,4.074,4.074,0,0,1-1.7,3.153l-.007.005a4.1,4.1,0,0,1-2.176.546,4.006,4.006,0,0,1-2.172-.559,4.189,4.189,0,0,1-1.712-3.15Zm1.078,5.409.614-1.263a5.122,5.122,0,0,0,2.192.449,5.235,5.235,0,0,0,2.163-.426l.445,1.261a.445.445,0,0,0,.274.273c.111.037.228.076.351.115a7.507,7.507,0,0,0-.535,1.275,3.547,3.547,0,0,1-5.264.115,3.325,3.325,0,0,1-.821-1.471c.109-.034.216-.067.32-.1a.444.444,0,0,0,.261-.227Zm-8.385,9.617v-3.971c0-3.126,3.651-4.146,6.577-4.967l.371-.1a4.441,4.441,0,0,0,6.637,2.539,7.592,7.592,0,0,0,3.989,7.551H242.6C242.321,270.114,242.086,269.55,242.086,269.065Zm21.129,1.049a6.7,6.7,0,1,1,6.7-6.7A6.7,6.7,0,0,1,263.215,270.114Z"/></g></svg>