<svg id="Layer_1" data-name="Layer 1" xmlns="http://www.w3.org/2000/svg" viewBox="0 0 45.21 35"><defs><style>.cls-1{fill:#43b9be;}</style></defs><path class="cls-1" d="M0,16.77V27a3.65,3.65,0,0,0,3.65,3.64H5.89a5.1,5.1,0,0,0,10.09,0h14.7a5.1,5.1,0,0,0,10.09,0h3.71a.73.73,0,0,0,.73-.72V3.65a.73.73,0,0,0-.73-.73H18.23a.73.73,0,0,0-.73.73V5.83H16V4.38a.73.73,0,0,0-.73-.73V2.92a2.92,2.92,0,1,0-5.83,0v.73a.73.73,0,0,0-.73.73V5.83H8a.73.73,0,0,0-.59.31L.14,16.35A.71.71,0,0,0,0,16.77ZM8.4,7.29h4.72V16h-11Zm5.45-3.64H10.94V2.92a1.46,1.46,0,1,1,2.91,0Zm.73,2.18H10.21V5.1h4.37ZM17.5,7.29V29.17H16a5.1,5.1,0,0,0-10.09,0H5.83V27a2.91,2.91,0,0,0-2.91-2.92H1.46V17.5H13.85a.73.73,0,0,0,.73-.73V7.29ZM43.75,29.17h-3a5.1,5.1,0,0,0-10.09,0H29.17V24.06a.73.73,0,0,0-.73-.73H21.15a.73.73,0,0,0-.73.73v5.11H19V4.38H43.75ZM21.87,24.79h5.84v4.38H21.87ZM32.08,29.9a3.65,3.65,0,1,1,3.65,3.64A3.66,3.66,0,0,1,32.08,29.9Zm-24.79,0a3.65,3.65,0,1,1,3.65,3.64A3.66,3.66,0,0,1,7.29,29.9ZM1.46,27V25.52H2.92A1.45,1.45,0,0,1,4.37,27v2.19H3.65A2.19,2.19,0,0,1,1.46,27Z"/><path class="cls-1" d="M33.54,29.9a2.19,2.19,0,1,0,2.19-2.19A2.19,2.19,0,0,0,33.54,29.9Zm1.46,0a.73.73,0,1,1,.73.72A.73.73,0,0,1,35,29.9Z"/><path class="cls-1" d="M8.75,29.9a2.19,2.19,0,1,0,2.19-2.19A2.19,2.19,0,0,0,8.75,29.9Zm1.46,0a.73.73,0,1,1,.73.72A.73.73,0,0,1,10.21,29.9Z"/><path class="cls-1" d="M14.58,20.42H11.67V19h2.91Z"/><path class="cls-1" d="M37.19,17.5V13.13a.73.73,0,0,0-.73-.73H34.27V10.21a.73.73,0,0,0-.73-.73H29.17a.73.73,0,0,0-.73.73V12.4H26.25a.73.73,0,0,0-.73.73V17.5a.73.73,0,0,0,.73.73h2.19v2.19a.73.73,0,0,0,.73.73h4.37a.73.73,0,0,0,.73-.73V18.23h2.19A.73.73,0,0,0,37.19,17.5Zm-1.46-.73H33.54a.73.73,0,0,0-.73.73v2.19H29.9V17.5a.73.73,0,0,0-.73-.73H27V13.85h2.19a.73.73,0,0,0,.73-.72V10.94h2.91v2.19a.73.73,0,0,0,.73.72h2.19Z"/></svg>