<svg xmlns="http://www.w3.org/2000/svg" width="35" height="35" viewBox="0 0 35 35"><defs><style>.a{fill:#43b9be;}</style></defs><g transform="translate(-949.504 -164.662)"><path class="a" d="M981.086,167.67h-3.258v-.957a2.051,2.051,0,1,0-4.1,0v.957H962.242v-.957a2.051,2.051,0,1,0-4.1,0v.982a.684.684,0,0,0-.182-.025h-2.724a3.422,3.422,0,0,0-3.418,3.418v11.644a.684.684,0,0,0,1.368,0v-8.021h24.644a.684.684,0,0,0,0-1.367H953.184v-2.256a2.052,2.052,0,0,1,2.05-2.051h2.724a.684.684,0,0,0,.182-.025v.88a2.051,2.051,0,0,0,4.1,0v-.855h11.484v.855a2.051,2.051,0,0,0,4.1,0v-.855h3.258a2.053,2.053,0,0,1,2.051,2.051v25.976a1.231,1.231,0,0,1-2.462,0V195.3a.683.683,0,0,0-.683-.684H972.04a.684.684,0,1,0,0,1.367h7.268v1.085a2.585,2.585,0,0,0,.311,1.231H952.1a1.232,1.232,0,0,1-1.231-1.23v-1.086h15.3a.684.684,0,1,0,0-1.367h-6.83a5.606,5.606,0,1,0-7.3,0h-1.849a.684.684,0,0,0-.684.684v1.769a2.6,2.6,0,0,0,2.6,2.6h29.8a2.6,2.6,0,0,0,2.6-2.6V171.088A3.421,3.421,0,0,0,981.086,167.67Zm-20.211,2.222a.684.684,0,0,1-1.368,0v-3.179a.684.684,0,1,1,1.368,0Zm15.586,0a.684.684,0,0,1-1.368,0v-3.179a.684.684,0,1,1,1.368,0Zm-25.01,20.473a4.238,4.238,0,1,1,4.238,4.239A4.243,4.243,0,0,1,951.451,190.365Z"/><path class="a" d="M981.518,173.544a.684.684,0,1,0,.2.483A.692.692,0,0,0,981.518,173.544Z"/><path class="a" d="M969.92,194.812a.684.684,0,1,0,.2.483A.689.689,0,0,0,969.92,194.812Z"/><path class="a" d="M964.97,185.443a2.6,2.6,0,1,0,2.6,2.6A2.6,2.6,0,0,0,964.97,185.443Zm0,3.829a1.23,1.23,0,1,1,1.231-1.231A1.232,1.232,0,0,1,964.97,189.272Z"/><path class="a" d="M971.35,185.443a2.6,2.6,0,1,0,2.6,2.6A2.6,2.6,0,0,0,971.35,185.443Zm0,3.829a1.23,1.23,0,1,1,1.231-1.231A1.232,1.232,0,0,1,971.35,189.272Z"/><path class="a" d="M977.731,185.443a2.6,2.6,0,1,0,2.6,2.6A2.6,2.6,0,0,0,977.731,185.443Zm0,3.829a1.23,1.23,0,1,1,1.23-1.231A1.232,1.232,0,0,1,977.731,189.272Z"/><path class="a" d="M958.59,178.334a2.6,2.6,0,1,0,2.6,2.6A2.6,2.6,0,0,0,958.59,178.334Zm0,3.828a1.23,1.23,0,1,1,1.23-1.23A1.232,1.232,0,0,1,958.59,182.162Z"/><path class="a" d="M971.35,178.334a2.6,2.6,0,1,0,2.6,2.6A2.6,2.6,0,0,0,971.35,178.334Zm0,3.828a1.23,1.23,0,1,1,1.231-1.23A1.232,1.232,0,0,1,971.35,182.162Z"/><path class="a" d="M977.731,178.334a2.6,2.6,0,1,0,2.6,2.6A2.6,2.6,0,0,0,977.731,178.334Zm0,3.828a1.23,1.23,0,1,1,1.23-1.23A1.232,1.232,0,0,1,977.731,182.162Z"/><path class="a" d="M964.97,178.334a2.6,2.6,0,1,0,2.6,2.6A2.6,2.6,0,0,0,964.97,178.334Zm0,3.828a1.23,1.23,0,1,1,1.231-1.23A1.232,1.232,0,0,1,964.97,182.162Z"/><path class="a" d="M958.125,188.7a.684.684,0,0,0-.967,0l-2.226,2.227-.761-.761a.684.684,0,1,0-.967.967l1.244,1.244a.684.684,0,0,0,.967,0l2.71-2.71A.684.684,0,0,0,958.125,188.7Z"/></g></svg>