<svg id="Layer_1" data-name="Layer 1" xmlns="http://www.w3.org/2000/svg" viewBox="0 0 35 35"><defs><style>.cls-1{fill:#43b9be;}</style></defs><path class="cls-1" d="M17.5,21a1.17,1.17,0,1,1,1.17-1.17h1.16a2.33,2.33,0,0,0-1.75-2.25v-.66H16.92v.66a2.33,2.33,0,0,0,.58,4.59,1.17,1.17,0,1,1-1.17,1.16H15.17a2.32,2.32,0,0,0,1.75,2.25v.67h1.16v-.67A2.33,2.33,0,0,0,17.5,21Z"/><path class="cls-1" d="M17.5,14a7.59,7.59,0,1,0,7.58,7.58A7.58,7.58,0,0,0,17.5,14Zm0,14a6.42,6.42,0,1,1,6.42-6.42A6.42,6.42,0,0,1,17.5,28Z"/><path class="cls-1" d="M34.42,12.83a.58.58,0,0,0,.58-.58V9.9a1.06,1.06,0,0,0,0-.19s0,0,0,0a.39.39,0,0,0-.11-.17l-.06,0-.08-.06L17.78.07a.61.61,0,0,0-.56,0L.3,9.41l-.08.06-.06,0a.39.39,0,0,0-.11.17v0A1.06,1.06,0,0,0,0,9.9v2.35a.58.58,0,0,0,.58.58H2.33v17.5H.58a.58.58,0,0,0-.58.59v3.5A.58.58,0,0,0,.58,35H34.42a.58.58,0,0,0,.58-.58v-3.5a.58.58,0,0,0-.58-.59H32.67V12.83ZM17.5,1.25,32.15,9.33H2.85ZM33.83,31.5v2.33H1.17V31.5ZM3.5,30.33V12.83H5.83v17.5Zm3.5,0V12.83H28v17.5Zm22.17,0V12.83H31.5v17.5Zm-28-18.66V10.5H33.83v1.17Z"/></svg>