<svg id="Layer_1" data-name="Layer 1" xmlns="http://www.w3.org/2000/svg" viewBox="0 0 32.39 35"><defs><style>.cls-1{fill:#43b9be;}</style></defs><path class="cls-1" d="M21,24a6,6,0,0,0-.14-1.23A3.24,3.24,0,0,0,22.42,20c0-2.18-2.48-4.59-2.76-4.85a.68.68,0,0,0-.94,0,12.29,12.29,0,0,0-1.38,1.57C16.57,15.8,16,15.24,16,15.21a.68.68,0,0,0-.94,0c-.21.19-5,4.8-5,8.75a5.5,5.5,0,0,0,11,0Zm-1.79-7.38c.76.84,1.86,2.28,1.86,3.38a1.86,1.86,0,0,1-3.71,0C17.34,18.86,18.43,17.42,19.19,16.58ZM15.48,28.09A4.13,4.13,0,0,1,11.35,24c0-2.71,3-6.06,4.13-7.29.28.3.67.72,1.09,1.22A4.52,4.52,0,0,0,16,20a3.22,3.22,0,0,0,3.22,3.22l.34,0a4.61,4.61,0,0,1,.08.8,4.13,4.13,0,0,1-4.13,4.13Z"/><path class="cls-1" d="M30.45,16.63a.68.68,0,0,0,.68-.68V13.7h.58a.67.67,0,0,0,.68-.68V9.93a.67.67,0,0,0-.68-.68H30L16.58.12a.68.68,0,0,0-.77,0L2.42,9.25H.68A.68.68,0,0,0,0,9.93V13a.68.68,0,0,0,.68.68h.58V16a.69.69,0,0,0,.69.68h1v11H2a.68.68,0,0,0-.69.68v2.24H.68a.69.69,0,0,0-.68.69v3.09A.69.69,0,0,0,.68,35h31a.68.68,0,0,0,.68-.68V31.23a.68.68,0,0,0-.68-.69h-.58V28.3a.67.67,0,0,0-.68-.68h-1v-11Zm-.69-1.37H24.4V13.7h5.36ZM16.2,1.51,27.55,9.25H4.85ZM1.37,10.61H31v1.73H1.37ZM2.63,13.7H8v1.56H2.63Zm1.66,2.93h2v11h-2ZM2.63,29H8v1.56H2.63ZM31,33.63H1.37V31.91H13.11a.69.69,0,0,0,0-1.37H9.36V28.3a.68.68,0,0,0-.68-.68h-1v-11h1A.69.69,0,0,0,9.36,16V13.7H23V16a.69.69,0,0,0,.69.68h1v11h-1a.68.68,0,0,0-.69.68v2.24H19.29a.69.69,0,1,0,0,1.37H31v1.72Zm-1.27-3.09H24.4V29h5.36ZM28.1,27.62h-2v-11h2Z"/><path class="cls-1" d="M17.58,5.32H16.9V4.64a.69.69,0,1,0-1.37,0v.68h-.72a.69.69,0,0,0,0,1.37h.72v.72a.69.69,0,0,0,1.37,0V6.69h.68a.69.69,0,1,0,0-1.37Z"/><path class="cls-1" d="M16.84,31a.7.7,0,0,0-.68-.42.69.69,0,0,0-.61.5.69.69,0,0,0,.26.74.68.68,0,0,0,1-.82Z"/></svg>