<svg id="Layer_1" data-name="Layer 1" xmlns="http://www.w3.org/2000/svg" viewBox="0 0 51.22 35"><defs><style>.cls-1{fill:#43b9be;}</style></defs><g id="outline"><path class="cls-1" d="M47,33.29a4.15,4.15,0,0,0,.85-2.56.85.85,0,0,0-.85-.85H43.62L44,25.61h3.58a2.78,2.78,0,0,0,2.78-2.77V16.43a2.78,2.78,0,0,0-2.78-2.77h-2.5L45.24,12a.85.85,0,0,0-.77-.93H35.85v-.43a3,3,0,1,0-6,0v.43H29a.85.85,0,0,0-.85.85v5.12a.86.86,0,0,0,.85.86h2.25l.16,1.7H16.22l-.18,0,.09-.87h.09a.85.85,0,0,0,.85-.85V14.51a.85.85,0,0,0-.85-.85,6.85,6.85,0,0,0-6-6.78V4.68l3.95-3.16L13.12.19,8.86,3.6a.83.83,0,0,0-.32.67V6.88a6.85,6.85,0,0,0-6,6.78.85.85,0,0,0-.85.85v3.42a.85.85,0,0,0,.85.85h.09L4.17,33.29H0V35H51.22V33.29ZM44.63,18.78h.61v1.71h-.77Zm-.31,3.42H46.1a.86.86,0,0,0,.85-.86V17.93a.86.86,0,0,0-.85-.86H44.78l.16-1.7h2.65a1.06,1.06,0,0,1,1.07,1.06v6.41a1.07,1.07,0,0,1-1.07,1.06H44.16Zm-.86-9.4L41.9,29.88h-6A.86.86,0,0,0,35,29H34l-.07-.85h2.57a2.77,2.77,0,0,0,2.78-2.77v-3a2.79,2.79,0,0,0-2.78-2.78H33.14L33,17.74a.86.86,0,0,0,.32-.67V12.8ZM34.11,23.05c0-.28,0-.57,0-.85v-.86h2.34a1.07,1.07,0,0,1,1.07,1.07v3a1.06,1.06,0,0,1-1.07,1.06H33.12a8.59,8.59,0,0,0,.67-1.7h2.06V23.05ZM31.59,10.67a1.28,1.28,0,0,1,2.56,0v.43H31.59Zm-1.71,5.55V12.8h1.71v3.42ZM17.07,21.34H32.44v.86A7.68,7.68,0,0,1,28.29,29H21.23a7.63,7.63,0,0,1-4.16-6.82ZM32.28,29H31.21a8,8,0,0,0,.79-.85h.2ZM16.84,27.24A9,9,0,0,0,18.31,29H15.06l.51-4.88A9.07,9.07,0,0,0,16.84,27.24ZM10.24,8.61a5.12,5.12,0,0,1,4.27,5.05H10.24Zm-1.7,0v5.05H4.27A5.12,5.12,0,0,1,8.54,8.61ZM3.41,15.37h12v1.7h-12ZM5.89,33.29,4.36,18.78H14.42L12.89,33.29Zm12,0a2.55,2.55,0,0,1-2.56-2.56H34.15a2.56,2.56,0,0,1-2.56,2.56Zm17.07,0a4.3,4.3,0,0,0,.77-1.7H46a2.56,2.56,0,0,1-2.41,1.7Z"/><path class="cls-1" d="M9.39,20.49A3.42,3.42,0,1,0,12.8,23.9,3.41,3.41,0,0,0,9.39,20.49Zm0,5.12A1.71,1.71,0,1,1,11.1,23.9,1.71,1.71,0,0,1,9.39,25.61Z"/><path class="cls-1" d="M24.33,17.07a.86.86,0,1,0,1.71,0,1.17,1.17,0,0,1,.28-.8,2.88,2.88,0,0,0,.57-1.76,2.84,2.84,0,0,0-.57-1.75,3.37,3.37,0,0,1-.19-.32.86.86,0,0,0-1.55.73,5.09,5.09,0,0,0,.32.54,1.17,1.17,0,0,1,.28.8,1.19,1.19,0,0,1-.28.81A2.84,2.84,0,0,0,24.33,17.07Z"/><path class="cls-1" d="M25.5,11a.86.86,0,0,0,1.14-.41h0a2.87,2.87,0,0,0,.25-1.22A.85.85,0,0,0,26,8.54a.86.86,0,0,0-.86.85,1,1,0,0,1-.09.49A.86.86,0,0,0,25.5,11Z"/><path class="cls-1" d="M20.91,17.93a.86.86,0,0,0,.86-.86,1.17,1.17,0,0,1,.28-.8.85.85,0,1,0-1.41-1h0a2.84,2.84,0,0,0-.57,1.75A.86.86,0,0,0,20.91,17.93Z"/><path class="cls-1" d="M20.82,14a.85.85,0,0,0,1.55-.72,3.65,3.65,0,0,0-.32-.54,1.31,1.31,0,0,1,0-1.62,2.84,2.84,0,0,0,.57-1.75.85.85,0,0,0-.85-.85.86.86,0,0,0-.86.85,1.21,1.21,0,0,1-.28.81A2.84,2.84,0,0,0,20.06,12a2.9,2.9,0,0,0,.57,1.76A2,2,0,0,1,20.82,14Z"/><path class="cls-1" d="M41.4,8.54a.86.86,0,0,0,1.71,0,1.18,1.18,0,0,1,.28-.81A2.87,2.87,0,0,0,44,6a2.88,2.88,0,0,0-.57-1.76,3.21,3.21,0,0,1-.19-.31.85.85,0,1,0-1.54.72,3.6,3.6,0,0,0,.31.54,1.18,1.18,0,0,1,.29.81,1.17,1.17,0,0,1-.29.8A2.88,2.88,0,0,0,41.4,8.54Z"/><path class="cls-1" d="M42.21,2.84a.84.84,0,0,0,1.18-.23A2.88,2.88,0,0,0,44,.85a.85.85,0,1,0-1.7,0,1.18,1.18,0,0,1-.29.81A.85.85,0,0,0,42.21,2.84Z"/><path class="cls-1" d="M38,9.39a.85.85,0,0,0,.85-.85,1.23,1.23,0,0,1,.28-.81,3.65,3.65,0,0,0,.32-.54A.84.84,0,0,0,39,6.06a.86.86,0,0,0-1.14.41h0a2,2,0,0,1-.19.31,2.88,2.88,0,0,0-.57,1.76A.86.86,0,0,0,38,9.39Z"/><path class="cls-1" d="M38.42,5.55a.85.85,0,0,0,.85-.86.82.82,0,0,0-.15-.47,1.23,1.23,0,0,1-.28-.81,1.22,1.22,0,0,1,.28-.8A2.81,2.81,0,0,0,39.7.85.86.86,0,0,0,38.84,0,.85.85,0,0,0,38,.85a1.18,1.18,0,0,1-.29.81,2.87,2.87,0,0,0-.57,1.75,2.88,2.88,0,0,0,.57,1.76A.86.86,0,0,0,38.42,5.55Z"/><path class="cls-1" d="M21.34,24.76a.86.86,0,1,0,0-1.71H19.63a.85.85,0,0,0-.85.85.86.86,0,0,0,.85.86Z"/><path class="cls-1" d="M23.9,24.76h4.27A.86.86,0,0,0,29,23.9a.85.85,0,0,0-.85-.85H23.9a.85.85,0,0,0-.85.85A.86.86,0,0,0,23.9,24.76Z"/></g></svg>