<svg id="Layer_1" data-name="Layer 1" xmlns="http://www.w3.org/2000/svg" viewBox="0 0 35 35"><defs><style>.cls-1{fill:#43b9be;}</style></defs><path class="cls-1" d="M31.41,30.3h-.55V27.52A.56.56,0,0,0,30.3,27H28.63v-8.9a11.13,11.13,0,1,0-22.26,0V27H4.7a.56.56,0,0,0-.56.56V30.3H3.59a.56.56,0,0,0-.56.56V34.2a.56.56,0,0,0,.56.55H31.41A.56.56,0,0,0,32,34.2V30.86A.56.56,0,0,0,31.41,30.3ZM7.48,18.06a10,10,0,1,1,20,0V27h-20Zm-2.22,10H29.74V30.3H5.26Zm25.6,5.57H4.14V31.41H30.86Z"/><path class="cls-1" d="M31.41,35H3.59a.8.8,0,0,1-.81-.8V30.86a.81.81,0,0,1,.81-.81H3.9V27.52a.8.8,0,0,1,.8-.8H6.12V18.06a11.38,11.38,0,0,1,22.76,0v8.66H30.3a.8.8,0,0,1,.8.8v2.53h.31a.81.81,0,0,1,.81.81V34.2A.8.8,0,0,1,31.41,35ZM3.59,30.55a.31.31,0,0,0-.31.31V34.2a.31.31,0,0,0,.31.31H31.41a.31.31,0,0,0,.31-.31V30.86a.31.31,0,0,0-.31-.31h-.8v-3a.31.31,0,0,0-.31-.31H28.39V18.06a10.89,10.89,0,1,0-21.77,0v9.15H4.7a.31.31,0,0,0-.31.31v3ZM31.1,33.89H3.9V31.17H31.1Zm-26.71-.5H30.61V31.66H4.39ZM30,30.55H5V27.83H30ZM5.5,30.05h24V28.32H5.5Zm22.26-2.84H7.24V18.06a10.26,10.26,0,1,1,20.52,0Zm-20-.49H27.27V18.06a9.77,9.77,0,1,0-19.54,0Z"/><path class="cls-1" d="M16.94.25h1.12V4.14H16.94Z"/><path class="cls-1" d="M18.3,4.39H16.7V0h1.6ZM17.19,3.9h.62V.49h-.62Z"/><path class="cls-1" d="M26.57,7.65l2.78-2.78.78.79L27.35,8.44Z"/><path class="cls-1" d="M27.35,8.79,26.22,7.65l3.13-3.13,1.13,1.14Zm-.44-1.14.44.44,2.44-2.43-.44-.44Z"/><path class="cls-1" d="M4.86,5.65l.78-.79L8.43,7.64l-.79.79Z"/><path class="cls-1" d="M7.64,8.78,4.51,5.65,5.64,4.51,8.78,7.64ZM5.21,5.65,7.64,8.08l.44-.44L5.64,5.21Z"/><path class="cls-1" d="M.25,16.94H4.7v1.12H.25Z"/><path class="cls-1" d="M5,18.3H0V16.7H5ZM.49,17.81h4v-.62h-4Z"/><path class="cls-1" d="M30.3,16.94h4.45v1.12H30.3Z"/><path class="cls-1" d="M35,18.3H30.05V16.7H35Zm-4.45-.49h4v-.62h-4Z"/><path class="cls-1" d="M19.17,12.49H15.83a.56.56,0,0,0-.41.18.58.58,0,0,0-.15.43l.56,5.57a.56.56,0,0,0,.56.5h2.22a.56.56,0,0,0,.56-.5l.56-5.57a.58.58,0,0,0-.15-.43.56.56,0,0,0-.41-.18Zm-1.06,5.57H16.89l-.45-4.46h2.12Z"/><path class="cls-1" d="M18.61,20.28H16.39a.56.56,0,0,0-.56.56v2.23a.56.56,0,0,0,.56.55h2.22a.56.56,0,0,0,.56-.55V20.84A.56.56,0,0,0,18.61,20.28Zm-.55,2.23H16.94V21.4h1.12Z"/><path class="cls-1" d="M17.5,10.26a7.8,7.8,0,1,0,7.79,7.8A7.8,7.8,0,0,0,17.5,10.26Zm0,14.48a6.68,6.68,0,1,1,6.68-6.68A6.68,6.68,0,0,1,17.5,24.74Z"/><path class="cls-1" d="M17.5,26.09a8,8,0,1,1,8-8A8,8,0,0,1,17.5,26.09Zm0-15.58a7.55,7.55,0,1,0,7.55,7.55A7.56,7.56,0,0,0,17.5,10.51ZM17.5,25a6.93,6.93,0,1,1,6.93-6.92A6.92,6.92,0,0,1,17.5,25Zm0-13.36a6.44,6.44,0,1,0,6.43,6.44A6.44,6.44,0,0,0,17.5,11.62Z"/></svg>