<svg id="Layer_1" data-name="Layer 1" xmlns="http://www.w3.org/2000/svg" viewBox="0 0 33.92 35"><defs><style>.cls-1{fill:#43b9be;}</style></defs><path class="cls-1" d="M32.24,4.39a9.17,9.17,0,0,0-1.88-2.3c-.57-.47-1.1-.88-1.58-1.22a3.11,3.11,0,0,0-4.15.36,17,17,0,0,0-2.57,4.12v0a10.24,10.24,0,0,0-1.18,4.1,2.8,2.8,0,0,0,1.8,2.37c.26.13,2.73,1,3.49,1.25a1,1,0,0,1,.47.23c.05.06,0,.27-.09.55-1.26,2.69-2.5,5.08-3.91,7.53a.51.51,0,0,0,.19.69.5.5,0,0,0,.69-.19c1.42-2.46,2.68-4.88,3.95-7.6a1.5,1.5,0,0,0,0-1.63,1.8,1.8,0,0,0-1-.56c-.73-.21-3.1-1.07-3.33-1.18s-1.2-.67-1.22-1.49A9.66,9.66,0,0,1,23,5.78v0A16,16,0,0,1,25.4,1.89a2.11,2.11,0,0,1,2.8-.19c.46.32,1,.72,1.51,1.17a8.63,8.63,0,0,1,1.68,2.07,9.07,9.07,0,0,1,1.2,5.82,22.76,22.76,0,0,1-1.38,5.12c-.32.86-.68,1.73-1.11,2.68s-1,2.13-1.53,3.14a48.79,48.79,0,0,1-3.35,5.38c-.55.77-1.12,1.54-1.73,2.26-.34.4-.68.79-1,1.16a9.93,9.93,0,0,1-6.7,3.23,8.81,8.81,0,0,1-2.66-.28c-.68-.21-1.28-.43-1.8-.63a2.11,2.11,0,0,1-1.37-2.45,15.84,15.84,0,0,1,1.95-4.13v0a9.53,9.53,0,0,1,2.48-2.9,2,2,0,0,1,1.91.21c.22.14,2.23,1.66,2.8,2.16a1.9,1.9,0,0,0,1,.5,1.44,1.44,0,0,0,1.39-.84L22.32,24a.51.51,0,0,0-.17-.7.5.5,0,0,0-.7.17c-.28.46-.56.93-.85,1.38-.16.26-.33.38-.41.37a.91.91,0,0,1-.45-.26c-.6-.51-2.69-2.1-2.94-2.25a2.81,2.81,0,0,0-3-.22A10.34,10.34,0,0,0,11,25.67h0A16.91,16.91,0,0,0,9,30.08a3.12,3.12,0,0,0,2,3.68c.55.22,1.18.44,1.87.66a9.47,9.47,0,0,0,2.57.33h.39a10.07,10.07,0,0,0,4.75-1.38,19.13,19.13,0,0,0,5.56-5.7,50.23,50.23,0,0,0,3.42-5.49c.55-1,1.07-2.11,1.56-3.21s.8-1.86,1.13-2.73a23,23,0,0,0,1.44-5.36,10.19,10.19,0,0,0-1.36-6.49Z"/><path class="cls-1" d="M15.35,35a9.68,9.68,0,0,1-2.65-.35c-.69-.22-1.33-.44-1.88-.66a3.37,3.37,0,0,1-2.11-4,17.07,17.07,0,0,1,2.1-4.46,10.44,10.44,0,0,1,2.89-3.31,3.05,3.05,0,0,1,3.23.21c.26.17,2.38,1.77,3,2.28.19.17.27.21.32.21s.06-.08.17-.26c.29-.45.57-.92.85-1.38A.76.76,0,0,1,21.7,23a.71.71,0,0,1,.57.09.75.75,0,0,1,.26,1c-.28.47-.57.94-.86,1.4a1.73,1.73,0,0,1-1.63,1,2.06,2.06,0,0,1-1.13-.57c-.57-.49-2.58-2-2.77-2.13a1.72,1.72,0,0,0-1.66-.21,9.46,9.46,0,0,0-2.4,2.83,15.74,15.74,0,0,0-1.92,4.08,1.86,1.86,0,0,0,1.22,2.15c.51.2,1.11.41,1.78.62a8.18,8.18,0,0,0,2.58.27,9.6,9.6,0,0,0,6.53-3.16c.34-.35.69-.73,1-1.13.53-.64,1.06-1.33,1.72-2.25a47.79,47.79,0,0,0,3.33-5.36c.54-1,1-2,1.53-3.13s.78-1.81,1.1-2.65a22.46,22.46,0,0,0,1.37-5.07,8.84,8.84,0,0,0-1.17-5.66,8.18,8.18,0,0,0-1.63-2c-.54-.45-1-.84-1.5-1.16a1.85,1.85,0,0,0-2.46.15,15.41,15.41,0,0,0-2.37,3.81,9.48,9.48,0,0,0-1.08,3.58c0,.68.77,1.11,1.08,1.27s2.55.95,3.3,1.16a2.14,2.14,0,0,1,1.09.64,1.72,1.72,0,0,1,.08,1.9c-1.27,2.72-2.53,5.14-4,7.62a.75.75,0,0,1-1,.27.77.77,0,0,1-.36-.45.78.78,0,0,1,.08-.58c1.4-2.43,2.64-4.82,3.89-7.51a.72.72,0,0,0,.1-.34s-.08,0-.32-.1c-.75-.21-3.25-1.12-3.53-1.25a3.07,3.07,0,0,1-1.94-2.6,10.59,10.59,0,0,1,1.2-4.2,17.22,17.22,0,0,1,2.61-4.2,3.36,3.36,0,0,1,4.48-.4q.73.51,1.59,1.23a9.42,9.42,0,0,1,1.94,2.36h0a10.44,10.44,0,0,1,1.4,6.65,23.88,23.88,0,0,1-1.46,5.42c-.33.88-.7,1.78-1.13,2.74s-1,2.19-1.58,3.22a49.75,49.75,0,0,1-3.43,5.52,19.35,19.35,0,0,1-5.64,5.77,9.92,9.92,0,0,1-1.81.84,10.55,10.55,0,0,1-3.05.57ZM15,22.37a2,2,0,0,0-1.08.29,10.44,10.44,0,0,0-2.72,3.14,16.65,16.65,0,0,0-2,4.35A2.87,2.87,0,0,0,11,33.53c.54.22,1.17.44,1.85.65a8.71,8.71,0,0,0,2.88.32A9.93,9.93,0,0,0,18.64,34a9.61,9.61,0,0,0,1.73-.79,19.06,19.06,0,0,0,5.48-5.63,50.37,50.37,0,0,0,3.4-5.47c.54-1,1.07-2.09,1.56-3.19s.79-1.84,1.12-2.72a23.68,23.68,0,0,0,1.43-5.29A10,10,0,0,0,32,4.51,8.85,8.85,0,0,0,30.2,2.28c-.56-.47-1.08-.88-1.56-1.21a2.86,2.86,0,0,0-3.82.32,16.78,16.78,0,0,0-2.53,4.06,10,10,0,0,0-1.16,4,2.55,2.55,0,0,0,1.65,2.16c.23.11,2.68,1,3.46,1.23a1.25,1.25,0,0,1,.59.31c.18.23,0,.64-.06.81-1.26,2.7-2.51,5.1-3.91,7.55a.26.26,0,0,0,.09.36.27.27,0,0,0,.36-.1c1.42-2.46,2.67-4.87,3.94-7.58a1.26,1.26,0,0,0,0-1.37,1.68,1.68,0,0,0-.85-.49c-.72-.2-3.1-1.06-3.37-1.19a2.15,2.15,0,0,1-1.36-1.7,9.82,9.82,0,0,1,1.11-3.77,16,16,0,0,1,2.46-3.95,2.33,2.33,0,0,1,3.12-.23c.46.33,1,.72,1.53,1.18A9.13,9.13,0,0,1,31.6,4.82a9.32,9.32,0,0,1,1.24,6A23,23,0,0,1,31.44,16c-.32.86-.69,1.74-1.11,2.69s-1,2.14-1.54,3.15a49.35,49.35,0,0,1-3.37,5.41c-.66.94-1.2,1.64-1.74,2.28-.35.42-.71.81-1.06,1.17A10,10,0,0,1,15.76,34,8.55,8.55,0,0,1,13,33.68c-.68-.21-1.29-.43-1.82-.64a2.34,2.34,0,0,1-1.5-2.74,16.15,16.15,0,0,1,2-4.2,9.88,9.88,0,0,1,2.57-3,2.18,2.18,0,0,1,2.17.21c.25.16,2.26,1.69,2.83,2.18a1.62,1.62,0,0,0,.87.45,1.26,1.26,0,0,0,1.16-.73l.85-1.39a.27.27,0,0,0-.09-.36.24.24,0,0,0-.2,0,.25.25,0,0,0-.16.12c-.28.46-.56.93-.85,1.38-.1.16-.37.52-.65.49a1.13,1.13,0,0,1-.58-.33c-.61-.52-2.7-2.09-2.91-2.22A3.19,3.19,0,0,0,15,22.37Z"/><path class="cls-1" d="M6.89,16.42H8.25A1,1,0,0,0,9.3,15.37V13.85s0,0,0,0h1.52a1.06,1.06,0,0,0,1.05-1.06V11.4a1,1,0,0,0-1.05-1.05H9.34a0,0,0,0,1,0,0V8.79a1,1,0,0,0-1.05-1H6.89a1,1,0,0,0-1,1v1.53a0,0,0,0,1,0,0H4.28A1,1,0,0,0,3.23,11.4v1.36a1.06,1.06,0,0,0,1.05,1.06H5.8s0,0,0,0v1.52a1,1,0,0,0,1,1.05ZM5.8,12.8H4.28s0,0,0,0V11.4a0,0,0,0,1,0,0H5.8a1,1,0,0,0,1-1V8.79s0,0,0,0H8.25s0,0,0,0v1.53a1,1,0,0,0,1.05,1h1.52a0,0,0,0,1,0,0v1.36s0,0,0,0H9.34a1,1,0,0,0-1.05,1v1.52a0,0,0,0,1,0,0H6.89a0,0,0,0,1,0,0V13.85a1,1,0,0,0-1-1Z"/><path class="cls-1" d="M8.25,16.67H6.89a1.3,1.3,0,0,1-1.3-1.3V14.06H4.28A1.3,1.3,0,0,1,3,12.76V11.4a1.3,1.3,0,0,1,1.3-1.3H5.59V8.79A1.3,1.3,0,0,1,6.89,7.5H8.25a1.3,1.3,0,0,1,1.3,1.29V10.1h1.31a1.3,1.3,0,0,1,1.3,1.3v1.36a1.3,1.3,0,0,1-1.3,1.3H9.55v1.31A1.3,1.3,0,0,1,8.25,16.67Zm-4-6.07a.8.8,0,0,0-.8.8v1.36a.8.8,0,0,0,.8.81H6.05l0,.28v1.52a.81.81,0,0,0,.81.81H8.25a.81.81,0,0,0,.81-.81V13.6l.28,0h1.52a.8.8,0,0,0,.8-.81V11.4a.8.8,0,0,0-.8-.8H9.09l0-.28V8.79A.8.8,0,0,0,8.25,8H6.89a.81.81,0,0,0-.81.8v1.77l-.28,0Zm4,5.05H6.64l0-.28V13.85A.81.81,0,0,0,5.8,13H4l0-.28v-1.6l.28,0H5.8a.8.8,0,0,0,.81-.8V8.55l.28,0H8.5l0,.28v1.53a.8.8,0,0,0,.81.8h1.77l0,.28V13l-.28,0H9.34a.81.81,0,0,0-.81.81v1.77ZM7.1,15.16H8V13.85a1.3,1.3,0,0,1,1.3-1.3h1.31v-.94H9.34A1.3,1.3,0,0,1,8,10.32V9H7.1v1.31a1.3,1.3,0,0,1-1.3,1.29H4.49v.94H5.8a1.3,1.3,0,0,1,1.3,1.3Z"/><path class="cls-1" d="M11.88,21.44a.77.77,0,0,0,.68-.39.79.79,0,0,0,0-.87A4.45,4.45,0,0,1,11.9,18a7.31,7.31,0,0,0,3-5.92,7.23,7.23,0,0,0-1.55-4.51.5.5,0,0,0-.71-.08.51.51,0,0,0-.09.71,6.33,6.33,0,0,1-1.45,9.12.49.49,0,0,0-.22.43,5.83,5.83,0,0,0,.59,2.61,4.33,4.33,0,0,1-2.84-1.77.5.5,0,0,0-.47-.22l-.59,0a6.32,6.32,0,0,1,0-12.63,6.26,6.26,0,0,1,3.36,1,.51.51,0,0,0,.54-.87,7.33,7.33,0,1,0-3.9,13.54H8a5.59,5.59,0,0,0,3.82,2Z"/><path class="cls-1" d="M11.88,21.69h-.12a5.88,5.88,0,0,1-3.92-2H7.57a7.58,7.58,0,1,1,4-14,.75.75,0,0,1,.34.47.77.77,0,0,1-.1.57.75.75,0,0,1-.47.33.72.72,0,0,1-.57-.1,6.08,6.08,0,0,0-9.3,5.14,6.06,6.06,0,0,0,6.64,6,.78.78,0,0,1,.7.34A3.9,3.9,0,0,0,11,20a6.46,6.46,0,0,1-.41-2.25.74.74,0,0,1,.33-.63,6.08,6.08,0,0,0,1.4-8.77.73.73,0,0,1-.16-.55.8.8,0,0,1,.29-.51A.73.73,0,0,1,13,7.14a.75.75,0,0,1,.51.28,7.59,7.59,0,0,1-1.39,10.7A4,4,0,0,0,12.75,20a1.07,1.07,0,0,1,0,1.14A1.05,1.05,0,0,1,11.88,21.69Zm-3.8-2.54.08.1a5.29,5.29,0,0,0,3.65,1.94.58.58,0,0,0,.54-.27.56.56,0,0,0,0-.61,4.6,4.6,0,0,1-.68-2.3v-.13l.11-.08a7.13,7.13,0,0,0,2.9-5.72,7,7,0,0,0-1.5-4.35.27.27,0,0,0-.18-.1.25.25,0,0,0-.19,0,.25.25,0,0,0-.1.18.27.27,0,0,0,.05.19,6.55,6.55,0,0,1-1.5,9.47.26.26,0,0,0-.12.22,5.79,5.79,0,0,0,.57,2.5l.23.46-.5-.1a4.57,4.57,0,0,1-3-1.87.24.24,0,0,0-.25-.11l-.61,0A6.56,6.56,0,1,1,11.06,6.53a.28.28,0,0,0,.2,0,.26.26,0,0,0,.16-.11.28.28,0,0,0,0-.2.3.3,0,0,0-.12-.17A7.09,7.09,0,1,0,8,19.16Z"/></svg>