<svg xmlns="http://www.w3.org/2000/svg" width="35" height="35" viewBox="0 0 35 35"><defs><style>.a{fill:#43b9be;}</style></defs><g transform="translate(-1176.475 -65.465)"><path class="a" d="M1208.559,65.465h-29.167a2.917,2.917,0,0,0-2.917,2.917V97.548a2.917,2.917,0,0,0,2.917,2.917h29.167a2.917,2.917,0,0,0,2.916-2.917V68.382A2.917,2.917,0,0,0,1208.559,65.465Zm1.75,32.083a1.75,1.75,0,0,1-1.75,1.75h-29.167a1.75,1.75,0,0,1-1.75-1.75V68.382a1.75,1.75,0,0,1,1.75-1.75h29.167a1.75,1.75,0,0,1,1.75,1.75Z"/><path class="a" d="M1205.642,93.465a2.334,2.334,0,1,0,2.333,2.333A2.333,2.333,0,0,0,1205.642,93.465Zm0,3.5a1.166,1.166,0,1,1,1.167-1.167A1.167,1.167,0,0,1,1205.642,96.965Z"/><path class="a" d="M1201.827,78.03a.592.592,0,0,0,.828,0l2.917-2.917a2.239,2.239,0,0,0,0-3.161,2.3,2.3,0,0,0-3.162,0l-.169.169-.169-.169a2.3,2.3,0,0,0-3.162,0,2.24,2.24,0,0,0,0,3.161Zm-2.088-5.25a1.055,1.055,0,0,1,1.493-.012l.012.012.583.583a.584.584,0,0,0,.825,0l0,0,.584-.583a1.078,1.078,0,0,1,1.505,0,1.056,1.056,0,0,1,.012,1.493l-.012.012-2.5,2.5-2.5-2.5a1.065,1.065,0,0,1,0-1.505Z"/><path class="a" d="M1207.975,68.382h-28a.583.583,0,0,0-.583.583v22.75a.583.583,0,0,0,.583.583h28a.584.584,0,0,0,.584-.583V68.965A.584.584,0,0,0,1207.975,68.382Zm-.583,22.75h-26.833V69.548h26.833Z"/><path class="a" d="M1188.661,80.311l.683-1.359,1.791,3.138a.6.6,0,0,0,1.079-.1l1.75-5.192,2.345,8.663a.619.619,0,0,0,1.166.029l1.587-4.853h7.163V79.465h-7.583a.582.582,0,0,0-.583.4l-1.167,3.441-2.333-8.662a.62.62,0,0,0-1.167-.029l-1.919,5.763-1.657-2.952a.57.57,0,0,0-1.009.029l-1.027,2.013h-6.055v1.167h6.417A.584.584,0,0,0,1188.661,80.311Z"/><path class="a" d="M1184.059,94.048h-3.5a.584.584,0,0,0-.584.584v2.333a.584.584,0,0,0,.584.583h3.5a.583.583,0,0,0,.583-.583V94.632A.583.583,0,0,0,1184.059,94.048Zm-.584,2.334h-2.333V95.215h2.333Z"/><rect class="a" width="4.667" height="1.167" transform="translate(1181.725 74.215)"/><rect class="a" width="3.5" height="1.167" transform="translate(1181.725 76.548)"/><rect class="a" width="1.167" height="2.333" transform="translate(1181.725 87.632)"/><rect class="a" width="1.167" height="2.333" transform="translate(1193.392 87.632)"/><rect class="a" width="1.167" height="2.333" transform="translate(1205.059 87.632)"/><rect class="a" width="1.167" height="1.167" transform="translate(1184.642 88.798)"/><rect class="a" width="1.167" height="2.333" transform="translate(1187.559 87.632)"/><rect class="a" width="1.167" height="2.333" transform="translate(1199.225 87.632)"/><rect class="a" width="1.167" height="1.167" transform="translate(1190.475 88.798)"/><rect class="a" width="1.167" height="1.167" transform="translate(1196.309 88.798)"/><rect class="a" width="1.167" height="1.167" transform="translate(1202.142 88.798)"/><path class="a" d="M1189.892,94.048h-3.5a.583.583,0,0,0-.583.584v2.333a.583.583,0,0,0,.583.583h3.5a.583.583,0,0,0,.583-.583V94.632A.583.583,0,0,0,1189.892,94.048Zm-.583,2.334h-2.334V95.215h2.334Z"/><path class="a" d="M1195.725,94.048h-3.5a.583.583,0,0,0-.583.584v2.333a.583.583,0,0,0,.583.583h3.5a.584.584,0,0,0,.584-.583V94.632A.584.584,0,0,0,1195.725,94.048Zm-.583,2.334h-2.333V95.215h2.333Z"/><path class="a" d="M1201.559,94.048h-3.5a.584.584,0,0,0-.584.584v2.333a.584.584,0,0,0,.584.583h3.5a.583.583,0,0,0,.583-.583V94.632A.583.583,0,0,0,1201.559,94.048Zm-.584,2.334h-2.333V95.215h2.333Z"/></g></svg>