<svg width="640" height="480" xmlns="http://www.w3.org/2000/svg">

 <g>
  <title>background</title>
  <rect fill="none" id="canvas_background" height="482" width="642" y="-1" x="-1"/>
 </g>
 <g>
  <title>Layer 1</title>
  <g transform="matrix(2.5393326095216406,0,0,1.6269168166875838,-25.272095409991568,11.499229248795626) " id="SvgjsG1008">
   <svg y="-1.09087" x="-7.63609" id="svg_1" height="288" width="288" viewBox="0 0 1000 1000">
    <g id="svg_2" class="color000 svgShape" fill="#43b9be" transform="matrix(0.1,0,0,-0.1,0,511) ">
     <path id="svg_3" class="color000 svgShape" fill="#43b9be" d="m2034.9,1904l0,-3106l303,0l303,0l4.3,2798.7l6.5,2796.5l1943.7,6.5l1941.5,4.3l0,-1125.6l0,-1125.5l1077.9,-4.3l1075.7,-6.5l0,-3106.1l0,-3106l-2158,-6.5l-2160.2,-4.3l0,-303l0,-303l2467.7,0l2467.5,0l0,3816l0,3813.8l-1056.2,1032.4l-1054.1,1034.6l-2580.1,0l-2582.2,0l0,-3106zm5863.6,1564.9l718.6,-709.9l-738.1,0l-735.9,0l0,716.4c0,411.3 8.7,712.1 19.5,707.8c10.8,-2.2 342,-324.7 735.9,-714.3z"/>
     <path id="svg_4" class="color000 svgShape" fill="#43b9be" d="m3550.1,3516.5l0,-303l1233.7,0l1233.7,0l0,303l0,303l-1233.7,0l-1233.7,0l0,-303zm0,-2510.8l0,-303l844.1,0l844.1,0l0,303l0,303l-844.1,0l-844.1,0l0,-303zm2575.7,0l0,-303l833.3,0l833.3,0l0,303l0,303l-833.3,0l-833.3,0l0,-303zm-2575.7,-1168.8l0,-303l844.1,0l844.1,0l0,303l0,303l-844.1,0l-844.1,0l0,-303zm2575.7,0l0,-303l833.3,0l833.3,0l0,303l0,303l-833.3,0l-833.3,0l0,-303zm-1731.6,-1168.8l0,-303l422.1,0l422.1,0l0,303l0,303l-422.1,0l-422.1,0l0,-303zm1731.6,0l0,-303l833.3,0l833.3,0l0,303l0,303l-833.3,0l-833.3,0l0,-303zm-5227.2,-521.6c-147.2,-41.1 -235.9,-216.5 -197,-381c10.8,-39 190.5,-235.9 523.8,-569.2l506.5,-508.7l-489.2,-487c-268.4,-268.4 -502.1,-513 -519.5,-545.5c-17.3,-32.5 -30.3,-101.7 -30.3,-155.8c0,-177.5 181.8,-318.2 363.6,-283.5c67.1,13 160.2,93.1 595.2,526l513,510.8l515.1,-510.8c435.1,-432.9 526,-513 593.1,-526c238.1,-45.4 426.4,186.1 339.8,415.6c-10.8,32.5 -244.6,285.7 -519.5,558.4l-495.7,497.8l489.2,487c268.4,268.4 502.1,513 519.5,545.4c86.6,164.5 -6.5,376.6 -188.3,428.6c-164.5,47.6 -188.3,32.5 -740.2,-517.3l-513,-508.7l-493.5,489.2c-554,554.1 -599.5,586.6 -772.6,534.7zm3495.6,-1101.8l0,-303l422.1,0l422.1,0l0,303l0,303l-422.1,0l-422.1,0l0,-303zm1731.6,0l0,-303l833.3,0l833.3,0l0,303l0,303l-833.3,0l-833.3,0l0,-303z"/>
    </g>
   </svg>
  </g>
 </g>
</svg>