<svg xmlns="http://www.w3.org/2000/svg" width="31.041" height="35" viewBox="0 0 31.041 35"><defs><style>.a{fill:#43b9be;}</style></defs><g transform="translate(-907.228 -66.378)"><path class="a" d="M938.247,99.585,936.7,90.521a2.581,2.581,0,0,0-1.808-2.048l-4.176-1.26a4.66,4.66,0,0,0-3.233-4.045c.133-.147.255-.293.368-.436a8.111,8.111,0,0,0,1.66-3.6h.322a1.522,1.522,0,0,0,1.52-1.52v-.779a1.531,1.531,0,0,0-.788-1.329V73.627a.513.513,0,1,0-1.025,0v2.1a3.194,3.194,0,0,0-.681.2.6.6,0,0,0-.073.032c-.055.026-.11.052-.165.082V71.91a2.071,2.071,0,0,0-2.069-2.069h-1.415a2.125,2.125,0,0,0-1.342.479l-.139.113a1.43,1.43,0,0,1-1.813,0l-.138-.113a2.128,2.128,0,0,0-1.343-.479h-1.415a2.071,2.071,0,0,0-2.069,2.069v4.131c-.055-.03-.11-.056-.165-.082a.581.581,0,0,0-.072-.032,3.217,3.217,0,0,0-.682-.2V70.412a3.013,3.013,0,0,1,3.01-3.009h7.561a3.013,3.013,0,0,1,3.01,3.009v.806a.513.513,0,1,0,1.025,0v-.806a4.039,4.039,0,0,0-4.035-4.034h-7.561a4.039,4.039,0,0,0-4.035,4.034V75.5a1.53,1.53,0,0,0-.787,1.329v.779a1.521,1.521,0,0,0,1.519,1.52h.323a8.1,8.1,0,0,0,1.66,3.6c.112.143.235.289.367.436a4.675,4.675,0,0,0-3.232,4.045l-4.177,1.26a2.581,2.581,0,0,0-1.808,2.048l-.629,3.681a.513.513,0,0,0,1.011.172l.629-3.681a1.558,1.558,0,0,1,1.094-1.238l3.862-1.166V89.3a2.564,2.564,0,0,0-1.949,1.614,2.634,2.634,0,0,0-.152.7l-.373,4.792a1.3,1.3,0,0,0,1.3,1.4h.639a.513.513,0,1,0,0-1.025h-.639a.279.279,0,0,1-.276-.3l.373-4.791a1.52,1.52,0,0,1,1.543-1.41h.1a1.519,1.519,0,0,1,1.551,1.41l.374,4.791a.279.279,0,0,1-.277.3h-.639a.513.513,0,1,0,0,1.025h.639a1.3,1.3,0,0,0,1.3-1.4l-.374-4.792a2.585,2.585,0,0,0-.2-.812,2.539,2.539,0,0,0-1.91-1.5V87.98l1.762-.532c.16.338.478,1.068,1.107,2.64.634,1.587,1.423,3.621,2.179,5.6a.464.464,0,0,0,.018.048c.505,1.32.994,2.613,1.413,3.729a.512.512,0,0,0,.959,0c.419-1.116.908-2.409,1.413-3.729.007-.016.013-.032.019-.048.755-1.977,1.543-4.009,2.177-5.6s.948-2.305,1.108-2.643l1.762.532v3.027a2.652,2.652,0,1,0,1.025,0v-2.72l3.863,1.166a1.56,1.56,0,0,1,1.094,1.238l1.548,9.065a.51.51,0,0,1-.5.595H908.762a.51.51,0,0,1-.5-.595l.511-2.992a.512.512,0,0,0-1.01-.172l-.511,2.991a1.533,1.533,0,0,0,1.512,1.793h27.973a1.533,1.533,0,0,0,1.512-1.793Zm-8.7-22.811a2.216,2.216,0,0,1,.495-.067.512.512,0,0,0,.25-.059.484.484,0,0,1,.037.181v.779a.5.5,0,0,1-.5.495h-.287V76.774ZM915.952,78.1h-.287a.5.5,0,0,1-.494-.495v-.779a.484.484,0,0,1,.036-.181.512.512,0,0,0,.25.059,2.352,2.352,0,0,1,.5.067V78.1Zm1.025.575V77.331a.719.719,0,0,0,.925-.689V71.91a1.046,1.046,0,0,1,1.044-1.044h1.415a1.1,1.1,0,0,1,.694.247l.138.114a2.457,2.457,0,0,0,3.111,0l.138-.114a1.1,1.1,0,0,1,.694-.247h1.415a1.045,1.045,0,0,1,1.044,1.044v4.732a.718.718,0,0,0,.443.664.714.714,0,0,0,.482.026v1.346a6.63,6.63,0,0,1-1.476,3.421,6.752,6.752,0,0,1-1.229,1.217.377.377,0,0,0-.045.034,5,5,0,0,1-6.042,0,.5.5,0,0,0-.046-.034,6.752,6.752,0,0,1-1.229-1.217A6.639,6.639,0,0,1,916.977,78.678Zm9.129,8.28-3.357,2.51-3.358-2.51a2.428,2.428,0,0,0,.519-1.451v-.826a6.022,6.022,0,0,0,5.677,0v.826A2.428,2.428,0,0,0,926.106,86.958Zm-7.571-.572a1.4,1.4,0,0,0-.864-.043l-.037.01-1.77.534a3.64,3.64,0,0,1,3.021-2.872v1.492A1.35,1.35,0,0,1,918.535,86.386Zm1.391,4.115,0-.007-.077-.195-.014-.035-.074-.186,0-.013c-.076-.19-.149-.374-.22-.549l-.015-.038-.06-.149-.022-.054-.056-.14-.017-.041-.1-.246-.026-.064-.038-.092-.04-.1-.014-.037-.012-.028c-.059-.144-.115-.279-.169-.407v0c-.029-.068-.056-.134-.083-.2l-.041-.1,2.888,2.159-1.207.512-.006,0-.5.214Zm1.223,3.138q-.152-.395-.3-.791c-.16-.413-.312-.805-.459-1.179l.192-.081.781.908Zm1.61,4.166a.492.492,0,0,0-.053-.086c-.232-.613-.525-1.387-.851-2.239l.479-2.62h.829l.479,2.62C923.3,96.373,922.995,97.18,922.759,97.805Zm.6-5.97h-1.214l-.575-.668,1.182-.5,1.181.5Zm1.3,1.013q-.153.4-.3.791l-.209-1.143.782-.908.191.081C924.966,92.043,924.813,92.435,924.653,92.848Zm1.963-4.925-.078.187-.011.025c-.026.064-.053.129-.081.2l-.006.014c-.024.058-.049.118-.074.18l-.014.033-.017.042-.035.084-.042.1-.014.035c-.036.087-.072.177-.11.27l-.017.043-.057.139-.022.056-.059.147-.017.042q-.1.26-.217.542l-.007.018-.073.185-.014.035-.078.2v0l-.086.216-.5-.214-.005,0-1.207-.513,2.887-2.158Zm1.247-1.57h0a1.4,1.4,0,0,0-.9.034,1.35,1.35,0,0,1-.35-.879V84.015a3.612,3.612,0,0,1,3.024,2.873Zm3.977,7.257a1.627,1.627,0,1,1-1.626-1.627A1.628,1.628,0,0,1,931.84,93.61Z"/></g></svg>