<svg xmlns="http://www.w3.org/2000/svg" width="35.576" height="35" viewBox="0 0 35.576 35"><defs><style>.a{fill:#43b9be;}</style></defs><g transform="translate(-1089.619 -66.615)"><path class="a" d="M1110.679,78.722a.52.52,0,0,0,.726-.128l1.108-1.583a.521.521,0,1,0-.853-.6L1110.551,78A.521.521,0,0,0,1110.679,78.722Z"/><path class="a" d="M1113.36,77.453l-.377,1.9a.521.521,0,1,0,1.023.2l.376-1.9a.521.521,0,1,0-1.022-.2Z"/><path class="a" d="M1111.131,75.053a.521.521,0,0,0-.716-.175l-1.653,1a.521.521,0,1,0,.54.891l1.653-1A.521.521,0,0,0,1111.131,75.053Z"/><path class="a" d="M1095.432,77.189a.713.713,0,0,0,.623,0c.486-.24,2.073-1.147,2.073-2.742a3.1,3.1,0,0,0-4.769,0C1093.359,76.046,1094.946,76.95,1095.432,77.189Zm-.263-2.944a.667.667,0,0,0,1.146,0,.412.412,0,0,1,.771.2c0,.881-.93,1.5-1.343,1.728-.412-.229-1.342-.844-1.342-1.728A.411.411,0,0,1,1095.169,74.245Z"/><path class="a" d="M1099.426,73.814h2.06a.521.521,0,0,0,0-1.042h-2.06a.521.521,0,0,0,0,1.042Z"/><path class="a" d="M1099.426,75.65h2.06a.521.521,0,0,0,0-1.043h-2.06a.521.521,0,0,0,0,1.043Z"/><path class="a" d="M1099.426,77.485h2.06a.521.521,0,0,0,0-1.043h-2.06a.521.521,0,0,0,0,1.043Z"/><path class="a" d="M1124.067,67.658a.521.521,0,0,0,0-1.043h-5.146a.523.523,0,0,0-.454.222l-1.8,2.569-2.282-1.6a5.177,5.177,0,0,0-4.141-.8l-.18-.126a1.472,1.472,0,0,0-2.05.361l-.415.592a1.474,1.474,0,0,0,.362,2.05l.142.1a2.441,2.441,0,0,0,3.695,2.588l.291.2a2.441,2.441,0,0,0,3.7,2.588l.291.2a2.441,2.441,0,0,0,3.695,2.587l.143.1a1.474,1.474,0,0,0,2.05-.362l.414-.592a1.472,1.472,0,0,0-.361-2.049l-.227-.159a5.177,5.177,0,0,0-2.17-3.617l-2.1-1.469,1.643-2.347Zm-14.971,3.02,1.711,1.2A1.393,1.393,0,0,1,1109.1,70.678Zm3.986,2.791,1.711,1.2A1.392,1.392,0,0,1,1113.082,73.469Zm3.987,2.791,1.711,1.2A1.393,1.393,0,0,1,1117.069,76.26Zm4.456.441-.415.592a.43.43,0,0,1-.6.106l-11.953-8.369a.432.432,0,0,1-.1-.6l.415-.592a.433.433,0,0,1,.6-.106l11.952,8.369A.433.433,0,0,1,1121.525,76.7Zm-1.036-2.521c-.548-.385-8.689-6.084-8.943-6.262a4.119,4.119,0,0,1,2.242.745l5.234,3.664A4.119,4.119,0,0,1,1120.489,74.18Z"/><path class="a" d="M1123.723,88.19h-2.245a1.686,1.686,0,0,0-1.559-2.333h-3a1.2,1.2,0,0,0-1.131-.812h-11.315a.147.147,0,0,1-.036,0l-2.42-.591a1.188,1.188,0,0,0-1.267.486l-1.417-.345a1.691,1.691,0,0,0-1.833.748h-.218a3.546,3.546,0,0,0,.366-4.08h6.341a2.059,2.059,0,0,0,2.056-2.056V76.344a.521.521,0,1,0-1.042,0V79.2a1.015,1.015,0,0,1-1.014,1.014h-7.255a3.556,3.556,0,0,0-4.325,0h-.738a1.015,1.015,0,0,1-1.013-1.014V71.054a1.015,1.015,0,0,1,1.013-1.014h12.318a1.015,1.015,0,0,1,1.014,1.014v2.858a.522.522,0,1,0,1.043,0V71.054A2.059,2.059,0,0,0,1103.993,69h-12.318a2.059,2.059,0,0,0-2.056,2.056V79.2a2.058,2.058,0,0,0,1.884,2.048,3.547,3.547,0,0,0,.362,4.088h-.774a1.474,1.474,0,0,0-1.472,1.472v.95a1.465,1.465,0,0,0,.351.951,1.462,1.462,0,0,0-.351.95v.95a1.474,1.474,0,0,0,1.4,1.469v.459a1.473,1.473,0,0,0,1.471,1.471h1.44v6.611a.994.994,0,0,0,.993.993h.983a1,1,0,0,0,.993-.993V94.011h3.644V98.27a1.2,1.2,0,0,0,1.2,1.195h6.015a.521.521,0,0,0,0-1.042h-6.015a.154.154,0,0,1-.153-.153V85.606a.152.152,0,0,1,.188-.143l2.42.59a1.173,1.173,0,0,0,.283.034h11.315a.153.153,0,0,1,.153.153V98.27a.153.153,0,0,1-.153.153h-5.608a.521.521,0,0,0,0,1.042h5.608a1.2,1.2,0,0,0,1.2-1.195V94.011h.928v6.611a.994.994,0,0,0,.993.993h.983a1,1,0,0,0,.994-.993V94.011h1.439a1.473,1.473,0,0,0,1.471-1.471v-.46a1.472,1.472,0,0,0,1.4-1.468v-.95A1.474,1.474,0,0,0,1123.723,88.19ZM1099.09,85.6l1.453.355v1.328l-.616-.15-1.142-.279a.645.645,0,1,1,.3-1.254Zm-4.514-.049a2.514,2.514,0,1,1,2.514-2.514A2.518,2.518,0,0,1,1094.576,85.554Zm-3.914,1.257a.43.43,0,0,1,.429-.43h2.265a3.562,3.562,0,0,0,2.439,0h1.461a1.693,1.693,0,0,0,1.281,1.489l.652.159a.43.43,0,0,1-.336.161h-7.762a.429.429,0,0,1-.429-.429Zm0,3.8v-.95a.429.429,0,0,1,.429-.429h9.452v1.809h-9.452A.43.43,0,0,1,1090.662,90.612Zm5.2,9.961h-.885V94.011h.885Zm-3.367-7.6a.43.43,0,0,1-.429-.429v-.456h8.482v.885Zm28.074-5.424a.645.645,0,0,1-.645.645h-2.932V86.9h2.932A.646.646,0,0,1,1120.564,87.545Zm-.722,13.028h-.885V94.011h.885Zm2.911-8.033a.43.43,0,0,1-.429.429h-5.337v-.885h5.766Zm1.4-1.928a.43.43,0,0,1-.429.43h-6.736V89.233h6.736a.429.429,0,0,1,.429.429Z"/><path class="a" d="M1092.036,70.893a.521.521,0,0,0-.521.521v7.429a.521.521,0,0,0,.521.521h11.6a.521.521,0,0,0,.521-.521V71.414a.521.521,0,0,0-.521-.521Zm11.076,7.429h-10.555V71.935h10.555Z"/></g></svg>