<svg id="Layer_1" data-name="Layer 1" xmlns="http://www.w3.org/2000/svg" viewBox="0 0 40.28 32.99"><defs><style>.cls-1{fill:#43b9be;}</style></defs><path class="cls-1" d="M32.08,8.87H33.4v2.65H32.08Z"/><path class="cls-1" d="M33.65,11.77H31.83V8.62h1.82Zm-1.32-.5h.82V9.12h-.82Z"/><path class="cls-1" d="M29.42,8.87h1.33v2.65H29.42Z"/><path class="cls-1" d="M31,11.77H29.17V8.62H31Zm-1.33-.5h.83V9.12h-.83Z"/><path class="cls-1" d="M26.77,8.87H28.1v2.65H26.77Z"/><path class="cls-1" d="M28.35,11.77H26.52V8.62h1.83ZM27,11.27h.83V9.12H27Z"/><path class="cls-1" d="M24.12,8.87h1.33v2.65H24.12Z"/><path class="cls-1" d="M25.7,11.77H23.87V8.62H25.7Zm-1.33-.5h.83V9.12h-.83Z"/><path class="cls-1" d="M32.08,21.47H33.4v1.32H32.08Z"/><path class="cls-1" d="M33.65,23H31.83V21.22h1.82Zm-1.32-.5h.82v-.82h-.82Z"/><path class="cls-1" d="M29.42,21.47h1.33v1.32H29.42Z"/><path class="cls-1" d="M31,23H29.17V21.22H31Zm-1.33-.5h.83v-.82h-.83Z"/><path class="cls-1" d="M26.77,21.47H28.1v1.32H26.77Z"/><path class="cls-1" d="M28.35,23H26.52V21.22h1.83ZM27,22.54h.83v-.82H27Z"/><path class="cls-1" d="M24.12,21.47h1.33v1.32H24.12Z"/><path class="cls-1" d="M25.7,23H23.87V21.22H25.7Zm-1.33-.5h.83v-.82h-.83Z"/><path class="cls-1" d="M2.24,19.43v4a3.31,3.31,0,0,0,3.31,3.31h12l11.8,5.67a3.09,3.09,0,0,0,2.37.12A3.06,3.06,0,0,0,33.46,31l2-4.31a3.32,3.32,0,0,0,2.54-3.21V21.34l1.68-3.54a3.1,3.1,0,0,0-1.45-4.13l-.23-.11V8.87a3.33,3.33,0,0,0-3.32-3.32H21.36L10.94.55A3.08,3.08,0,0,0,6.82,2L5.11,5.6A3.29,3.29,0,0,0,2.24,8.87v2.77L.55,15.19A3.12,3.12,0,0,0,2,19.32Zm35.81-4.34a1.77,1.77,0,0,1,.48,2.14l-.48,1ZM32.26,30.4a1.75,1.75,0,0,1-1,.91,1.73,1.73,0,0,1-1.34-.07l-9.31-4.47H34Zm4.46-6.94a2,2,0,0,1-2,2H12.85V17.78A7.85,7.85,0,0,0,18.34,20V18.66a6.59,6.59,0,0,1-4.57-1.84h23ZM13.46,15.09l1.31-3.28a1.51,1.51,0,1,1,2,2ZM34.73,6.88a2,2,0,0,1,2,2V15.5H16L17.22,15a2.84,2.84,0,1,0-3.68-3.69l-.69,1.73V6.88ZM8,2.58a1.74,1.74,0,0,1,1-.9,1.72,1.72,0,0,1,1.35.07l7.93,3.8H6.6ZM3.56,8.87a2,2,0,0,1,2-2h6v5.71L11,11.32A2.83,2.83,0,1,0,7.33,15l1.22.49h-5Zm7.53,6.22L7.83,13.77a1.49,1.49,0,0,1-1-1.59,1.51,1.51,0,0,1,2.9-.37ZM3.56,16.82h7.22a6.58,6.58,0,0,1-4.56,1.84V20a7.85,7.85,0,0,0,5.3-2v7.5h-6a2,2,0,0,1-2-2ZM1.75,15.76l.49-1V17.9A1.76,1.76,0,0,1,1.75,15.76Z"/><path class="cls-1" d="M30.68,33a3.27,3.27,0,0,1-1.44-.33L17.48,27H5.55A3.57,3.57,0,0,1,2,23.46V19.59l-.1-.05A3.37,3.37,0,0,1,.32,15.08L2,11.58V8.87a3.56,3.56,0,0,1,3-3.5L6.59,1.9A3.36,3.36,0,0,1,8.49.19a3.44,3.44,0,0,1,2.56.13l10.37,5H34.73A3.59,3.59,0,0,1,38.3,8.87V13.4l.09,0A3.37,3.37,0,0,1,40,17.91L38.3,21.4v2.06a3.58,3.58,0,0,1-2.61,3.42l-2,4.2a3.38,3.38,0,0,1-1.9,1.72A3.5,3.5,0,0,1,30.68,33ZM9.6.5a2.77,2.77,0,0,0-.94.16A2.85,2.85,0,0,0,7.05,2.12L5.28,5.83H5.15a3.06,3.06,0,0,0-2.66,3l0,2.88L.77,15.29a2.87,2.87,0,0,0,1.34,3.8l.38.18v4.19a3.07,3.07,0,0,0,3.06,3.06l12.1,0,11.8,5.66a2.83,2.83,0,0,0,3.79-1.34l2.1-4.42.11,0a3.06,3.06,0,0,0,2.35-3l0-2.22,1.69-3.55a2.86,2.86,0,0,0-1.34-3.79l-.37-.18V8.87A3.08,3.08,0,0,0,34.73,5.8l-13.48,0L10.83.78A2.74,2.74,0,0,0,9.6.5ZM30.68,31.66a2,2,0,0,1-.87-.2l-10.3-4.94H34.39l-1.9,4a2,2,0,0,1-1.81,1.15ZM21.7,27,30,31a1.52,1.52,0,0,0,2-.71h0L33.6,27Zm13-1.32H12.6V17.19l.42.41a7.65,7.65,0,0,0,5.07,2.13V18.9a6.75,6.75,0,0,1-4.5-1.9l-.44-.43H37v6.89A2.25,2.25,0,0,1,34.73,25.7ZM13.1,25.2H34.73a1.74,1.74,0,0,0,1.74-1.74V17.07h-22a6.28,6.28,0,0,0,3.89,1.34h.26v1.82h-.26a8.08,8.08,0,0,1-5.23-1.89Zm-1.33.5H5.55a2.25,2.25,0,0,1-2.24-2.24V16.57H11.4L11,17a6.72,6.72,0,0,1-4.49,1.9v.83a7.63,7.63,0,0,0,4.88-2l.42-.38Zm-8-8.63v6.39A1.74,1.74,0,0,0,5.55,25.2h5.72V18.48a8.09,8.09,0,0,1-5,1.75H6V18.41h.25a6.3,6.3,0,0,0,3.89-1.34Zm34,2.29v-4.8l.4.33a2,2,0,0,1,.56,2.45Zm.5-3.58v1.34A1.54,1.54,0,0,0,38.3,15.78ZM2.49,18.42l-.41-.32a2,2,0,0,1-.56-2.45l1-2ZM2,15.86A1.54,1.54,0,0,0,2,17.2V15.84Zm35-.11H14.7l2.43-1a2.59,2.59,0,1,0-3.36-3.37L12.6,14.36V6.63H34.73A2.24,2.24,0,0,1,37,8.87Zm-19.68-.5H36.47V8.87a1.74,1.74,0,0,0-1.74-1.74H13.1v4.62l.21-.53a3.09,3.09,0,1,1,4,4Zm-7.44.5H3.31V8.87A2.24,2.24,0,0,1,5.55,6.63h6.22v7.26l-1-2.48a2.59,2.59,0,1,0-3.36,3.37Zm-6-.5H7.24a3.08,3.08,0,1,1,4-4l0,.07V7.13H5.55A1.74,1.74,0,0,0,3.81,8.87Zm7.73.29L7.73,14a1.78,1.78,0,0,1-1.1-1.86A1.76,1.76,0,0,1,10,11.71ZM8.38,11.11H8.21a1.26,1.26,0,0,0-.29,2.42l2.72,1.1L9.55,11.9A1.24,1.24,0,0,0,8.38,11.11ZM13,15.54l1.52-3.82A1.76,1.76,0,1,1,16.82,14Zm3.15-4.42A1.26,1.26,0,0,0,15,11.9l-1.09,2.74,2.72-1.1a1.26,1.26,0,0,0-.3-2.41ZM19.39,5.8H6.21L7.79,2.47a2,2,0,0,1,2.68-1ZM7,5.3H17.2L10.26,2A1.55,1.55,0,0,0,9.1,1.91a1.53,1.53,0,0,0-.86.78h0Z"/></svg>