<svg id="Layer_1" data-name="Layer 1" xmlns="http://www.w3.org/2000/svg" viewBox="0 0 39.2 31.36"><defs><style>.cls-1{fill:#43b9be;}</style></defs><rect class="cls-1" x="3.27" y="3.92" width="1.31" height="21.56"/><rect class="cls-1" x="6.53" y="3.92" width="1.96" height="18.29"/><rect class="cls-1" x="10.45" y="3.92" width="1.31" height="18.29"/><rect class="cls-1" x="13.07" y="3.92" width="1.96" height="18.29"/><rect class="cls-1" x="16.33" y="3.92" width="1.31" height="18.29"/><path class="cls-1" d="M.65,0A.61.61,0,0,0,0,.65V3.92H1.31V1.31H3.92V0Z"/><rect class="cls-1" x="18.94" y="3.92" width="1.31" height="21.56"/><rect class="cls-1" x="24.82" y="3.92" width="1.96" height="18.29"/><rect class="cls-1" x="28.74" y="3.92" width="1.31" height="18.29"/><rect class="cls-1" x="31.36" y="3.92" width="1.96" height="18.29"/><rect class="cls-1" x="34.62" y="3.92" width="1.31" height="21.56"/><path class="cls-1" d="M1.31,30.05V27.44H0V30.7a.62.62,0,0,0,.65.66H3.92V30.05Z"/><path class="cls-1" d="M37.89,27.44v2.61H35.28v1.31h3.26a.62.62,0,0,0,.66-.66V27.44Z"/><path class="cls-1" d="M38.54,0H35.28V1.31h2.61V3.92H39.2V.65A.62.62,0,0,0,38.54,0Z"/><rect class="cls-1" x="5.88" y="23.52" width="1.31" height="1.96"/><rect class="cls-1" x="8.49" y="23.52" width="1.31" height="1.96"/><rect class="cls-1" x="11.11" y="23.52" width="1.31" height="1.96"/><rect class="cls-1" x="13.72" y="23.52" width="1.31" height="1.96"/><rect class="cls-1" x="16.33" y="23.52" width="1.31" height="1.96"/><rect class="cls-1" x="21.56" y="23.52" width="1.31" height="1.96"/><rect class="cls-1" x="24.17" y="23.52" width="1.31" height="1.96"/><rect class="cls-1" x="26.78" y="23.52" width="1.31" height="1.96"/><rect class="cls-1" x="29.4" y="23.52" width="1.31" height="1.96"/><rect class="cls-1" x="32.01" y="23.52" width="1.31" height="1.96"/><rect class="cls-1" x="22.21" y="3.92" width="1.31" height="18.29"/></svg>