<svg id="Layer_1" data-name="Layer 1" xmlns="http://www.w3.org/2000/svg" viewBox="0 0 32.74 32.74"><defs><style>.cls-1{fill:#43b9be;}</style></defs><path class="cls-1" d="M5.28,8.45H3.17A.53.53,0,0,0,2.64,9v2.11a.53.53,0,0,0,.53.53H5.28a.53.53,0,0,0,.53-.53V9A.53.53,0,0,0,5.28,8.45Zm-.53,2.11h-1V9.51h1Z"/><path class="cls-1" d="M10.56,8.45H8.45A.53.53,0,0,0,7.92,9v2.11a.53.53,0,0,0,.53.53h2.11a.53.53,0,0,0,.53-.53V9A.53.53,0,0,0,10.56,8.45ZM10,10.56H9V9.51h1Z"/><path class="cls-1" d="M13.73,11.62h2.11a.53.53,0,0,0,.53-.53V9a.53.53,0,0,0-.53-.53H13.73A.53.53,0,0,0,13.2,9v2.11A.53.53,0,0,0,13.73,11.62Zm.53-2.11h1.05v1.05H14.26Z"/><path class="cls-1" d="M5.28,12.67H3.17a.53.53,0,0,0-.53.53v2.11a.53.53,0,0,0,.53.53H5.28a.53.53,0,0,0,.53-.53V13.2A.53.53,0,0,0,5.28,12.67Zm-.53,2.12h-1V13.73h1Z"/><path class="cls-1" d="M10.56,12.67H8.45a.53.53,0,0,0-.53.53v2.11a.53.53,0,0,0,.53.53h2.11a.53.53,0,0,0,.53-.53V13.2A.53.53,0,0,0,10.56,12.67ZM10,14.79H9V13.73h1Z"/><path class="cls-1" d="M13.73,15.84h2.11a.53.53,0,0,0,.53-.53V13.2a.53.53,0,0,0-.53-.53H13.73a.53.53,0,0,0-.53.53v2.11A.53.53,0,0,0,13.73,15.84Zm.53-2.11h1.05v1.06H14.26Z"/><path class="cls-1" d="M5.28,16.9H3.17a.53.53,0,0,0-.53.53v2.11a.53.53,0,0,0,.53.53H5.28a.53.53,0,0,0,.53-.53V17.43A.53.53,0,0,0,5.28,16.9ZM4.75,19h-1V18h1Z"/><path class="cls-1" d="M10.56,16.9H8.45a.53.53,0,0,0-.53.53v2.11a.53.53,0,0,0,.53.53h2.11a.53.53,0,0,0,.53-.53V17.43A.53.53,0,0,0,10.56,16.9ZM10,19H9V18h1Z"/><path class="cls-1" d="M19,11.62h2.11a.53.53,0,0,0,.53-.53V9a.53.53,0,0,0-.53-.53H19a.53.53,0,0,0-.53.53v2.11A.53.53,0,0,0,19,11.62Zm.53-2.11H20.6v1.05H19.54Z"/><path class="cls-1" d="M24.29,11.62H26.4a.53.53,0,0,0,.53-.53V9a.53.53,0,0,0-.53-.53H24.29a.53.53,0,0,0-.53.53v2.11A.53.53,0,0,0,24.29,11.62Zm.53-2.11h1.06v1.05H24.82Z"/><path class="cls-1" d="M21.24,12.87,19.5,15.05l-.64-.64-.75.75,1.06,1.06a.5.5,0,0,0,.37.15h0a.51.51,0,0,0,.38-.2l2.11-2.64Z"/><path class="cls-1" d="M16,17l-1.24,1-1.25-1-.68.81,1.1.92-1.1.91.68.81,1.25-1,1.24,1,.68-.81-1.1-.91,1.1-.92Z"/><path class="cls-1" d="M31.72,27.15l0,0A3.81,3.81,0,0,1,30,22a3.73,3.73,0,0,0-.4-4V3.7A1.59,1.59,0,0,0,28,2.11H26.93V1.58a1.59,1.59,0,0,0-3.17,0v.53H21.65V1.58a1.59,1.59,0,0,0-3.17,0v.53H16.37V1.58a1.59,1.59,0,0,0-3.17,0v.53H11.09V1.58a1.59,1.59,0,0,0-3.17,0v.53H5.81V1.58a1.59,1.59,0,0,0-3.17,0v.53H1.58A1.59,1.59,0,0,0,0,3.7v18a1.59,1.59,0,0,0,1.58,1.59H21.09a3.91,3.91,0,0,1,0,.49A3.78,3.78,0,0,1,19,27.13l-.06,0a1.81,1.81,0,0,0-1,1.64,1.83,1.83,0,0,0,1.83,1.83h3a2.64,2.64,0,0,0,5.18,0h3a1.84,1.84,0,0,0,.81-3.48ZM24.82,1.58a.53.53,0,0,1,1.06,0V3.7a.53.53,0,0,1-1.06,0Zm-5.28,0a.53.53,0,0,1,1.06,0V3.7a.53.53,0,0,1-1.06,0Zm-5.28,0a.52.52,0,0,1,.53-.52.52.52,0,0,1,.52.52V3.7a.52.52,0,0,1-.52.52.52.52,0,0,1-.53-.52ZM9,1.58a.53.53,0,0,1,1,0V3.7a.53.53,0,0,1-1,0Zm-5.28,0a.53.53,0,0,1,1,0V3.7a.53.53,0,0,1-1,0ZM1.58,3.17H2.64V3.7a1.59,1.59,0,0,0,3.17,0V3.17H7.92V3.7a1.59,1.59,0,0,0,3.17,0V3.17H13.2V3.7a1.59,1.59,0,0,0,3.17,0V3.17h2.11V3.7a1.59,1.59,0,0,0,3.17,0V3.17h2.11V3.7a1.59,1.59,0,0,0,3.17,0V3.17H28a.53.53,0,0,1,.53.53V6.34H1.06V3.7A.52.52,0,0,1,1.58,3.17Zm0,19a.52.52,0,0,1-.52-.53V7.39H28.52V17l0,0A4.76,4.76,0,0,0,27,16.13a2.11,2.11,0,1,0-3.24,0,4.76,4.76,0,0,0-1.51.87l-.58.5A3.75,3.75,0,0,0,20.72,22s0,.1.07.15Zm22.71-7.39a1.06,1.06,0,1,1,2.11,0,1.06,1.06,0,0,1-2.11,0Zm1.06,16.9a1.59,1.59,0,0,1-1.49-1.06h3A1.59,1.59,0,0,1,25.35,31.69Zm5.56-2.12H19.79a.78.78,0,0,1-.35-1.47l.06,0a4.82,4.82,0,0,0,2.68-4.34,4.94,4.94,0,0,0-.51-2.17,2.69,2.69,0,0,1,.65-3.26l.59-.5a3.76,3.76,0,0,1,4.88,0h0l.58.5A2.68,2.68,0,0,1,29,21.56a4.86,4.86,0,0,0,2.18,6.52l.05,0a.78.78,0,0,1-.35,1.47Z"/></svg>