<svg width="50" height="50" xmlns="http://www.w3.org/2000/svg">

 <g>
  <title>background</title>
  <rect fill="none" id="canvas_background" height="602" width="802" y="-1" x="-1"/>
 </g>
 <g>
  <title>Layer 1</title>
  <path fill="#84D3DB" id="svg_1" d="m22.495398,1.387106a1.0001,1.0001 0 0 0 -0.98633,0.83789l-0.97266,5.95508c-1.16958,0.34023 -2.28485,0.7993 -3.33593,1.37109l-4.91407,-3.50976a1.0001,1.0001 0 0 0 -1.28711,0.10547l-3.89062,3.88671a1.0001,1.0001 0 0 0 -0.11133,1.28125l3.45703,4.94532c-0.58061,1.05722 -1.04985,2.17877 -1.39843,3.35937l-5.92969,0.98633a1.0001,1.0001 0 0 0 -0.83399,0.98633l0,5.5a1.0001,1.0001 0 0 0 0.82422,0.98633l5.9336,1.05078c0.34669,1.17855 0.81295,2.30087 1.39453,3.35937l-3.5,4.89649a1.0001,1.0001 0 0 0 0.10547,1.28711l3.88867,3.89062a1.0001,1.0001 0 0 0 1.27929,0.11328l4.95508,-3.46875c1.05419,0.57517 2.17218,1.03762 3.34571,1.38086l0.99023,5.96289a1.0001,1.0001 0 0 0 0.98633,0.83594l5.5,0a1.0001,1.0001 0 0 0 0.98633,-0.82617l1.06054,-5.98633c1.16868,-0.3485 2.28142,-0.8178 3.33008,-1.39648l4.98828,3.5a1.0001,1.0001 0 0 0 1.28125,-0.11133l3.88867,-3.89258a1.0001,1.0001 0 0 0 0.10352,-1.29102l-3.55664,-4.9375c0.56867,-1.04363 1.02681,-2.14971 1.36719,-3.31054l6.01758,-1.05469a1.0001,1.0001 0 0 0 0.82617,-0.98633l0,-5.5a1.0001,1.0001 0 0 0 -0.83789,-0.98633l-6.00782,-0.98242c-0.34266,-1.15945 -0.80206,-2.26356 -1.37109,-3.30664l3.50781,-4.99805a1.0001,1.0001 0 0 0 -0.11133,-1.28125l-3.89062,-3.88867a1.0001,1.0001 0 0 0 -1.29102,-0.10351l-4.92382,3.54101c-1.04908,-0.57636 -2.16256,-1.04318 -3.33399,-1.38867l-1.04687,-5.98437a1.0001,1.0001 0 0 0 -0.98633,-0.82813l-5.5,0zm0.85156,2l3.80859,0l0.9961,5.68555a1.0001,1.0001 0 0 0 0.74219,0.79883c1.46251,0.36445 2.83609,0.94217 4.08984,1.70117a1.0001,1.0001 0 0 0 1.10156,-0.04297l4.67969,-3.36328l2.69336,2.69336l-3.33203,4.74804a1.0001,1.0001 0 0 0 -0.03906,1.08985c0.75149,1.25092 1.32145,2.61583 1.68554,4.07031a1.0001,1.0001 0 0 0 0.8086,0.74414l5.70703,0.93359l0,3.8086l-5.71875,1.0039a1.0001,1.0001 0 0 0 -0.79688,0.7461c-0.35987,1.45263 -0.93019,2.8175 -1.68164,4.06836a1.0001,1.0001 0 0 0 0.04492,1.09961l3.37891,4.68945l-2.69336,2.69531l-4.74023,-3.32617a1.0001,1.0001 0 0 0 -1.09375,-0.03516c-1.24752,0.759 -2.62252,1.33944 -4.08008,1.70899a1.0001,1.0001 0 0 0 -0.74024,0.79492l-1.00976,5.6875l-3.81446,0l-0.9414,-5.66211a1.0001,1.0001 0 0 0 -0.7461,-0.80664c-1.46338,-0.36069 -2.84314,-0.93754 -4.10546,-1.69531a1.0001,1.0001 0 0 0 -1.08789,0.03906l-4.70313,3.29492l-2.69531,-2.69922l3.32422,-4.64648a1.0001,1.0001 0 0 0 0.04101,-1.09961c-0.76602,-1.26576 -1.34535,-2.6454 -1.71094,-4.11523a1.0001,1.0001 0 0 0 -0.79492,-0.74219l-5.63086,-1l0,-3.81446l5.62696,-0.93554a1.0001,1.0001 0 0 0 0.80664,-0.74414c0.36872,-1.47491 0.94777,-2.85432 1.71093,-4.11719a1.0001,1.0001 0 0 0 -0.03515,-1.0918l-3.28516,-4.69531l2.69727,-2.69531l4.66211,3.33203a1.0001,1.0001 0 0 0 1.0957,0.04297c1.25566,-0.75415 2.63862,-1.32636 4.10352,-1.68555a1.0001,1.0001 0 0 0 0.74804,-0.81055l0.92383,-5.65234zm1.94336,13c-4.40643,0 -8,3.59357 -8,8c0,4.40643 3.59357,8 8,8c4.40643,0 8,-3.59357 8,-8c0,-4.40643 -3.59357,-8 -8,-8zm0,2c3.32555,0 6,2.67445 6,6c0,3.32555 -2.67445,6 -6,6c-3.32555,0 -6,-2.67445 -6,-6c0,-3.32555 2.67445,-6 6,-6z"/>
 </g>
</svg>