<svg xmlns="http://www.w3.org/2000/svg" width="23.465" height="56.287" viewBox="0 0 23.465 56.287"><defs><style>.a{fill:#d3d3d3;}</style></defs><path class="a" d="M367.208,461.518a5.233,5.233,0,1,1-5.234-5.231h0A5.233,5.233,0,0,1,367.208,461.518Z" transform="translate(-350.337 -456.287)"/><rect class="a" width="12.003" height="23.392" transform="translate(5.635 12.926)"/><path class="a" d="M358.224,520.387h0a2.464,2.464,0,0,1-2.463-2.464V495.07a2.462,2.462,0,0,1,2.462-2.462h0a2.462,2.462,0,0,1,2.462,2.462v22.853a2.464,2.464,0,0,1-2.462,2.464Z" transform="translate(-350.126 -464.1)"/><path class="a" d="M367.244,520.387h0a2.463,2.463,0,0,1-2.462-2.464V495.07a2.462,2.462,0,0,1,2.462-2.462h0a2.462,2.462,0,0,1,2.462,2.462v22.853a2.464,2.464,0,0,1-2.462,2.464Z" transform="translate(-352.067 -464.1)"/><path class="a" d="M350.417,493.648h0a1.837,1.837,0,0,1-1.835-1.836V474.785a1.834,1.834,0,0,1,1.834-1.834h0a1.834,1.834,0,0,1,1.834,1.834v17.027a1.835,1.835,0,0,1-1.834,1.836Z" transform="translate(-348.582 -459.871)"/><path class="a" d="M375.637,493.648h0a1.836,1.836,0,0,1-1.835-1.836V474.785a1.834,1.834,0,0,1,1.834-1.834h0a1.834,1.834,0,0,1,1.834,1.834v17.027a1.836,1.836,0,0,1-1.834,1.836Z" transform="translate(-354.007 -459.871)"/></svg>