<svg xmlns="http://www.w3.org/2000/svg" width="23.465" height="56.287" viewBox="0 0 23.465 56.287"><defs><style>.a{fill:#d3d3d3;}</style></defs><path class="a" d="M421.643,461.518a5.233,5.233,0,1,1-5.234-5.231h0A5.233,5.233,0,0,1,421.643,461.518Z" transform="translate(-404.772 -456.287)"/><path class="a" d="M412.659,520.387h0a2.464,2.464,0,0,1-2.463-2.464V495.07a2.462,2.462,0,0,1,2.462-2.462h0a2.462,2.462,0,0,1,2.462,2.462v22.853a2.464,2.464,0,0,1-2.462,2.464Z" transform="translate(-404.561 -464.1)"/><path class="a" d="M421.679,520.387h0a2.463,2.463,0,0,1-2.462-2.464V495.07a2.462,2.462,0,0,1,2.462-2.462h0a2.462,2.462,0,0,1,2.462,2.462v22.853a2.464,2.464,0,0,1-2.462,2.464Z" transform="translate(-406.502 -464.1)"/><path class="a" d="M404.852,492.863h0a1.837,1.837,0,0,1-1.835-1.836V474.785a1.834,1.834,0,0,1,1.834-1.834h0a1.834,1.834,0,0,1,1.834,1.834v16.242a1.835,1.835,0,0,1-1.834,1.836Z" transform="translate(-403.017 -459.871)"/><path class="a" d="M430.072,492.863h0a1.836,1.836,0,0,1-1.835-1.836V474.785a1.834,1.834,0,0,1,1.834-1.834h0a1.834,1.834,0,0,1,1.834,1.834v16.242a1.836,1.836,0,0,1-1.834,1.836Z" transform="translate(-408.442 -459.871)"/><path class="a" d="M417.823,472.756l-1.625,1.625-1.625-1.625H410.2v23.392h12V472.756Zm-1.625,15.8-1.381-1.61,1.016-11.545.365-.723.365.723,1.016,11.545Z" transform="translate(-404.561 -459.83)"/><ellipse class="a" cx="0.737" cy="0.737" rx="0.737" ry="0.737" transform="translate(20.554 33.936)"/><path class="a" d="M429.591,503.621v9.174h2.56l-1.274-9.536a.678.678,0,0,0-.608-.462h0A.763.763,0,0,0,429.591,503.621Z" transform="translate(-408.733 -466.291)"/></svg>