<svg xmlns="http://www.w3.org/2000/svg" width="24.053" height="54.931" viewBox="0 0 24.053 54.931"><defs><style>.a{fill:#d3d3d3;}</style></defs><path class="a" d="M529.95,472.756a5.231,5.231,0,0,1-8.109,0h-1.947v23.392h12V472.756Z" transform="translate(-514.257 -461.186)"/><path class="a" d="M522.355,520.387h0a2.464,2.464,0,0,1-2.463-2.464V495.07a2.462,2.462,0,0,1,2.462-2.462h0a2.462,2.462,0,0,1,2.462,2.462v22.853a2.463,2.463,0,0,1-2.462,2.464Z" transform="translate(-514.257 -465.456)"/><path class="a" d="M531.375,520.387h0a2.463,2.463,0,0,1-2.462-2.464V495.07a2.462,2.462,0,0,1,2.462-2.462h0a2.462,2.462,0,0,1,2.462,2.462v22.853a2.463,2.463,0,0,1-2.462,2.464Z" transform="translate(-516.198 -465.456)"/><path class="a" d="M514.548,493.648h0a1.837,1.837,0,0,1-1.835-1.836V474.785a1.835,1.835,0,0,1,1.835-1.834h0a1.835,1.835,0,0,1,1.835,1.834v17.027a1.836,1.836,0,0,1-1.835,1.836Z" transform="translate(-512.713 -461.228)"/><path class="a" d="M539.768,493.648h0a1.837,1.837,0,0,1-1.835-1.836V474.785a1.835,1.835,0,0,1,1.835-1.834h0a1.835,1.835,0,0,1,1.835,1.834v17.027a1.836,1.836,0,0,1-1.835,1.836Z" transform="translate(-518.138 -461.228)"/><path class="a" d="M531.339,463.246a5.233,5.233,0,1,1-5.234-5.231h0A5.232,5.232,0,0,1,531.339,463.246Z" transform="translate(-514.468 -458.015)"/><g transform="translate(19.067 31.991)"><path class="a" d="M541.992,521.713h-1.177V501.266a1.316,1.316,0,1,0-2.631,0v1.7h-1.177v-1.7a2.493,2.493,0,1,1,4.986,0Z" transform="translate(-537.006 -498.773)"/></g></svg>