<svg xmlns="http://www.w3.org/2000/svg" width="29.167" height="35" viewBox="0 0 29.167 35"><defs><style>.a{fill:#43b9be;}</style></defs><g transform="translate(-904.289 -164.662)"><path class="a" d="M930.182,174.14l1.547-.622a10.153,10.153,0,0,0-4.551-5.263l-.778,1.474a8.481,8.481,0,0,1,3.782,4.411Z"/><path class="a" d="M932.622,188.829h-1.869c-.026-.076-.054-.152-.085-.227a3.765,3.765,0,0,0-.819-1.225,1.923,1.923,0,0,1-.56-1.351v-8.864a7.5,7.5,0,0,0-6.372-7.416l1.329-3.987a.815.815,0,0,0,.043-.264.833.833,0,0,0-.833-.833h-10a.844.844,0,0,0-.264.043.833.833,0,0,0-.527,1.054l1.329,3.988a7.512,7.512,0,0,0-6.372,7.415v8.864a1.913,1.913,0,0,1-.56,1.351,3.761,3.761,0,0,0-.983,1.715,3.01,3.01,0,0,0-1.79,2.762v.037a3.063,3.063,0,0,0,1.187,2.436l5.958,4.633a3.345,3.345,0,0,0,2.046.7h9.976V198H913.48a1.673,1.673,0,0,1-1.022-.351l-5.959-4.633A1.422,1.422,0,0,1,907,190.53a1.762,1.762,0,0,1,1.541.291l2.754,2.295a2.9,2.9,0,0,0,1.709,1.415,2.616,2.616,0,0,0,.864.131h6.25V193h-6.25a1.275,1.275,0,0,1-1.144-.747,1.244,1.244,0,0,1-.106-.5,1.267,1.267,0,0,1,1.25-1.25h7.084a.833.833,0,0,0,.589-.244,5.042,5.042,0,0,1,6.215-.608l.7.464V198h-3.334v1.666h7.5a.834.834,0,0,0,.834-.833v-9.167A.834.834,0,0,0,932.622,188.829Zm-10.323-22.5-1.111,3.333h-5.465l-1.111-3.333Zm2.767,20.833h-.086a6.579,6.579,0,0,0-4.356,1.667h-6.752a2.914,2.914,0,0,0-2.755,1.966l-1.505-1.254a3.055,3.055,0,0,0-1.3-.637l-.016,0a2.813,2.813,0,0,0-.3-.05,2.076,2.076,0,0,1,.244-.294,3.588,3.588,0,0,0,1.048-2.53v-8.864a5.84,5.84,0,0,1,5.833-5.833h6.67a5.832,5.832,0,0,1,5.83,5.833v8.864a3.606,3.606,0,0,0,.572,1.936A6.492,6.492,0,0,0,925.066,187.162ZM931.789,198h-1.667v-7.5h1.667Z"/><path class="a" d="M919.116,186.451c-.071-.09-.141-.181-.212-.27l-3.227-4.035q-.413-.515-.824-1.029a.135.135,0,0,1-.033-.091c0-.319,0-.637,0-.955v-.045h.065c.368,0,.735,0,1.1,0a4.032,4.032,0,0,0,1.337-.221,2.343,2.343,0,0,0,.983-.64,1.825,1.825,0,0,0,.462-.989c.009-.067.01-.134.016-.205h-4.37l.021-.036c.234-.351.469-.7.7-1.055a.067.067,0,0,1,.065-.034h3.438l-.023-.051a1.7,1.7,0,0,0-.912-.857,3.1,3.1,0,0,0-.763-.2,8.7,8.7,0,0,0-1.271-.069h-1.256l.013-.026.718-1.077c.007-.011.025-.016.04-.022a.058.058,0,0,1,.023,0h7.283l-.018.031-.709,1.067a.055.055,0,0,1-.054.028H919.8c.007.01.01.016.015.022a2.478,2.478,0,0,1,.537,1.106c.012.057,0,.05.061.05H922.5l-.024.037-.7,1.062a.055.055,0,0,1-.052.026h-1.3c-.025,0-.037,0-.041.033a2.948,2.948,0,0,1-.615,1.421,3.534,3.534,0,0,1-1.067.886,4.669,4.669,0,0,1-1.394.495,5.566,5.566,0,0,1-.7.086l-.017,0,.021.029,3.851,4.813.572.717Z"/></g></svg>