<svg xmlns="http://www.w3.org/2000/svg" width="35.04" height="35" viewBox="0 0 35.04 35"><defs><style>.a{fill:#43b9be;}</style></defs><g transform="translate(-1002.792 -219.155)"><path class="a" d="M1005.479,223.453a18.256,18.256,0,0,1,2.764-2.266l1.048-.7,6.22,6.22-1.5,1.5-5.689-5.688-.825.825,5.688,5.688-1.231,1.231a5.619,5.619,0,0,1-3.586-.676l-.578,1.014a6.8,6.8,0,0,0,3.36.888c.054,0,.107,0,.161,0a1.856,1.856,0,0,0,.532,1.519l12.136,12.136a1.861,1.861,0,0,0,1.6.522,6.744,6.744,0,0,0,.635,3.046l1.057-.494a5.593,5.593,0,0,1-.454-3.284l3.455-3.454,3.757,3.757.825-.825-4.17-4.169a.583.583,0,0,0-.825,0h0l-4.076,4.076a.693.693,0,0,1-.981,0l-12.136-12.136a.693.693,0,0,1,0-.981l4.076-4.076a.583.583,0,0,0,0-.825h0l-6.971-6.971a.583.583,0,0,0-.736-.072l-1.445.963a19.328,19.328,0,0,0-2.942,2.412,6.181,6.181,0,0,0-1.108,1.505l1.033.542A5.027,5.027,0,0,1,1005.479,223.453Z"/><path class="a" d="M1035.653,245.2l-.825.825,1.67,1.67-.7,1.048c-.166.247-.337.492-.515.732l-5.255-5.255-.825.825,5.35,5.35c-.326.384-.666.756-1.021,1.112a5.031,5.031,0,0,1-4.644,1.363,28.8,28.8,0,0,1-14.271-7.79l-2.713-2.713a28.793,28.793,0,0,1-7.791-14.271,5.073,5.073,0,0,1,.056-2.375l-1.127-.3a6.244,6.244,0,0,0-.069,2.924,29.966,29.966,0,0,0,8.106,14.848l2.713,2.713a30.02,30.02,0,0,0,5.9,4.585c-.116.311-.217.651-.315.985a.857.857,0,1,1-1.162,0c-.341-1.154-.693-2.348-1.7-2.348s-1.358,1.194-1.7,2.347a.857.857,0,1,1-1.162,0c-.341-1.153-.694-2.346-1.7-2.346s-1.359,1.193-1.7,2.347a.857.857,0,1,1-1.162,0c-.341-1.154-.693-2.347-1.7-2.347s-1.359,1.193-1.7,2.347a.857.857,0,1,1-1.162,0c-.341-1.154-.694-2.348-1.7-2.348v1.167a.1.1,0,0,1-.041-.009,4.487,4.487,0,0,1,.622,1.52c.341,1.154.694,2.348,1.7,2.348s1.359-1.194,1.7-2.348a.857.857,0,1,1,1.161,0c.341,1.154.694,2.348,1.7,2.348s1.358-1.194,1.7-2.348a.857.857,0,1,1,1.162,0c.341,1.154.693,2.347,1.7,2.347s1.359-1.193,1.7-2.347a.857.857,0,1,1,1.161,0c.341,1.154.694,2.347,1.7,2.347s1.359-1.193,1.7-2.348c.074-.248.148-.5.227-.73q.42.227.847.442c.029.1.058.192.086.287.341,1.156.694,2.35,1.7,2.35.73,0,1.117-.658,1.357-1.282a30.175,30.175,0,0,0,3.93,1.14,6.281,6.281,0,0,0,1.332.143,6.185,6.185,0,0,0,4.384-1.823,19.331,19.331,0,0,0,2.412-2.941l.964-1.446a.585.585,0,0,0-.073-.736Zm-12.3,7.761a2.6,2.6,0,0,1-.359-.777c.207.091.416.179.625.265A1.685,1.685,0,0,1,1023.354,252.962Z"/><path class="a" d="M1007.368,233.991c.246.512.512,1.022.79,1.517l1.017-.571c-.266-.474-.52-.962-.756-1.452Z"/><path class="a" d="M1014.087,242.9l.825-.824-1.356-1.356a26.6,26.6,0,0,1-3.537-4.38l-.98.633a27.737,27.737,0,0,0,3.692,4.571Z"/><path class="a" d="M1015.666,222.072a5.27,5.27,0,0,1,3.778,1.844,9.918,9.918,0,1,0,17.894,8.254l-1.109-.364a8.751,8.751,0,1,1-15.594-7.588.583.583,0,0,0,0-.649,5.943,5.943,0,0,0-3.114-2.324,6.715,6.715,0,0,1,5.186.438.579.579,0,0,0,.567-.029,8.75,8.75,0,0,1,13.392,7.417,8.86,8.86,0,0,1-.153,1.642l1.146.217a10.081,10.081,0,0,0,.174-1.859,9.918,9.918,0,0,0-14.9-8.572,7.835,7.835,0,0,0-7.572.5.583.583,0,0,0,.309,1.078Z"/><path class="a" d="M1026.166,235.488h3.5a.583.583,0,0,0,.584-.583v-3.5h3.5a.583.583,0,0,0,.584-.584v-3.5a.583.583,0,0,0-.584-.584h-3.5v-3.5a.583.583,0,0,0-.584-.583h-3.5a.583.583,0,0,0-.584.583v3.5h-3.5a.583.583,0,0,0-.583.584v3.5a.583.583,0,0,0,.583.584h3.5v3.5A.583.583,0,0,0,1026.166,235.488Zm-3.5-5.25V227.9h3.5a.583.583,0,0,0,.583-.583v-3.5h2.333v3.5a.583.583,0,0,0,.583.583h3.5v2.333h-3.5a.583.583,0,0,0-.583.583v3.5h-2.333v-3.5a.583.583,0,0,0-.583-.583Z"/><path class="a" d="M1032.349,239.232l.467,1.069a12.292,12.292,0,0,0,4.9-3.879l-.933-.7A11.134,11.134,0,0,1,1032.349,239.232Z"/></g></svg>