<svg xmlns="http://www.w3.org/2000/svg" width="35" height="35" viewBox="0 0 35 35"><defs><style>.a{fill:#43b9be;}</style></defs><g transform="translate(-1222.579 -164.662)"><path class="a" d="M1229.579,170.5h.584a.584.584,0,0,0,0-1.167h-.584a.584.584,0,0,0,0,1.167Z"/><path class="a" d="M1232.5,170.5h7.583a.584.584,0,0,0,0-1.167H1232.5a.584.584,0,1,0,0,1.167Z"/><path class="a" d="M1252.284,183.329H1251a2.736,2.736,0,0,0-.783.117.4.4,0,0,0-.059.017,2.7,2.7,0,0,0-.847.479,6.14,6.14,0,0,1,3.313-4.779.584.584,0,0,0-.593-1,7.685,7.685,0,0,0-3.456,3.873c-.031-.1-.064-.2-.1-.292a4.873,4.873,0,0,0-1.4-1.983v-9.843a1.75,1.75,0,0,0-1.75-1.75h-2.441a1.749,1.749,0,0,0-1.642-1.167h-3.125a3.488,3.488,0,0,0-6.583,0h-3.125a1.75,1.75,0,0,0-1.643,1.167h-2.441a1.75,1.75,0,0,0-1.75,1.75v28a1.75,1.75,0,0,0,1.75,1.75h21a1.708,1.708,0,0,0,.784-.189,7.175,7.175,0,0,0,1.626.189h2.18a7.934,7.934,0,0,0,7.66-8.166V188.97A5.483,5.483,0,0,0,1252.284,183.329Zm-4.9-1.172a7.772,7.772,0,0,1,.326,1.4c-.058-.025-.11-.058-.169-.077a2.651,2.651,0,0,0-.9-.156h-1.276c-.16,0-.317.011-.474.026-.014,0-.025-.014-.04-.017-1.931-.386-1.9-2.639-1.831-3.445a9.336,9.336,0,0,1,1.121-.062h.012a3.44,3.44,0,0,1,3.226,2.328Zm-5.927,14.005h-15.382v-24.5h.691a1.75,1.75,0,0,0,1.643,1.166h12.833a1.749,1.749,0,0,0,1.642-1.166h.691v7.008c-1.507.054-1.606.473-1.66.713-.2,1.2-.1,3.325,1.288,4.447a5.668,5.668,0,0,0-3.128,5.139V191.5A8.486,8.486,0,0,0,1241.461,196.162Zm4.451-26.249v9.128a4.67,4.67,0,0,0-1.166-.32v-7.058a1.167,1.167,0,0,0-1.167-1.167H1243v-1.167h2.333A.583.583,0,0,1,1245.912,169.913Zm-17.5-1.75h3.558a.374.374,0,0,0,.058-.013.546.546,0,0,0,.107-.021.508.508,0,0,0,.107-.045.559.559,0,0,0,.229-.228.531.531,0,0,0,.045-.107.359.359,0,0,0,.023-.054,2.333,2.333,0,0,1,4.572,0,.527.527,0,0,0,.025.062.647.647,0,0,0,.033.083.529.529,0,0,0,.071.106.414.414,0,0,0,.168.138.46.46,0,0,0,.278.079h3.559a.583.583,0,0,1,.583.583v2.333a.584.584,0,0,1-.583.584h-12.833a.584.584,0,0,1-.584-.584v-2.333A.583.583,0,0,1,1228.413,168.163Zm-4.084,30.333a.584.584,0,0,1-.583-.584v-28a.583.583,0,0,1,.583-.584h2.334V170.5h-.584a1.166,1.166,0,0,0-1.166,1.167v24.5a1.166,1.166,0,0,0,1.166,1.167h16.309a7.822,7.822,0,0,0,1.424,1.167Zm32.083-7a6.769,6.769,0,0,1-6.493,7h-2.18a6.769,6.769,0,0,1-6.493-7V188.97a4.317,4.317,0,0,1,4.128-4.474h1.286a1.492,1.492,0,0,1,.49.087,1.748,1.748,0,0,1,1.1,1.668v.578a.583.583,0,0,0,1.166,0v-.58a1.747,1.747,0,0,1,1.089-1.67l.028-.008a1.573,1.573,0,0,1,.466-.076h1.288a4.319,4.319,0,0,1,4.129,4.475Z"/><path class="a" d="M1244.561,185.692a3.471,3.471,0,0,0-2.149,3.47.583.583,0,1,0,1.167,0,2.348,2.348,0,0,1,1.356-2.364.584.584,0,0,0-.374-1.106Z"/><path class="a" d="M1230.163,174.579h-1.75a1.167,1.167,0,0,0-1.167,1.167v1.75a1.167,1.167,0,0,0,1.167,1.167h1.75a1.167,1.167,0,0,0,1.166-1.167v-1.75A1.167,1.167,0,0,0,1230.163,174.579Zm-1.75,2.917v-1.75h1.75v1.75Z"/><path class="a" d="M1230.163,179.829h-1.75a1.167,1.167,0,0,0-1.167,1.167v1.75a1.167,1.167,0,0,0,1.167,1.167h1.75a1.167,1.167,0,0,0,1.166-1.167V181A1.167,1.167,0,0,0,1230.163,179.829Zm-1.75,2.917V181h1.75v1.75Z"/><path class="a" d="M1230.163,185.079h-1.75a1.167,1.167,0,0,0-1.167,1.167V188a1.166,1.166,0,0,0,1.167,1.166h1.75a1.166,1.166,0,0,0,1.166-1.166v-1.75A1.167,1.167,0,0,0,1230.163,185.079Zm-1.75,2.917v-1.75h1.75V188Z"/><path class="a" d="M1230.163,190.329h-1.75a1.166,1.166,0,0,0-1.167,1.167v1.75a1.166,1.166,0,0,0,1.167,1.166h1.75a1.166,1.166,0,0,0,1.166-1.166V191.5A1.166,1.166,0,0,0,1230.163,190.329Zm-1.75,2.917V191.5h1.75v1.75Z"/><path class="a" d="M1233.079,177.5h8.167a.584.584,0,0,0,0-1.167h-8.167a.584.584,0,0,0,0,1.167Z"/><path class="a" d="M1239.5,181.579h-6.417a.584.584,0,0,0,0,1.167h6.417a.584.584,0,0,0,0-1.167Z"/><path class="a" d="M1238.329,186.829h-5.25a.584.584,0,0,0,0,1.167h5.25a.584.584,0,0,0,0-1.167Z"/><path class="a" d="M1238.329,192.079h-5.25a.584.584,0,0,0,0,1.167h5.25a.584.584,0,0,0,0-1.167Z"/></g></svg>