<svg xmlns="http://www.w3.org/2000/svg" width="24.996" height="24.966" viewBox="0 0 24.996 24.966"><defs><style>.a,.b{fill:#20744a;}.a,.c{fill-rule:evenodd;}.c{fill:#fff;}</style></defs><g transform="translate(-454.872 -151.837)"><g transform="translate(454.872 151.837)"><path class="a" d="M478.779,153.969h-9.043v-2.132l-14.865,2.3v20.111l14.865,2.56v-3.157h9.043a1.037,1.037,0,0,0,1.089-.979V154.948A1.037,1.037,0,0,0,478.779,153.969Zm.143,18.861h-9.216l-.015-1.686h2.22V169.18h-2.239l-.01-1.162h2.249v-1.964h-2.265l-.012-1.162h2.277v-1.964h-2.284v-1.162h2.284V159.8h-2.284v-1.16h2.284v-1.964h-2.284v-1.786h9.294Z" transform="translate(-454.872 -151.837)"/><rect class="b" width="3.859" height="1.964" transform="translate(18.29 4.841)"/><rect class="b" width="3.859" height="1.964" transform="translate(18.29 7.966)"/><rect class="b" width="3.859" height="1.964" transform="translate(18.29 11.092)"/><rect class="b" width="3.859" height="1.964" transform="translate(18.29 14.217)"/><rect class="b" width="3.859" height="1.964" transform="translate(18.29 17.343)"/></g><path class="c" d="M457.269,156.622l1.916-.109,1.2,3.312,1.423-3.448,1.916-.109-2.326,4.7,2.326,4.713-2.025-.137-1.368-3.593-1.368,3.456-1.861-.164,2.162-4.163Z" transform="translate(1.484 2.943)"/></g></svg>