<svg xmlns="http://www.w3.org/2000/svg" width="40.479" height="71.534" viewBox="0 0 40.479 71.534"><defs><style>.a{fill:#00bfa5;}</style></defs><g transform="translate(0)"><path class="a" d="M343.016,153.667a6.65,6.65,0,1,1-6.65-6.648A6.65,6.65,0,0,1,343.016,153.667Z" transform="translate(-316.181 -147.019)"/><rect class="a" width="15.255" height="29.728" transform="translate(12.557 16.428)"/><path class="a" d="M332.263,203.941h0a3.13,3.13,0,0,1-3.131-3.131V171.766a3.13,3.13,0,0,1,3.131-3.129h0a3.129,3.129,0,0,1,3.129,3.129V200.81A3.13,3.13,0,0,1,332.263,203.941Z" transform="translate(-316.576 -132.407)"/><path class="a" d="M322.939,179.359h0a2.6,2.6,0,0,1-.95-3.551L332.2,158.121a2.6,2.6,0,0,1,3.55-.952h0a2.6,2.6,0,0,1,.952,3.551L326.49,178.407A2.6,2.6,0,0,1,322.939,179.359Z" transform="translate(-321.64 -140.393)"/><path class="a" d="M350.708,179.359h0a2.6,2.6,0,0,0,.952-3.551l-10.211-17.686a2.6,2.6,0,0,0-3.55-.952h0a2.6,2.6,0,0,0-.952,3.551l10.211,17.686A2.6,2.6,0,0,0,350.708,179.359Z" transform="translate(-311.529 -140.393)"/><path class="a" d="M337.63,203.941h0a3.13,3.13,0,0,1-3.129-3.131V171.766a3.129,3.129,0,0,1,3.129-3.129h0a3.129,3.129,0,0,1,3.129,3.129V200.81A3.13,3.13,0,0,1,337.63,203.941Z" transform="translate(-312.947 -132.407)"/></g><g transform="translate(5.321 36.585)"><path class="a" d="M332.161,168.848h8.887v16.062H324.815Z" transform="translate(-324.815 -168.848)"/><path class="a" d="M341.252,168.848h-7.481v16.062H348.6Z" transform="translate(-318.761 -168.848)"/></g></svg>