<svg xmlns="http://www.w3.org/2000/svg" width="56.323" height="42.927" viewBox="0 0 56.323 42.927"><defs><style>.a{fill:#50c4ca;}</style></defs><g transform="translate(-367.981 -68.897)"><path class="a" d="M423.424,86.308h-2.64a.879.879,0,0,0-.88.88v3.517H382.056l-1.76-.025v.025h-7.915V87.186h.049v-1.76h-.049V74.855a.879.879,0,0,0-.88-.88h-2.64a.879.879,0,0,0-.88.88v36.089a.879.879,0,0,0,.88.88h2.64a.879.879,0,0,0,.88-.88v-4.4H419.9v4.4a.879.879,0,0,0,.88.88h2.64a.879.879,0,0,0,.88-.88V87.188A.879.879,0,0,0,423.424,86.308Zm-52.8-.028c0,.01-.005.017-.005.026s.005.017.005.026v23.732h-.88V75.735h.88Zm1.76,6.185h9.3V94.23h-9.3ZM419.9,104.787H372.381v-8.8H419.9Zm0-10.557h-2.953V92.465H419.9Zm2.64,15.834h-.88v-22h.88Z"/><path class="a" d="M415.649,99.328H382.935a1.279,1.279,0,0,1-1.277-1.278V86.566a1.279,1.279,0,0,1,1.277-1.277h32.714a1.279,1.279,0,0,1,1.278,1.277V98.05A1.279,1.279,0,0,1,415.649,99.328ZM383.2,97.787h32.188V86.829H383.2Z"/><path class="a" d="M412.449,95.823H386.136a1.156,1.156,0,0,1-1.155-1.156V86.444a1.156,1.156,0,0,1,1.155-1.155h26.313a1.156,1.156,0,0,1,1.155,1.155v8.223A1.156,1.156,0,0,1,412.449,95.823Zm-25.928-1.54h25.543V86.829H386.521Z"/><path class="a" d="M375.671,92.136a4.793,4.793,0,1,1,4.793-4.794A4.8,4.8,0,0,1,375.671,92.136Zm0-8.047a3.254,3.254,0,1,0,3.253,3.253A3.257,3.257,0,0,0,375.671,84.089Z"/><rect class="a" width="2.734" height="1.54" transform="translate(379.694 86.133)"/><path class="a" d="M411.019,72.514H387.566a1.164,1.164,0,0,1-1.162-1.163V70.06a1.164,1.164,0,0,1,1.162-1.163h23.453a1.164,1.164,0,0,1,1.162,1.163v1.291A1.164,1.164,0,0,1,411.019,72.514Zm-23.075-1.54h22.7v-.537h-22.7Z"/><rect class="a" width="1.54" height="14.315" transform="translate(403.949 71.744)"/><path class="a" d="M395.419,79.743a2.839,2.839,0,0,1-2.835-2.836V74.071h5.671v2.836A2.84,2.84,0,0,1,395.419,79.743Zm-1.3-4.132v1.3a1.3,1.3,0,0,0,2.591,0v-1.3Z"/><rect class="a" width="1.54" height="3.097" transform="translate(394.649 71.744)"/><rect class="a" width="1.54" height="7.086" transform="translate(394.649 78.972)"/></g></svg>