<svg xmlns="http://www.w3.org/2000/svg" width="45.922" height="35" viewBox="0 0 45.922 35"><defs><style>.a{fill:#43b9be;}</style></defs><path class="a" d="M1077.1,82.54h-2.153a.717.717,0,0,0-.717.718v2.867H1071.8V82.75a1.042,1.042,0,0,0-1.041-1.041h-8.284V71.293h4.508a.948.948,0,0,0,.948-.947V69.292a.948.948,0,0,0-.948-.947H1047.86a.949.949,0,0,0-.948.947v1.054a.949.949,0,0,0,.948.947h5.775v1.27h-1.685v2.312a2.309,2.309,0,0,0,1.685,2.215v4.619h-9.551a1.036,1.036,0,0,0-.97.689h-1.186a3.882,3.882,0,0,0-6.449-1.843V73.2a.717.717,0,0,0-.718-.717h-2.153a.717.717,0,0,0-.717.717v29.425a.717.717,0,0,0,.717.718h2.153a.717.717,0,0,0,.718-.718V99.042h38.747v3.585a.717.717,0,0,0,.717.718h2.153a.717.717,0,0,0,.717-.718V83.258A.717.717,0,0,0,1077.1,82.54Zm-6.553,3.585h-1.453v-3.16h1.453Zm-27.5,0-1.111-.016v.02h-.992a3.891,3.891,0,0,0,1.1-2.471h1Zm-7.564,1.439h7.564V89h-7.564Zm8.819,2.875h26.245V91.9H1044.3Zm3.87-20.835h18.505v.437h-18.505Zm5.038,5.275V73.819h2.113v1.056a1.056,1.056,0,0,1-2.113,0Zm1.684,2.215a2.309,2.309,0,0,0,1.685-2.215V72.563h-1.685v-1.27h6.327V81.709h-6.327Zm12.944,5.875v3.16h-20.827v-3.16Zm-22.083,0v3.16H1044.3v-3.16Zm-7.59-2.234a2.653,2.653,0,1,1-2.653,2.652A2.655,2.655,0,0,1,1038.161,80.731Zm-4.118,1.786c0,.008,0,.014,0,.021s0,.015,0,.022v19.35h-.717V73.92h.717Zm40.183,15.09h-38.747V90.435h7.564v1.679a1.042,1.042,0,0,0,1.041,1.042h26.673a1.042,1.042,0,0,0,1.041-1.042V90.435h2.428Zm0-8.607h-2.408V87.56h2.408Zm2.152,12.91h-.717V83.975h.717Z" transform="translate(-1031.891 -68.345)"/></svg>