<svg xmlns="http://www.w3.org/2000/svg" width="40.58" height="71.713" viewBox="0 0 40.58 71.713"><defs><style>.a{fill:#15536e;}</style></defs><path class="a" d="M343.049,99.028a6.667,6.667,0,1,1-6.667-6.665A6.667,6.667,0,0,1,343.049,99.028Z" transform="translate(-316.147 -92.363)"/><rect class="a" width="15.293" height="29.803" transform="translate(12.588 16.469)"/><path class="a" d="M332.27,149.373h0a3.139,3.139,0,0,1-3.138-3.139V117.118a3.137,3.137,0,0,1,3.138-3.137h0a3.137,3.137,0,0,1,3.137,3.137v29.116A3.138,3.138,0,0,1,332.27,149.373Z" transform="translate(-316.545 -77.66)"/><path class="a" d="M322.942,124.759h0a2.607,2.607,0,0,1-.953-3.56l10.237-17.73a2.6,2.6,0,0,1,3.559-.954h0a2.607,2.607,0,0,1,.954,3.56L326.5,123.8A2.607,2.607,0,0,1,322.942,124.759Z" transform="translate(-321.64 -85.696)"/><path class="a" d="M350.743,124.759h0a2.607,2.607,0,0,0,.954-3.56l-10.237-17.73a2.605,2.605,0,0,0-3.559-.954h0a2.607,2.607,0,0,0-.954,3.56l10.237,17.73A2.605,2.605,0,0,0,350.743,124.759Z" transform="translate(-311.467 -85.696)"/><path class="a" d="M337.638,149.373h0a3.138,3.138,0,0,1-3.137-3.139V117.118a3.137,3.137,0,0,1,3.137-3.137h0a3.137,3.137,0,0,1,3.137,3.137v29.116A3.138,3.138,0,0,1,337.638,149.373Z" transform="translate(-312.893 -77.66)"/></svg>