<svg xmlns="http://www.w3.org/2000/svg" width="33.792" height="35.001" viewBox="0 0 33.792 35.001"><defs><style>.a{fill:#43b9be;}</style></defs><g transform="translate(-950.108 -219.155)"><path class="a" d="M961.175,237.022a3.456,3.456,0,0,0,1.306-.592c1.221-.883,1.763-2.334,1.209-3.241-.6-.988-2.249-.921-3.515.2a3.956,3.956,0,0,0-1.469,3.285,4.437,4.437,0,0,0,1.844,3.517,9.12,9.12,0,0,1,2.653-1.4l.013-.005A3.557,3.557,0,0,1,961.175,237.022Zm-.2-2.792a.6.6,0,1,1,.6.613A.607.607,0,0,1,960.98,234.23Z"/><path class="a" d="M975.324,236.678a3.966,3.966,0,0,0-1.472-3.287c-1.265-1.122-2.913-1.191-3.516-.2-.552.907-.012,2.358,1.209,3.241a3.463,3.463,0,0,0,1.306.592,2.754,2.754,0,0,1-1.3,1.391c-.954.57-1.47.64-7.575,2.667-2.259.768-3.6,2.293-3.6,4.081a3.749,3.749,0,0,0,1.554,2.975,7.559,7.559,0,0,1,2.108-1.5c-.955-.482-1.25-.848-1.25-1.474,0-1.034,2.067-1.625,3.02-1.94v2.617l2.414-1.077v-1.539c.955.317,3.016.907,3.016,1.939,0,1.716-4.915,2.728-7.006,4.17a3.189,3.189,0,0,0-1.561,2.65,2.27,2.27,0,0,0,1.13,2.1.35.35,0,0,0,.523-.448c-.7-1.4.043-2.1,1.486-2.707v2.025a1.207,1.207,0,1,0,2.414,0v-2.024c1.387.582,2.259,1.4,1.483,2.706a.35.35,0,0,0,.522.448,2.291,2.291,0,0,0,1.106-2.08,3.315,3.315,0,0,0-1.552-2.656c2.055-.742,3.872-1.991,3.872-4.177a4.2,4.2,0,0,0-2.618-3.67,8.452,8.452,0,0,0,1.683-.775A4.672,4.672,0,0,0,975.324,236.678Zm-2.879-1.835a.613.613,0,1,1,.6-.613A.609.609,0,0,1,972.445,234.843Z"/><path class="a" d="M983.9,221.571h-8.265a5.319,5.319,0,0,0-3.885,1.764c-1.137,1.137-1.728,3.665-3.539,3.665v-3.352a2.414,2.414,0,1,0-2.414,0v14.383c.745-.238,1.563-.5,2.414-.773v-6.045A2.68,2.68,0,0,0,969.416,230a2.476,2.476,0,0,0,2.108,1.226,2.4,2.4,0,0,0,2.093-1.234,4.039,4.039,0,0,0,5.456.027l-2.051-2.05.941.389a3.62,3.62,0,0,0,4.73-1.959l-2.913-1.207C982.6,225.192,983.9,223.421,983.9,221.571Z"/><path class="a" d="M962.258,223.335a5.315,5.315,0,0,0-3.885-1.764h-8.265c0,1.85,1.3,3.621,4.121,3.621l-2.914,1.207a3.621,3.621,0,0,0,4.731,1.959l.941-.389-2.051,2.05a4.038,4.038,0,0,0,5.455-.027,2.4,2.4,0,0,0,2.094,1.234h.027a2.206,2.206,0,0,0,2.08-2.258V226.54C963.641,225.76,963.1,224.173,962.258,223.335Z"/></g></svg>