<svg xmlns="http://www.w3.org/2000/svg" width="26.833" height="35" viewBox="0 0 26.833 35"><defs><style>.a{fill:#43b9be;}</style></defs><g transform="translate(-905.456 -116.74)"><path class="a" d="M931.706,116.74H906.039a.583.583,0,0,0-.583.583v33.833a.584.584,0,0,0,.583.584h18.667a.585.585,0,0,0,.412-.171l7-7a.587.587,0,0,0,.171-.413V117.323A.583.583,0,0,0,931.706,116.74Zm-6.417,33.008V144.74H930.3Zm5.833-6.175h-6.416a.583.583,0,0,0-.584.583v6.417h-17.5V117.906h24.5Z"/><path class="a" d="M909.539,134.24h2.333a.584.584,0,1,0,0-1.167h-2.333a.584.584,0,0,0,0,1.167Z"/><path class="a" d="M913.622,133.656a.584.584,0,0,0,.584.584h14a.584.584,0,0,0,0-1.167h-14A.583.583,0,0,0,913.622,133.656Z"/><path class="a" d="M909.539,137.74h2.333a.584.584,0,1,0,0-1.167h-2.333a.584.584,0,0,0,0,1.167Z"/><path class="a" d="M928.206,136.573h-14a.584.584,0,1,0,0,1.167h14a.584.584,0,0,0,0-1.167Z"/><path class="a" d="M909.539,141.24h2.333a.584.584,0,1,0,0-1.167h-2.333a.584.584,0,0,0,0,1.167Z"/><path class="a" d="M928.206,140.073h-14a.584.584,0,1,0,0,1.167h14a.584.584,0,0,0,0-1.167Z"/><path class="a" d="M909.539,127.823a.583.583,0,0,0,.583-.583v-2.675l2.092,2.091-2.063,2.062a.584.584,0,0,0,.811.84l.014-.015,2.063-2.062,2.063,2.062a.583.583,0,1,0,.839-.81l-.015-.015-2.062-2.062,2.062-2.062a.583.583,0,1,0-.81-.839l-.014.014-2.063,2.062-2.092-2.091h.925a1.75,1.75,0,0,0,0-3.5h-2.333a.583.583,0,0,0-.583.583v6.417A.583.583,0,0,0,909.539,127.823Zm.583-6.417h1.75a.584.584,0,1,1,0,1.167h-1.75Z"/></g></svg>