<svg xmlns="http://www.w3.org/2000/svg" width="29.635" height="29.635" viewBox="0 0 29.635 29.635"><defs><style>.a{fill:#43b9be;}</style></defs><g transform="translate(-1222.651 -219.299)"><g transform="translate(1222.651 219.299)"><path class="a" d="M1237.469,219.3a14.818,14.818,0,1,0,14.817,14.818A14.834,14.834,0,0,0,1237.469,219.3Zm0,28.4a13.583,13.583,0,1,1,13.583-13.583A13.6,13.6,0,0,1,1237.469,247.7Z" transform="translate(-1222.651 -219.299)"/><path class="a" d="M1245.318,235.12l-8.644-5.556a.617.617,0,0,0-.951.519V241.2a.617.617,0,0,0,.951.519l8.644-5.556a.618.618,0,0,0,0-1.039Zm-8.361,4.945v-8.851l6.885,4.425Z" transform="translate(-1224.609 -220.822)"/></g></g></svg>