<svg xmlns="http://www.w3.org/2000/svg" width="35" height="35" viewBox="0 0 35 35"><defs><style>.a{fill:#43b9be;}</style></defs><g transform="translate(-1058.331 -219.155)"><path class="a" d="M1075.831,243.8a6.433,6.433,0,0,0,6.425-6.426V225.581a6.425,6.425,0,1,0-12.851,0v11.794A6.433,6.433,0,0,0,1075.831,243.8Zm0-23.279a5.065,5.065,0,0,1,5.058,5.059v5.65h-10.117v-5.65A5.065,5.065,0,0,1,1075.831,220.522Zm-5.059,12.076h10.117v4.777a5.059,5.059,0,1,1-10.117,0Z"/><path class="a" d="M1074.167,228.132h3.327a.684.684,0,0,0,0-1.367h-3.327a.684.684,0,0,0,0,1.367Z"/><path class="a" d="M1074.167,225.584h3.327a.684.684,0,0,0,0-1.367h-3.327a.684.684,0,0,0,0,1.367Z"/><path class="a" d="M1084.583,236.692a.683.683,0,0,0-.684.683,8.069,8.069,0,1,1-16.137,0,.683.683,0,0,0-1.367,0,9.452,9.452,0,0,0,7.42,9.219v3.455h-.054a3.427,3.427,0,0,0-3.422,3.423.683.683,0,0,0,.684.683h9.615a.684.684,0,0,0,.684-.683,3.427,3.427,0,0,0-3.422-3.423h-.054v-3.455a9.452,9.452,0,0,0,7.42-9.219A.683.683,0,0,0,1084.583,236.692Zm-4.745,16.1h-8.015a2.059,2.059,0,0,1,1.938-1.371h4.139A2.059,2.059,0,0,1,1079.838,252.788Zm-3.359-2.739h-1.3v-3.261q.322.022.649.023t.648-.023Z"/><path class="a" d="M1061.748,225.54a.684.684,0,0,0-.683.684V232.9a.684.684,0,0,0,1.367,0v-6.673A.684.684,0,0,0,1061.748,225.54Z"/><path class="a" d="M1067.217,231.872a.684.684,0,0,0,.684-.684v-3.256a.683.683,0,0,0-1.367,0v3.256A.683.683,0,0,0,1067.217,231.872Z"/><path class="a" d="M1059.014,222.847a.683.683,0,0,0-.683.683V234.9a.683.683,0,0,0,1.367,0V223.53A.683.683,0,0,0,1059.014,222.847Z"/><path class="a" d="M1064.483,224.851a.684.684,0,0,0-.684.683v9.24a.684.684,0,1,0,1.367,0v-9.24A.683.683,0,0,0,1064.483,224.851Z"/><path class="a" d="M1089.913,225.54a.684.684,0,0,0-.684.684V232.9a.683.683,0,0,0,1.367,0v-6.673A.683.683,0,0,0,1089.913,225.54Z"/><path class="a" d="M1084.444,231.872a.683.683,0,0,0,.683-.684v-3.256a.683.683,0,0,0-1.367,0v3.256A.684.684,0,0,0,1084.444,231.872Z"/><path class="a" d="M1092.647,222.847a.683.683,0,0,0-.684.683V234.9a.684.684,0,0,0,1.368,0V223.53A.684.684,0,0,0,1092.647,222.847Z"/><path class="a" d="M1087.178,234.091a.685.685,0,1,0,.483.2A.688.688,0,0,0,1087.178,234.091Z"/><path class="a" d="M1087.178,224.851a.683.683,0,0,0-.683.683v6.338a.684.684,0,1,0,1.367,0v-6.338A.684.684,0,0,0,1087.178,224.851Z"/><path class="a" d="M1075.831,240.928a3.557,3.557,0,0,0,3.552-3.553.684.684,0,0,0-1.367,0,2.188,2.188,0,0,1-2.185,2.186.683.683,0,1,0,0,1.367Z"/><path class="a" d="M1078.7,235.7a.683.683,0,1,0-.483-.2A.69.69,0,0,0,1078.7,235.7Z"/></g></svg>