<svg xmlns="http://www.w3.org/2000/svg" width="36.168" height="35" viewBox="0 0 36.168 35"><defs><style>.a{fill:#43b9be;}</style></defs><g transform="translate(-1169.723 -116.74)"><path class="a" d="M1180.808,125.732l5.831,5.831,12.837-12.83v2.086h1.168v-4.08h-4.087v1.168h2.093l-12.011,12.011-5.831-5.838-7.411,7.412.819.826Z"/><path class="a" d="M1204.723,150.572V124.906h-5.831v25.666h-1.167V128.409h-5.831v22.17h-1.168v-14h-5.838v14h-1.168v-17.5h-5.831v17.5h-1.167v-8.166h-5.831v8.166h-1.168v1.168h36.168v-1.168Zm-29.162,0h-3.5v-7h3.5Zm7,0h-3.5V134.24h3.5Zm7,.007h-3.5V137.742h3.5Zm7,0h-3.5v-21h3.5Zm7.006-.007h-3.5v-24.5h3.5Z"/></g></svg>