<svg xmlns="http://www.w3.org/2000/svg" width="26" height="26" viewBox="0 0 26 26"><defs><style>.a{fill:#ee2e24;}</style></defs><g transform="translate(-288.21 -243)"><path class="a" d="M311.671,245.234H309.25v-.711a1.523,1.523,0,0,0-3.047,0v.711h-8.531v-.711a1.523,1.523,0,0,0-3.047,0v.73a.5.5,0,0,0-.135-.019h-2.024a2.542,2.542,0,0,0-2.539,2.539v8.65a.508.508,0,0,0,1.016,0v-5.958H309.25a.508.508,0,0,0,0-1.016H290.943v-1.676a1.524,1.524,0,0,1,1.523-1.523h2.024a.5.5,0,0,0,.135-.019v.654a1.523,1.523,0,0,0,3.047,0v-.635H306.2v.635a1.523,1.523,0,0,0,3.047,0v-.635h2.421a1.524,1.524,0,0,1,1.523,1.523v19.3a.915.915,0,0,1-1.829,0v-1.314a.507.507,0,0,0-.507-.507h-5.907a.508.508,0,1,0,0,1.015h5.4v.806a1.905,1.905,0,0,0,.231.914H290.139a.915.915,0,0,1-.914-.914v-.806h11.366a.508.508,0,1,0,0-1.015h-5.073a4.164,4.164,0,1,0-5.427,0h-1.373a.507.507,0,0,0-.508.507v1.314a1.932,1.932,0,0,0,1.929,1.93H312.28a1.932,1.932,0,0,0,1.93-1.93v-19.3A2.542,2.542,0,0,0,311.671,245.234Zm-15.015,1.651a.508.508,0,1,1-1.015,0v-2.362a.508.508,0,0,1,1.015,0Zm11.578,0a.508.508,0,1,1-1.015,0v-2.362a.508.508,0,0,1,1.015,0Zm-18.578,15.209a3.148,3.148,0,1,1,3.148,3.148A3.152,3.152,0,0,1,289.656,262.094Z"/><path class="a" d="M311.991,249.6a.507.507,0,1,0,.149.359A.512.512,0,0,0,311.991,249.6Z"/><path class="a" d="M303.376,265.4a.511.511,0,1,0,.148.359A.515.515,0,0,0,303.376,265.4Z"/><path class="a" d="M299.7,258.438a1.93,1.93,0,1,0,1.929,1.929A1.932,1.932,0,0,0,299.7,258.438Zm0,2.843a.914.914,0,1,1,.914-.914A.915.915,0,0,1,299.7,261.281Z"/><path class="a" d="M304.438,258.438a1.93,1.93,0,1,0,1.93,1.929A1.931,1.931,0,0,0,304.438,258.438Zm0,2.843a.914.914,0,1,1,.914-.914A.915.915,0,0,1,304.438,261.281Z"/><path class="a" d="M309.178,258.438a1.93,1.93,0,1,0,1.93,1.929A1.932,1.932,0,0,0,309.178,258.438Zm0,2.843a.914.914,0,1,1,.914-.914A.915.915,0,0,1,309.178,261.281Z"/><path class="a" d="M294.959,253.156a1.93,1.93,0,1,0,1.93,1.93A1.932,1.932,0,0,0,294.959,253.156Zm0,2.844a.914.914,0,1,1,.914-.914A.915.915,0,0,1,294.959,256Z"/><path class="a" d="M304.438,253.156a1.93,1.93,0,1,0,1.93,1.93A1.932,1.932,0,0,0,304.438,253.156Zm0,2.844a.914.914,0,1,1,.914-.914A.915.915,0,0,1,304.438,256Z"/><path class="a" d="M309.178,253.156a1.93,1.93,0,1,0,1.93,1.93A1.932,1.932,0,0,0,309.178,253.156Zm0,2.844a.914.914,0,1,1,.914-.914A.915.915,0,0,1,309.178,256Z"/><path class="a" d="M299.7,253.156a1.93,1.93,0,1,0,1.929,1.93A1.932,1.932,0,0,0,299.7,253.156Zm0,2.844a.914.914,0,1,1,.914-.914A.915.915,0,0,1,299.7,256Z"/><path class="a" d="M294.613,260.856a.508.508,0,0,0-.718,0l-1.653,1.654-.566-.565a.508.508,0,1,0-.718.718l.924.924a.508.508,0,0,0,.719,0l2.012-2.013A.506.506,0,0,0,294.613,260.856Z"/></g></svg>