<svg xmlns="http://www.w3.org/2000/svg" width="36.129" height="32.735" viewBox="0 0 36.129 32.735"><defs><style>.a{fill:#43b9be;}</style></defs><g transform="translate(-900.808 -269.865)"><path class="a" d="M935.276,269.865H902.468a1.663,1.663,0,0,0-1.66,1.661v22.626a1.663,1.663,0,0,0,1.66,1.661h11.915v3.466h-2.3a1.1,1.1,0,0,0-1.095,1.1v1.132a1.1,1.1,0,0,0,1.095,1.094H925.66a1.1,1.1,0,0,0,1.1-1.094v-1.132a1.1,1.1,0,0,0-1.1-1.1h-2.3v-3.466h11.915a1.663,1.663,0,0,0,1.661-1.661V271.526A1.663,1.663,0,0,0,935.276,269.865Zm-9.616,30.473a.037.037,0,0,1,.037.036v1.132a.037.037,0,0,1-.037.036H912.084a.036.036,0,0,1-.036-.036v-1.132a.036.036,0,0,1,.036-.036h7.354a.53.53,0,0,0,0-1.059h-4v-3.466H922.3v3.466h-.6a.53.53,0,0,0,0,1.059Zm10.218-6.186h0a.6.6,0,0,1-.6.6H902.468a.6.6,0,0,1-.6-.6V271.526a.6.6,0,0,1,.6-.6h32.808a.6.6,0,0,1,.6.6v22.626Z"/><path class="a" d="M934.145,272.128H903.6a.529.529,0,0,0-.53.529v20.364a.529.529,0,0,0,.53.529h30.545a.529.529,0,0,0,.529-.529V272.657A.529.529,0,0,0,934.145,272.128Zm-20.966,3.321h6.295v1.2h-6.295v-1.2Zm-1.058,17.042h-7.992V275.449h7.992Zm0-18.1h-7.992v-1.2h7.992Zm21.5,18.1H913.179V277.712h20.437Zm-13.083-15.838v-1.2h5.729v1.2Zm13.083-2.262h-1.733a.529.529,0,1,0,0,1.058h1.733v1.2h-6.3v-1.2h2.3a.529.529,0,0,0,0-1.058H913.179v-1.2h20.437Z"/><path class="a" d="M906.428,276.653h-.566a.529.529,0,0,0,0,1.059h.566a.529.529,0,0,0,0-1.059Z"/><path class="a" d="M910.387,276.653h-1.7a.529.529,0,0,0,0,1.059h1.7a.529.529,0,1,0,0-1.059Z"/><path class="a" d="M906.428,278.916h-.566a.529.529,0,0,0,0,1.058h.566a.529.529,0,0,0,0-1.058Z"/><path class="a" d="M910.387,278.916h-1.7a.529.529,0,0,0,0,1.058h1.7a.529.529,0,1,0,0-1.058Z"/><path class="a" d="M906.428,281.178h-.566a.529.529,0,0,0,0,1.059h.566a.529.529,0,0,0,0-1.059Z"/><path class="a" d="M910.387,281.178h-1.7a.529.529,0,0,0,0,1.059h1.7a.529.529,0,1,0,0-1.059Z"/><path class="a" d="M906.428,283.441h-.566a.529.529,0,0,0,0,1.058h.566a.529.529,0,0,0,0-1.058Z"/><path class="a" d="M910.387,283.441h-1.7a.529.529,0,0,0,0,1.058h1.7a.529.529,0,1,0,0-1.058Z"/><path class="a" d="M906.428,285.7h-.566a.529.529,0,0,0,0,1.058h.566a.529.529,0,0,0,0-1.058Z"/><path class="a" d="M910.387,285.7h-1.7a.529.529,0,0,0,0,1.058h1.7a.529.529,0,1,0,0-1.058Z"/><path class="a" d="M931.882,281.744h-.509a.53.53,0,0,0-.5.35l-1.538,4.273-1.538-4.273a.53.53,0,0,0-.5-.35h-.51a.529.529,0,0,0-.529.529v5.657a.529.529,0,0,0,1.059,0v-4.038l1.493,4.147a.5.5,0,0,0,.09.2.527.527,0,0,0,.433.225.521.521,0,0,0,.244-.06.526.526,0,0,0,.255-.293l1.517-4.214v4.038a.529.529,0,1,0,1.058,0v-5.657A.529.529,0,0,0,931.882,281.744Z"/><path class="a" d="M923.947,286.053a2.226,2.226,0,0,0-.785-4.309H920.9a.529.529,0,0,0-.529.529v5.657a.53.53,0,0,0,1.059,0V286.2h1.406l.985,1.971a.53.53,0,0,0,.947-.474Zm-.785-.915h-1.733V282.8h1.733a1.168,1.168,0,1,1,0,2.336Z"/><path class="a" d="M919.223,286.767a.529.529,0,0,0-.747.046,1.733,1.733,0,0,1-3.034-1.146v-1.131a1.733,1.733,0,0,1,3.034-1.146.529.529,0,1,0,.794-.7,2.792,2.792,0,0,0-4.886,1.846v1.131a2.791,2.791,0,0,0,4.885,1.847A.529.529,0,0,0,919.223,286.767Z"/></g></svg>