<svg xmlns="http://www.w3.org/2000/svg" width="34.903" height="35" viewBox="0 0 34.903 35"><defs><style>.a{fill:#43b9be;}</style></defs><g transform="translate(-1119.696 -219.155)"><path class="a" d="M1151.827,223.822l-4.49-2.382-.547,1.031,4.619,2.45a.59.59,0,0,0,.273.068h2.917v-1.167Z"/><path class="a" d="M1151.63,229.658l-3.508.318a5.273,5.273,0,0,1-4.377-1.716l-1.815-2.016a1.75,1.75,0,0,1-.079-2.247l3.091,2.061a.584.584,0,1,0,.657-.965l-.01-.006-3.5-2.333h0a.592.592,0,0,0-.324-.1h-6.414a2.87,2.87,0,0,1-2.819-2.333h10.208l2.886,1.53.546-1.03-3.013-1.6a.59.59,0,0,0-.273-.068H1131.9a.585.585,0,0,0-.584.576,4.036,4.036,0,0,0,3.979,4.091h5.3a2.918,2.918,0,0,0,.468,3.2l1.815,2.017a6.454,6.454,0,0,0,4.777,2.124q.285,0,.573-.026l3.481-.317h2.89v-1.167h-2.917a.454.454,0,0,0-.052,0Z"/><path class="a" d="M1138.945,249.489h-2.381v1.166h2.381a2.873,2.873,0,0,1,2.82,2.334h-10.209l-8.67-4.6a.585.585,0,0,0-.274-.068H1119.7v1.167h2.771l8.67,4.6a.586.586,0,0,0,.274.068H1142.4a.584.584,0,0,0,.584-.575,4.036,4.036,0,0,0-3.979-4.091Z"/><path class="a" d="M1122.665,243.653l3.507-.319a5.274,5.274,0,0,1,4.378,1.716l1.815,2.017a1.751,1.751,0,0,1,.079,2.247l-3.092-2.061a.583.583,0,0,0-.656.965l.009.006,3.5,2.333h0a.584.584,0,0,0,.322.1h2.868v-1.166h-1.7a2.916,2.916,0,0,0-.468-3.2l-1.814-2.016a6.45,6.45,0,0,0-5.351-2.1l-3.48.317h-2.89v1.166h2.916l.053,0Z"/><path class="a" d="M1139.481,229.072h-4.667a.583.583,0,0,0-.583.583v4.084h-1.167V234.9h1.75a.583.583,0,0,0,.583-.583v-4.083h3.5v4.083a.583.583,0,0,0,.584.583h4.083v3.5h-4.083a.583.583,0,0,0-.584.584v4.083h-3.5v-4.083a.583.583,0,0,0-.583-.584h-4.083v-3.5h1.166v-1.166h-1.75a.583.583,0,0,0-.583.583v4.667a.583.583,0,0,0,.583.583h4.084v4.083a.584.584,0,0,0,.583.584h4.667a.584.584,0,0,0,.583-.584v-4.083h4.083a.584.584,0,0,0,.584-.583v-4.667a.584.584,0,0,0-.584-.583h-4.083v-4.084A.583.583,0,0,0,1139.481,229.072Z"/><path class="a" d="M1126.064,236.655a11.035,11.035,0,0,0,.616,3.646l1.1-.385a9.92,9.92,0,0,1,9.366-13.177,10.151,10.151,0,0,1,1.1.06l.128-1.159a11.246,11.246,0,0,0-1.231-.068,11.1,11.1,0,0,0-11.083,11.083Z"/><path class="a" d="M1137.147,246.572a9.9,9.9,0,0,1-1.1-.061l-.129,1.16a11.256,11.256,0,0,0,1.231.068,11.086,11.086,0,0,0,10.468-14.73l-1.1.385a9.918,9.918,0,0,1-9.366,13.178Z"/><path class="a" d="M1149.756,232.686a.582.582,0,0,0-.216.621,12.857,12.857,0,0,1-6.255,14.622l.558,1.024a14.02,14.02,0,0,0,7.12-14.57l1.625,1.017.619-.989-2.8-1.75A.584.584,0,0,0,1149.756,232.686Z"/><path class="a" d="M1124.048,240.155a.583.583,0,0,0,.584-.583.6.6,0,0,0-.014-.126,12.841,12.841,0,0,1,6.95-14.351l-.508-1.05a14.018,14.018,0,0,0-7.794,14.44l-2.174-1.176-.556,1.026,3.235,1.75A.584.584,0,0,0,1124.048,240.155Z"/></g></svg>