<svg xmlns="http://www.w3.org/2000/svg" width="33.584" height="35" viewBox="0 0 33.584 35"><defs><style>.a{fill:#43b9be;}</style></defs><g transform="translate(-902.08 -219.156)"><path class="a" d="M934.045,237.109a1.025,1.025,0,0,1,0-.907l1.3-2.67a3.038,3.038,0,0,0-1.311-4.035l-2.625-1.393a1.025,1.025,0,0,1-.533-.734l-.514-2.927a3.038,3.038,0,0,0-3.432-2.494l-2.943.416a1.024,1.024,0,0,1-.862-.28l-2.137-2.067a3.039,3.039,0,0,0-4.242,0l-2.136,2.067a1.026,1.026,0,0,1-.862.28l-2.944-.416a3.039,3.039,0,0,0-3.432,2.494l-.513,2.927a1.028,1.028,0,0,1-.533.734l-2.626,1.393a3.039,3.039,0,0,0-1.311,4.035l1.306,2.67a1.032,1.032,0,0,1,0,.907l-1.306,2.67a3.038,3.038,0,0,0,1.311,4.035l2.626,1.393a1.028,1.028,0,0,1,.533.733l.513,2.928a3.038,3.038,0,0,0,2.995,2.525,3.1,3.1,0,0,0,.438-.031l2.943-.417a1.026,1.026,0,0,1,.862.281l2.136,2.066a3.038,3.038,0,0,0,4.242,0l2.137-2.066a1.027,1.027,0,0,1,.862-.281l2.943.417a3.038,3.038,0,0,0,3.432-2.494l.514-2.928a1.023,1.023,0,0,1,.533-.733l2.625-1.393a3.038,3.038,0,0,0,1.311-4.035Zm-.952,4.922-2.626,1.393a3.031,3.031,0,0,0-1.575,2.168l-.513,2.927a1.028,1.028,0,0,1-1.161.844l-2.943-.416a3.031,3.031,0,0,0-2.549.828l-2.136,2.066a1.028,1.028,0,0,1-1.435,0l-2.137-2.066a3.034,3.034,0,0,0-2.548-.828l-2.943.416a1.028,1.028,0,0,1-1.161-.844l-.514-2.928a3.031,3.031,0,0,0-1.575-2.167l-2.626-1.393a1.029,1.029,0,0,1-.443-1.366l1.3-2.67a3.031,3.031,0,0,0,0-2.679l-1.3-2.671a1.028,1.028,0,0,1,.443-1.365l2.626-1.393a3.031,3.031,0,0,0,1.575-2.168l.513-2.928a1.028,1.028,0,0,1,1.162-.843l2.943.416a3.03,3.03,0,0,0,2.548-.828l2.136-2.067a1.029,1.029,0,0,1,1.436,0l2.136,2.067a3.031,3.031,0,0,0,2.549.828l2.943-.416a1.028,1.028,0,0,1,1.161.843l.513,2.928a3.031,3.031,0,0,0,1.575,2.168l2.626,1.393a1.028,1.028,0,0,1,.444,1.365l-1.306,2.67a3.033,3.033,0,0,0,0,2.68l1.306,2.67A1.029,1.029,0,0,1,933.093,242.031Z"/><path class="a" d="M926.247,229.28a1.009,1.009,0,0,0-1.427,0L911.5,242.6a1.009,1.009,0,1,0,1.428,1.427l13.322-13.322A1.01,1.01,0,0,0,926.247,229.28Z"/><path class="a" d="M914.835,227.571a3.7,3.7,0,1,0,3.7,3.7A3.706,3.706,0,0,0,914.835,227.571Zm0,5.383a1.682,1.682,0,1,1,1.682-1.682A1.683,1.683,0,0,1,914.835,232.954Z"/><path class="a" d="M922.909,238.338a3.7,3.7,0,1,0,3.7,3.7A3.7,3.7,0,0,0,922.909,238.338Zm0,5.383a1.682,1.682,0,1,1,1.683-1.683A1.685,1.685,0,0,1,922.909,243.721Z"/></g></svg>