<svg xmlns="http://www.w3.org/2000/svg" width="56.403" height="50" viewBox="0 0 56.403 50"><defs><style>.a{fill:#50c4ca;}</style></defs><g transform="translate(-299.334 -61.824)"><path class="a" d="M353.147,91.668H317.01a1.06,1.06,0,0,1-.4-.078l-15.672-6.441a2.591,2.591,0,0,1-1.411-3.38l1.534-3.732a2.589,2.589,0,0,1,3.38-1.411l14.179,5.827h34.524a2.593,2.593,0,0,1,2.59,2.59v4.035A2.593,2.593,0,0,1,353.147,91.668Zm-35.931-2.09h35.931a.5.5,0,0,0,.5-.5V85.043a.5.5,0,0,0-.5-.5h-34.73a1.041,1.041,0,0,1-.4-.079l-14.371-5.906a.5.5,0,0,0-.651.272l-1.535,3.733a.5.5,0,0,0,.273.652Z"/><path class="a" d="M317.01,91.668H300.38a1.045,1.045,0,1,1,0-2.09h16.63a1.045,1.045,0,0,1,0,2.09Z"/><path class="a" d="M340.573,91.668H321.055a1.045,1.045,0,0,1-1.045-1.045V83.328a4.671,4.671,0,0,1,4.666-4.666h12.276a4.671,4.671,0,0,1,4.666,4.666v7.295A1.045,1.045,0,0,1,340.573,91.668ZM322.1,89.578h17.427v-6.25a2.578,2.578,0,0,0-2.575-2.575H324.676a2.579,2.579,0,0,0-2.576,2.575Z"/><path class="a" d="M307.594,104.33a1.033,1.033,0,0,1-.4-.08,1.044,1.044,0,0,1-.645-.965V90.623a1.045,1.045,0,0,1,2.09,0v10.138l10.887-10.886a1.045,1.045,0,0,1,1.478,1.478l-12.671,12.671A1.051,1.051,0,0,1,307.594,104.33Z"/><path class="a" d="M307.6,111.824a4.8,4.8,0,1,1,4.8-4.8A4.8,4.8,0,0,1,307.6,111.824Zm0-7.5a2.707,2.707,0,1,0,2.707,2.707A2.71,2.71,0,0,0,307.6,104.32Z"/><path class="a" d="M347.36,104.33a1.048,1.048,0,0,1-.739-.306L333.95,91.353a1.045,1.045,0,0,1,1.478-1.478l10.887,10.887V90.623a1.045,1.045,0,1,1,2.09,0v12.662a1.046,1.046,0,0,1-1.045,1.045Z"/><path class="a" d="M347.36,111.824a4.8,4.8,0,1,1,4.8-4.8A4.8,4.8,0,0,1,347.36,111.824Zm0-7.5a2.707,2.707,0,1,0,2.707,2.707A2.71,2.71,0,0,0,347.36,104.32Z"/><path class="a" d="M330.41,75.143a6.659,6.659,0,1,1,6.659-6.659A6.666,6.666,0,0,1,330.41,75.143Zm0-11.229a4.569,4.569,0,1,0,4.569,4.57A4.575,4.575,0,0,0,330.41,63.914Z"/><path class="a" d="M330.41,71.618a1.045,1.045,0,0,1-1.045-1.045V66.395a1.045,1.045,0,1,1,2.09,0v4.178A1.045,1.045,0,0,1,330.41,71.618Z"/><path class="a" d="M332.5,69.529h-4.178a1.045,1.045,0,1,1,0-2.09H332.5a1.045,1.045,0,1,1,0,2.09Z"/></g></svg>