<svg xmlns="http://www.w3.org/2000/svg" width="56.323" height="37.849" viewBox="0 0 56.323 37.849"><defs><style>.a{fill:#50c4ca;}</style></defs><g transform="translate(-485.615 -73.975)"><path class="a" d="M541.058,86.308h-2.64a.879.879,0,0,0-.88.88v3.517h-1.767a.879.879,0,0,0-.88-.88H501.445a.879.879,0,0,0-.88.88h-.875v-.877a4.41,4.41,0,0,0-4.4-4.405c-.006,0-.012,0-.018,0h-5.252V74.855a.879.879,0,0,0-.88-.88h-2.64a.879.879,0,0,0-.88.88v36.089a.879.879,0,0,0,.88.88h2.64a.879.879,0,0,0,.88-.88v-4.4h47.523v4.4a.879.879,0,0,0,.88.88h2.64a.879.879,0,0,0,.88-.88V87.188a.879.879,0,0,0-.88-.88Zm-3.52,6.157V94.23h-1.767V92.465Zm-35.213,7.042V91.585h.891v6.16a.879.879,0,0,0,.88.88h28.162a.879.879,0,0,0,.88-.88v-6.16h.873v7.922Zm29.053-2.642h-26.4v-5.28h26.4ZM500.565,94.23h-10.55V92.465h10.55Zm-5.28-7.044.011,0a2.649,2.649,0,0,1,2.634,2.644v.877h-7.915V87.186Zm-7.91,22.878V75.735h.88V86.28c0,.01-.005.017-.005.026s.005.017.005.026v23.732Zm2.64-5.277v-8.8h10.55v4.4a.879.879,0,0,0,.88.88h33.446a.879.879,0,0,0,.88-.88v-4.4h1.767v8.8Zm50.163,5.277h-.88v-22h.88Z"/></g></svg>