<svg xmlns="http://www.w3.org/2000/svg" width="13.636" height="16.783" viewBox="0 0 13.636 16.783"><defs><style>.a{fill:#15536e;}</style></defs><path class="a" d="M5.548,7.173v10.49A1.052,1.052,0,0,0,6.6,18.711h9.441a1.052,1.052,0,0,0,1.049-1.049V7.173Zm3.147,9.441H7.646V9.271H8.695Zm2.1,0H9.744V9.271h1.049Zm2.1,0H11.841V9.271H12.89Zm2.1,0H13.939V9.271h1.049Zm2.36-12.587H13.939V2.715a.789.789,0,0,0-.787-.787H9.481a.789.789,0,0,0-.787.787V4.026H5.285a.789.789,0,0,0-.787.787V6.124H18.135V4.813a.789.789,0,0,0-.787-.787Zm-4.458,0H9.744V2.99H12.89V4.026Z" transform="translate(-4.499 -1.928)"/></svg>