<svg xmlns="http://www.w3.org/2000/svg" width="41.399" height="35" viewBox="0 0 41.399 35"><defs><style>.a{fill:#43b9be;}</style></defs><g transform="translate(-1055.131 -116.74)"><path class="a" d="M1079.837,146.75H1076.7a.809.809,0,1,0,0,1.617h3.137a.878.878,0,0,1,0,1.756h-8.445a4.249,4.249,0,0,1-3.275-1.536l-2.019-2.427a5.857,5.857,0,0,0-4.349-2.114V139.27h2.977a5.606,5.606,0,0,1,3.914,1.581l4.359,4.207a.794.794,0,0,1-1.088,1.157l-3.422-3.137a.809.809,0,1,0-1.093,1.192l3.422,3.137a2.411,2.411,0,0,0,3.3-3.512l-4.359-4.207a7.217,7.217,0,0,0-5.037-2.035h-3.134a2.007,2.007,0,0,0-1.847-1.227h-3.805a.809.809,0,0,0-.809.809v5.912a.809.809,0,0,0,1.617,0v-5.1h3a.387.387,0,0,1,.387.387v6.481a.387.387,0,0,1-.387.387h-.839a.808.808,0,1,0,0,1.617h.839a2.008,2.008,0,0,0,1.859-1.256,4.244,4.244,0,0,1,3.25,1.535l2.02,2.427a5.859,5.859,0,0,0,4.518,2.119h8.445a2.5,2.5,0,0,0,0-4.99Z"/><path class="a" d="M1095.721,124.208a.809.809,0,0,0-.808.809v5.419h-3a.388.388,0,0,1-.388-.387v-6.48a.388.388,0,0,1,.388-.387h.78a.808.808,0,0,0,0-1.617h-.78a2.006,2.006,0,0,0-1.859,1.256,4.254,4.254,0,0,1-3.251-1.535l-2.019-2.428a5.862,5.862,0,0,0-4.518-2.118h-8.445a2.494,2.494,0,1,0,0,4.989h3.453a.808.808,0,0,0,0-1.617h-3.453a.878.878,0,0,1,0-1.756h8.445a4.249,4.249,0,0,1,3.275,1.536l2.019,2.428a5.86,5.86,0,0,0,4.349,2.113v4.776h-2.977a5.606,5.606,0,0,1-3.914-1.581l-4.359-4.207a.794.794,0,0,1,1.088-1.157l3.422,3.137a.809.809,0,0,0,1.093-1.192l-3.422-3.137a2.411,2.411,0,0,0-3.3,3.512l4.359,4.208a7.217,7.217,0,0,0,5.037,2.034h3.134a2.007,2.007,0,0,0,1.847,1.227h3.8a.809.809,0,0,0,.809-.809v-6.228A.809.809,0,0,0,1095.721,124.208Z"/><path class="a" d="M1080.167,143.832a.809.809,0,0,0,.645,1.483l.017-.008a.808.808,0,1,0-.662-1.475Z"/><path class="a" d="M1082.113,142.705a.809.809,0,0,0,.955,1.3l.01-.007a.809.809,0,0,0-.965-1.3Z"/><path class="a" d="M1078.019,144.52a.809.809,0,0,0,.157,1.6.791.791,0,0,0,.152-.015l.024,0a.809.809,0,0,0-.333-1.583Z"/><path class="a" d="M1083.792,141.176l-.018.02a.819.819,0,1,0,.018-.02Zm.69.623-.09-.081.1.088Z"/><path class="a" d="M1086.991,136.736a.811.811,0,0,0-.474,1.552.823.823,0,0,0,.238.036.809.809,0,0,0,.773-.571l0-.011A.806.806,0,0,0,1086.991,136.736Z"/><path class="a" d="M1087.064,131.907a.813.813,0,0,0,.166,1.607.874.874,0,0,0,.143-.012.81.81,0,0,0,.654-.939l-.006-.031A.809.809,0,0,0,1087.064,131.907Z"/><path class="a" d="M1087.285,134.317a.81.81,0,0,0-.876.735l0,.031a.807.807,0,0,0,.759.855h.048a.813.813,0,0,0,.071-1.622Z"/><path class="a" d="M1086.2,139.036a.809.809,0,0,0-1.1.305l-.011.021a.81.81,0,0,0,.71,1.2.8.8,0,0,0,.707-.421l-.7-.4.7.4A.809.809,0,0,0,1086.2,139.036Z"/><path class="a" d="M1070.812,124.81a.809.809,0,1,0-.36-1.532l-.007,0a.808.808,0,0,0,.367,1.529Z"/><path class="a" d="M1073.078,123.967a.778.778,0,0,0,.2-.026.808.808,0,0,0-.381-1.571l-.019,0a.809.809,0,0,0,.2,1.592Z"/><path class="a" d="M1068.764,126.125a.809.809,0,0,0,.5-.176l.011-.009a.809.809,0,0,0-1.016-1.258l.5.634-.5-.632a.808.808,0,0,0,.5,1.441Z"/><path class="a" d="M1064.683,132.13a.786.786,0,0,0,.191.023.812.812,0,1,0-.779-1.028l-.007.03A.807.807,0,0,0,1064.683,132.13Z"/><path class="a" d="M1064.5,134.556h.024a.812.812,0,1,0-.807-.863v.031A.809.809,0,0,0,1064.5,134.556Z"/><path class="a" d="M1065.37,129.8a.812.812,0,1,0-.356-1.108l-.013.026A.808.808,0,0,0,1065.37,129.8Z"/><path class="a" d="M1067.044,127.839a.811.811,0,1,0-.617-1.33l-.016.02a.808.808,0,0,0,.633,1.31Z"/><path class="a" d="M1064.548,135.367a.809.809,0,0,0-.653.939v.008a.805.805,0,0,0,.793.662.8.8,0,0,0,.145-.013.811.811,0,0,0-.286-1.6Z"/><path class="a" d="M1070.759,136.522l.016.013,4.607,3.648a.81.81,0,0,0,1.006,0l4.8-3.825c.024-.019.046-.039.068-.06a6.64,6.64,0,1,0-10.5.226Zm2.4-5.022a2.132,2.132,0,0,1,1.975,1.321.809.809,0,0,0,1.494,0,2.138,2.138,0,1,1,3.514,2.3l-4.262,3.4-4.1-3.243a2.138,2.138,0,0,1,1.375-3.774Z"/><circle class="a" cx="0.806" cy="0.806" r="0.806" transform="translate(1055.134 145.3)"/><circle class="a" cx="0.806" cy="0.806" r="0.806" transform="translate(1094.916 121.567)"/></g></svg>