<svg xmlns="http://www.w3.org/2000/svg" width="34.765" height="35" viewBox="0 0 34.765 35"><defs><style>.a{fill:#43b9be;}</style></defs><g transform="translate(-1119.765 -116.74)"><path class="a" d="M1127.273,145.012q-.266-.25-.533-.506c2.656-2.6,5.361-5.806,5.361-10.149s-2.7-7.543-5.361-10.149q.267-.255.533-.5c2.29-2.164,4.267-4.032,4.267-6.167v-.561h-1.121v.561a2.81,2.81,0,0,1-.261,1.121h-8.451a2.808,2.808,0,0,1-.26-1.121v-.561h-1.121v.561c0,2.135,1.977,4,4.267,6.167l.533.5c-2.656,2.606-5.361,5.807-5.361,10.149s2.7,7.544,5.361,10.15c-.178.17-.357.338-.533.5-2.29,2.163-4.267,4.032-4.267,6.167v.561h1.121v-.561a2.813,2.813,0,0,1,.26-1.122h8.452a2.831,2.831,0,0,1,.26,1.122v.561h1.121v-.561C1131.54,149.044,1129.563,147.175,1127.273,145.012Zm-4.895-25.233h7.11a13.189,13.189,0,0,1-.958,1.121h-5.194A12.97,12.97,0,0,1,1122.378,119.779Zm2.075,2.243h2.96q-.442.424-.91.866l-.57.539-.57-.539Q1124.9,122.446,1124.453,122.022Zm1.48,2.964c.678.664,1.349,1.353,1.969,2.082h-3.938C1124.584,126.339,1125.254,125.65,1125.933,124.986Zm-4.178,5.446h5.3v-1.121h-4.708q.362-.61.783-1.184v.063h5.607v-.063a14.164,14.164,0,0,1,.783,1.184h-1.343v1.121h1.935a10.155,10.155,0,0,1,.424,1.122h-9.2A10.329,10.329,0,0,1,1121.755,130.432Zm-.713,2.243h9.783a9.261,9.261,0,0,1,.129,1.122h-10.042A9.093,9.093,0,0,1,1121.042,132.675Zm.289,4.486h1.8V136.04h-2.088a9.285,9.285,0,0,1-.129-1.122h10.042a9.069,9.069,0,0,1-.13,1.122h-6.573v1.121h6.284a10.068,10.068,0,0,1-.425,1.121h-8.355A10.039,10.039,0,0,1,1121.331,137.161Zm1.8,3.427q-.422-.574-.783-1.184h7.173q-.36.609-.783,1.184v-.063h-5.607Zm.835,1.059h3.938c-.62.729-1.291,1.418-1.969,2.082C1125.254,143.065,1124.584,142.376,1123.964,141.647Zm1.4,4.18q.282-.266.57-.54.288.274.57.54c.311.295.616.582.91.866h-2.96C1124.747,146.409,1125.051,146.122,1125.363,145.827Zm-2.985,3.109a12.991,12.991,0,0,1,.958-1.121h5.195a13.016,13.016,0,0,1,.957,1.121Z"/><path class="a" d="M1151.726,147.254h-.9a16.235,16.235,0,0,0-3.182-19.769l1.523-1.522-1.122-1.122,2.011-2.01.563.562,2.464-2.486-4.157-4.167-2.464,2.5.557.556L1145,121.8l-1.118-1.117-7.85,7.85-1.121-1.121-2.475,2.474,7.521,7.522,2.475-2.475-1.121-1.121,3.145-3.146a11.863,11.863,0,0,1,3.422,5.428,2.238,2.238,0,0,0,.429,4.424,12.125,12.125,0,0,1-.218,1.393,3.915,3.915,0,0,0-1.411-.266h-8.41a2.807,2.807,0,0,0-2.8,2.8v.561h7.334a3.992,3.992,0,0,0-.045.561v1.682h-7.85a2.806,2.806,0,0,0-2.8,2.8v1.683h22.429v-1.683A2.807,2.807,0,0,0,1151.726,147.254Zm-2.8-28.922,2.569,2.578-.886.894-2.572-2.57Zm-1.119,2.256,1.451,1.45-2.011,2.009-1.453-1.452Zm-7.849,15.236-5.936-5.936.89-.889,5.935,5.935Zm.561-2.8-3.693-3.693,7.057-7.057,3.693,3.693Zm4.732-3.146,1.595-1.595a15.132,15.132,0,0,1,3.738,16.9,3.917,3.917,0,0,0-1.479-2.684,12.943,12.943,0,0,0,.348-2.262,2.226,2.226,0,0,0-.392-4.068A12.974,12.974,0,0,0,1145.251,129.874Zm1.989,8.408a1.122,1.122,0,1,1,1.122,1.122A1.123,1.123,0,0,1,1147.24,138.282Zm-10.558,5.608a1.686,1.686,0,0,1,1.587-1.122h5.669a3.941,3.941,0,0,0-.8,1.122Zm16.726,6.728h-20.186v-.561a1.685,1.685,0,0,1,1.682-1.682H1145v-1.121h-1.121v-1.682a2.8,2.8,0,1,1,5.607,0v1.682h-3.364v1.121h5.607a1.685,1.685,0,0,1,1.682,1.682Z"/></g></svg>