<svg xmlns="http://www.w3.org/2000/svg" width="38.904" height="38.903" viewBox="0 0 38.904 38.903"><defs><style>.a{fill:#43b9be;}</style></defs><g transform="translate(-1000.86 -160.759)"><path class="a" d="M1004.625,195.9h1.255v1.255h-1.255Z"/><path class="a" d="M1007.135,195.9h1.255v1.255h-1.255Z"/><path class="a" d="M1009.645,195.9h1.255v1.255h-1.255Z"/><path class="a" d="M1030.979,195.9H1036v1.255h-5.02Z"/><path class="a" d="M1038.509,193.387V172.681a3.142,3.142,0,0,0-3.138-3.138h-1.882a8.785,8.785,0,0,0-17.569,0h-10.668a3.142,3.142,0,0,0-3.137,3.138v20.706h-1.255v3.138a3.141,3.141,0,0,0,3.137,3.137h32.629a3.141,3.141,0,0,0,3.138-3.137v-3.138Zm-3.138-22.589a1.885,1.885,0,0,1,1.883,1.883v20.706H1036V173.308a1.256,1.256,0,0,0-1.255-1.255h-1.625a8.653,8.653,0,0,0,.269-1.255Zm-17.832-3.561,6.66,2.776,2.28,6.84a7.518,7.518,0,0,1-8.94-9.616Zm10.133,9.224-2.25-6.748,5.026-5.027a7.516,7.516,0,0,1-2.776,11.775Zm-2.968-14.447a7.5,7.5,0,0,1,4.858,1.785l-5,5-6.533-2.721A7.532,7.532,0,0,1,1024.7,162.014Zm-21.334,10.667a1.885,1.885,0,0,1,1.882-1.883h10.768a8.535,8.535,0,0,0,.27,1.255h-10.41a1.256,1.256,0,0,0-1.255,1.255v20.079h-1.255Zm35.139,23.844a1.885,1.885,0,0,1-1.883,1.882H1004a1.884,1.884,0,0,1-1.882-1.882v-1.883h12.927a4.874,4.874,0,0,0,3.28,1.255h3.98a4.872,4.872,0,0,0,3.28-1.255h7.907v-1.255h-8.417l-.184.184a3.632,3.632,0,0,1-2.586,1.071h-3.98a3.635,3.635,0,0,1-2.587-1.071l-.183-.184h-9.672V173.308h10.9a8.766,8.766,0,0,0,15.85,0h2.115v21.334h3.765Z"/><path class="a" d="M1031.606,187.113a1.875,1.875,0,0,0-1.042.316l-2.189-1.641a1.848,1.848,0,0,0,.094-.558,1.883,1.883,0,1,0-3.654.614l-3.514,2.812a1.846,1.846,0,0,0-2.112.092l-2.705-1.8a1.88,1.88,0,1,0-3.7-.459,1.828,1.828,0,0,0,.064.459l-2.706,1.8a1.863,1.863,0,0,0-1.123-.38,1.882,1.882,0,1,0,1.883,1.882,1.834,1.834,0,0,0-.064-.459l2.706-1.8a1.844,1.844,0,0,0,2.245,0l2.706,1.8a1.837,1.837,0,0,0-.064.459,1.883,1.883,0,1,0,3.654-.614l3.515-2.811a1.857,1.857,0,0,0,2.031-.029l2.189,1.641a1.849,1.849,0,0,0-.094.558,1.883,1.883,0,1,0,1.882-1.882Zm-22.589,3.765a.628.628,0,1,1,.628-.628A.629.629,0,0,1,1009.017,190.878Zm5.648-3.765a.628.628,0,1,1,.627-.628A.629.629,0,0,1,1014.665,187.113Zm5.647,3.765a.628.628,0,1,1,.627-.628A.629.629,0,0,1,1020.312,190.878Zm6.275-5.02a.628.628,0,1,1,.627-.628A.629.629,0,0,1,1026.587,185.858Zm5.019,3.765a.628.628,0,1,1,.628-.628A.629.629,0,0,1,1031.606,189.623Z"/><path class="a" d="M1017.174,174.563h-10.039v8.785h10.039Zm-1.254,7.53h-7.53v-6.275h7.53Z"/><path class="a" d="M1009.645,177.073h5.02v1.255h-5.02Z"/><path class="a" d="M1009.645,179.583h5.02v1.255h-5.02Z"/><path class="a" d="M1018.429,180.838h1.255v1.255h-1.255Z"/><path class="a" d="M1020.939,180.838h12.55v1.255h-12.55Z"/></g></svg>