<svg xmlns="http://www.w3.org/2000/svg" width="35.219" height="35" viewBox="0 0 35.219 35"><defs><style>.a{fill:#43b9be;}</style></defs><g transform="translate(-1119.538 -164.662)"><path class="a" d="M1143.4,171.026h-14.318a.8.8,0,1,1,0-1.591H1143.4a.8.8,0,0,1,0,1.591Z"/><path class="a" d="M1135.447,175h-3.182a.8.8,0,0,1,0-1.591h3.182a.8.8,0,1,1,0,1.591Z"/><path class="a" d="M1143.4,175h-4.773a.8.8,0,0,1,0-1.591h4.773a.8.8,0,0,1,0,1.591Z"/><path class="a" d="M1135.447,184.549a4.772,4.772,0,1,0,4.773,4.772A4.772,4.772,0,0,0,1135.447,184.549Zm1.79,5.667h-.9v.895a.9.9,0,0,1-1.79,0v-.895h-.9a.9.9,0,0,1,0-1.79h.9v-.894a.9.9,0,0,1,1.79,0v.894h.9a.9.9,0,0,1,0,1.79Z"/><path class="a" d="M1154.292,183.933a2.364,2.364,0,0,0-1.925-.975h-1.806v-2.387a2.39,2.39,0,0,0-2.386-2.386h-.8V165.458a.8.8,0,0,0-.8-.8H1125.9a.8.8,0,0,0-.8.8v8.75h-3.181a2.389,2.389,0,0,0-2.387,2.386v20.682a2.389,2.389,0,0,0,2.387,2.386h27.841a.8.8,0,0,0,.281-.056.732.732,0,0,0,.084-.043.792.792,0,0,0,.153-.1.744.744,0,0,0,.074-.074.727.727,0,0,0,.1-.148.768.768,0,0,0,.048-.094.246.246,0,0,0,.018-.037l4.121-13.043A2.365,2.365,0,0,0,1154.292,183.933Zm-27.595-17.68h19.091v11.932h-15.113v-1.591a2.389,2.389,0,0,0-2.387-2.386H1126.7Zm-5.568,31.023V176.594a.8.8,0,0,1,.8-.795h6.363a.8.8,0,0,1,.8.795v2.386a.8.8,0,0,0,.8.8h18.3a.8.8,0,0,1,.795.795v17.5h-27.045A.8.8,0,0,1,1121.129,197.276Zm32-11.692-2.566,8.123v-9.158h1.806a.8.8,0,0,1,.76,1.035Z"/></g></svg>