<svg xmlns="http://www.w3.org/2000/svg" width="33.872" height="33.875" viewBox="0 0 33.872 33.875"><defs><style>.a{fill:#43b9be;}</style></defs><g transform="translate(-1003.376 -269.295)"><path class="a" d="M1028.181,275.135a.565.565,0,0,0,.282.747h0a4.438,4.438,0,0,1,2.2,2.2.564.564,0,1,0,1.041-.436l-.014-.031a5.558,5.558,0,0,0-2.763-2.766.564.564,0,0,0-.747.281Z"/><path class="a" d="M1029.016,273.124a6.776,6.776,0,0,1,4.406,4.407.564.564,0,0,0,.538.395.575.575,0,0,0,.17-.026.565.565,0,0,0,.367-.709h0a7.906,7.906,0,0,0-5.142-5.142.565.565,0,0,0-.339,1.077Z"/><path class="a" d="M1037.231,276.748a10.1,10.1,0,0,0-7.432-7.432.565.565,0,0,0-.3,1.089l.03.007a8.975,8.975,0,0,1,6.6,6.605.565.565,0,0,0,.548.43.552.552,0,0,0,.134-.016.564.564,0,0,0,.413-.683Z"/><path class="a" d="M1008.931,277.618a.565.565,0,1,0,1.014.5l.014-.031a4.44,4.44,0,0,1,2.2-2.2.564.564,0,0,0-.444-1.038l-.023.011A5.564,5.564,0,0,0,1008.931,277.618Z"/><path class="a" d="M1006.492,277.9a.573.573,0,0,0,.169.026.563.563,0,0,0,.538-.395,6.777,6.777,0,0,1,4.407-4.407.564.564,0,0,0-.339-1.076,7.907,7.907,0,0,0-5.142,5.141.565.565,0,0,0,.366.71Z"/><path class="a" d="M1011.092,270.412a.565.565,0,1,0-.238-1.1l-.03.008a10.1,10.1,0,0,0-7.432,7.432.563.563,0,0,0,.415.68.594.594,0,0,0,.134.018.566.566,0,0,0,.548-.43A8.976,8.976,0,0,1,1011.092,270.412Z"/><path class="a" d="M1031.037,300.912v-9.634a11.858,11.858,0,1,0-21.451-.013v9.647a.564.564,0,0,0,.564.565h3.971l-.5.839a.564.564,0,0,0,.484.854h12.419a.564.564,0,0,0,.484-.854l-.5-.839h3.971A.564.564,0,0,0,1031.037,300.912Zm-21.451-14.677a10.725,10.725,0,1,1,13.548,10.341v-3.567h4.516a.565.565,0,0,0,.565-.565v-2.822a.565.565,0,0,0-.565-.565h-.584a7.211,7.211,0,0,0,.584-2.822,7.339,7.339,0,1,0-14.677,0,7.259,7.259,0,0,0,.573,2.822h-.573a.565.565,0,0,0-.565.565v2.822a.565.565,0,0,0,.565.565h4.516v3.556A10.729,10.729,0,0,1,1009.586,286.235Zm3.951,5.645v-1.694h13.549v1.694Zm8.468,1.129v6.21h-3.387v-6.21Zm-7.9-6.774a6.21,6.21,0,1,1,12.419,0,6.146,6.146,0,0,1-.689,2.822H1014.8a6.124,6.124,0,0,1-.7-2.822Zm-3.387,14.113v-7.185a11.892,11.892,0,0,0,6.774,4.573v1.483h-1.694a.562.562,0,0,0-.483.274l-.514.855Zm4.384,1.693,1.016-1.693h8.393l1.016,1.693Zm14.809-1.693h-4.083l-.514-.855a.563.563,0,0,0-.483-.274h-1.694v-1.488a11.887,11.887,0,0,0,6.774-4.558Z"/><path class="a" d="M1010.715,285.67h1.129V286.8h-1.129Z"/><path class="a" d="M1028.779,285.67h1.129V286.8h-1.129Z"/><path class="a" d="M1017.489,276.638h1.129v1.129h-1.129Z"/><path class="a" d="M1019.747,276.638h1.129v1.129h-1.129Z"/><path class="a" d="M1022.005,276.638h1.129v1.129h-1.129Z"/></g></svg>