<svg xmlns="http://www.w3.org/2000/svg" width="34.533" height="35" viewBox="0 0 34.533 35"><defs><style>.a{fill:#43b9be;}</style></defs><g transform="translate(-1058.564 -164.662)"><path class="a" d="M1088.118,189.251h-2.307v-2.289a.651.651,0,0,0-.635-.665H1083.1a.682.682,0,0,0-.683.665v2.289h-2.344a.681.681,0,0,0-.683.664v2.068a.681.681,0,0,0,.683.664h2.344v2.363a.682.682,0,0,0,.683.665h2.068a.649.649,0,0,0,.646-.653v-2.375h2.307a.649.649,0,0,0,.647-.653v-2.079a.65.65,0,0,0-.635-.664Zm-.387,2.363h-2.271a.681.681,0,0,0-.683.664v2.363h-1.329v-2.363a.649.649,0,0,0-.635-.664h-2.392v-1.329h2.381a.65.65,0,0,0,.646-.654v-2.3h1.329v2.289a.682.682,0,0,0,.683.665h2.271Z"/><path class="a" d="M1084.248,181.952a8.852,8.852,0,0,0-7.266,3.8l-.4-.125-.5-1.423a5.764,5.764,0,0,0,2.091-3.855,4.061,4.061,0,0,0,2.385-3.131,1.754,1.754,0,0,0-.754-2.035,1.284,1.284,0,0,0-.589-.143c.034-.255.069-.567.106-.949.086-.9.14-1.8.14-2.029,0-.163,0-.33.007-.508a5.881,5.881,0,0,0-1.5-4.751h0a7.448,7.448,0,0,0-10.7.257l-.122.137a6.385,6.385,0,0,0-1.781,5.148,20.005,20.005,0,0,0,.594,2.729,1.317,1.317,0,0,0-.5.154,1.737,1.737,0,0,0-.72,1.99,4.054,4.054,0,0,0,2.39,3.133,5.924,5.924,0,0,0,2.073,3.82l-.662,1.361c-.472.148-1.005.295-1.555.449-3.553,1-8.428,2.36-8.428,6.79V197.4c0,1.094.585,2.257,1.636,2.257h24.093a8.855,8.855,0,0,0-.045-17.709Zm-16.328-14.065.125-.141a6.261,6.261,0,0,1,4.52-2.048,6.332,6.332,0,0,1,4.673,1.833,4.956,4.956,0,0,1,1.2,4c0,.182-.007.355-.007.527,0,.11-.011.337-.029.626a5.929,5.929,0,0,0-1.081-2.351l-.038-.076a.516.516,0,0,0-.933.017c-.833,1.832-1.658,1.758-3.025,1.636-.159-.014-.32-.028-.484-.04a.7.7,0,0,0-.765.4c-.169.391.066.814.494,1.315-1.364-.163-1.71-1.161-2.022-2.061-.216-.625-.461-1.333-1.174-1.333a2.4,2.4,0,0,0-1.829.788,4.566,4.566,0,0,0-.994,2.173,6.573,6.573,0,0,1-.148-.835A5.365,5.365,0,0,1,1067.92,167.887Zm.2,11.987a.52.52,0,0,0-.516-.5h-.023c-.757,0-1.556-1.235-1.831-2.4-.1-.446.033-.75.206-.843.195-.106.4.08.484.165a.516.516,0,0,0,.888-.295.512.512,0,0,0,.067-.292c-.055-.793,0-3.062.9-4.03a1.377,1.377,0,0,1,1.01-.457,3.649,3.649,0,0,1,.259.636c.383,1.107,1.1,3.166,4.256,2.715a.517.517,0,0,0,.277-.892,9.271,9.271,0,0,1-.713-.73,3.158,3.158,0,0,0,3.479-1.467,15.06,15.06,0,0,1,1.068,4.588.515.515,0,0,0,.514.472l.045,0a.514.514,0,0,0,.431-.313c.1-.1.258-.21.406-.134.19.1.327.431.221.879-.274,1.163-1.074,2.4-1.831,2.4h-.013a.527.527,0,0,0-.284.079.514.514,0,0,0-.242.423,4.752,4.752,0,0,1-1.984,3.679l-.008,0a4.772,4.772,0,0,1-2.539.638,4.67,4.67,0,0,1-2.533-.653,4.887,4.887,0,0,1-2-3.675Zm1.258,6.31.716-1.472a5.987,5.987,0,0,0,2.557.523,6.112,6.112,0,0,0,2.524-.5l.519,1.472a.515.515,0,0,0,.321.317c.128.044.265.089.409.135a8.694,8.694,0,0,0-.625,1.487,4.138,4.138,0,0,1-6.141.135,3.867,3.867,0,0,1-.957-1.717l.372-.117a.515.515,0,0,0,.305-.266ZM1059.6,197.4v-4.633c0-3.647,4.259-4.838,7.673-5.795.145-.04.292-.08.432-.12a5.182,5.182,0,0,0,7.744,2.962,8.856,8.856,0,0,0,4.653,8.809h-19.9C1059.871,198.628,1059.6,197.971,1059.6,197.4Zm24.65,1.223a7.821,7.821,0,1,1,7.821-7.821A7.82,7.82,0,0,1,1084.248,198.628Z"/></g></svg>