<svg xmlns="http://www.w3.org/2000/svg" width="26.098" height="25.255" viewBox="0 0 26.098 25.255"><defs><style>.a{fill:#d3d3d3;}</style></defs><g transform="translate(-1169.723 -116.74)"><path class="a" d="M1178.745,123.228l4.207,4.207,9.263-9.257v1.505h.843V116.74h-2.949v.843h1.51l-8.667,8.667-4.207-4.213-5.348,5.348.591.6Z" transform="translate(-1.023)"/><path class="a" d="M1194.978,143.426v-18.52h-4.208v18.52h-.842V127.434h-4.207v16h-.843v-10.1h-4.213v10.1h-.843V130.8h-4.207v12.628h-.842v-5.892h-4.208v5.892h-.843v.843h26.1v-.843Zm-21.043,0h-2.528v-5.05h2.528Zm5.05,0h-2.528V131.641h2.528Zm5.05.005h-2.527v-9.263h2.527Zm5.05,0h-2.528V128.276h2.528Zm5.055-.005h-2.527V125.748h2.527Z" transform="translate(0 -2.274)"/></g></svg>