<svg xmlns="http://www.w3.org/2000/svg" width="32.666" height="35" viewBox="0 0 32.666 35"><defs><style>.a{fill:#43b9be;}</style></defs><g transform="translate(-989.885 -67.492)"><path class="a" d="M1006.218,77.408a7.008,7.008,0,0,1,7,7h1.167a8.167,8.167,0,0,0-16.334,0h1.167A7.008,7.008,0,0,1,1006.218,77.408Z"/><rect class="a" width="1.167" height="1.167" transform="translate(1013.218 85.575)"/><path class="a" d="M1006.218,80.908a4.083,4.083,0,1,0,4.083,4.084A4.083,4.083,0,0,0,1006.218,80.908Zm0,7a2.917,2.917,0,1,1,2.917-2.916A2.917,2.917,0,0,1,1006.218,87.908Z"/><rect class="a" width="1.167" height="1.167" transform="translate(1007.385 90.825)"/><rect class="a" width="1.167" height="1.167" transform="translate(1009.718 89.658)"/><rect class="a" width="1.167" height="1.167" transform="translate(1012.051 87.908)"/><rect class="a" width="1.167" height="1.167" transform="translate(998.051 85.575)"/><rect class="a" width="1.167" height="1.167" transform="translate(1017.301 93.158)"/><path class="a" d="M1006.218,72.742a.551.551,0,0,0,.408-.175l0,0,2.333-2.333-.824-.824L1006.8,70.75V67.492h-1.166V70.75l-1.338-1.337-.825.824,2.333,2.334A.587.587,0,0,0,1006.218,72.742Z"/><path class="a" d="M997.468,75.075a.547.547,0,0,0,.408-.175l0,0,2.333-2.333-.824-.824-1.338,1.337V69.825h-1.166v3.258l-1.338-1.337-.825.825,2.333,2.333A.587.587,0,0,0,997.468,75.075Z"/><path class="a" d="M1014.968,75.075a.547.547,0,0,0,.408-.175l0,0,2.333-2.333-.824-.824-1.338,1.337V69.825h-1.166v3.258l-1.338-1.337-.825.825,2.333,2.333A.587.587,0,0,0,1014.968,75.075Z"/><path class="a" d="M990.468,102.492h31.5a.584.584,0,0,0,.583-.584V99.575a.583.583,0,0,0-.583-.583H1020.8V91.408a.583.583,0,0,0-.583-.583h-4.576a11.083,11.083,0,1,0-18.848,0h-4.576a.583.583,0,0,0-.583.583v7.584h-1.167a.583.583,0,0,0-.583.583v2.333A.584.584,0,0,0,990.468,102.492Zm5.833-17.5a9.917,9.917,0,1,1,15.537,8.166H1000.6A9.9,9.9,0,0,1,996.3,84.992Zm-3.5,7h4.828a11.106,11.106,0,0,0,1.109,1.166H996.3v1.167h19.834V93.158H1013.7a11.1,11.1,0,0,0,1.108-1.166h4.827v7H992.8Zm-1.75,8.166h30.334v1.167H991.051Z"/></g></svg>