<svg xmlns="http://www.w3.org/2000/svg" width="36.692" height="35" viewBox="0 0 36.692 35"><defs><style>.a{fill:#43b9be;}</style></defs><g transform="translate(-1276.177 -116.74)"><path class="a" d="M1303.7,138.745a2.293,2.293,0,1,0,2.293-2.293A2.3,2.3,0,0,0,1303.7,138.745Zm3.058,0a.765.765,0,1,1-.765-.765A.765.765,0,0,1,1306.754,138.745Z"/><path class="a" d="M1304.945,121.188l-.745-1.489a5.35,5.35,0,0,0-7.322-2.318l-7.024,3.783h-5.268a8.419,8.419,0,0,0-8.409,8.408v16.817a5.358,5.358,0,0,0,5.351,5.351h25.99a5.357,5.357,0,0,0,5.351-5.351V131.1h0v-1.529A8.413,8.413,0,0,0,1304.945,121.188Zm5.858,5.721a5.3,5.3,0,0,0-3.285-1.159h-.292l-1.465-2.93A6.9,6.9,0,0,1,1310.8,126.909Zm-7.438-5.462,2.152,4.3h-10.143Zm-5.76-2.717a3.783,3.783,0,0,1,5.046,1.364l-10.505,5.656h-7.585Zm-13.019,3.962h2.429l-5.723,3.082a5.3,5.3,0,0,0-3.048,1.134A6.89,6.89,0,0,1,1284.586,122.692Zm22.932,27.519h-25.99a3.826,3.826,0,0,1-3.822-3.822V131.1a3.826,3.826,0,0,1,3.822-3.822h25.99a3.826,3.826,0,0,1,3.822,3.822h0v2.293h-5.351a5.351,5.351,0,1,0,0,10.7h5.351v2.293A3.826,3.826,0,0,1,1307.518,150.211Zm3.822-7.644h-5.351a3.822,3.822,0,1,1,0-7.644h5.351Z"/></g></svg>