<svg xmlns="http://www.w3.org/2000/svg" width="19.726" height="25.89" viewBox="0 0 19.726 25.89"><defs><style>.a{fill:#d3d3d3;}</style></defs><path class="a" d="M15.863,21.226A2.466,2.466,0,1,0,13.4,18.76,2.473,2.473,0,0,0,15.863,21.226Zm7.4-11.1H22.027V7.664a6.164,6.164,0,1,0-12.329,0V10.13H8.466A2.473,2.473,0,0,0,6,12.6V24.925A2.473,2.473,0,0,0,8.466,27.39H23.26a2.473,2.473,0,0,0,2.466-2.466V12.6A2.473,2.473,0,0,0,23.26,10.13ZM12.041,7.664a3.822,3.822,0,1,1,7.644,0V10.13H12.041ZM23.26,24.925H8.466V12.6H23.26Z" transform="translate(-6 -1.5)"/></svg>