<svg xmlns="http://www.w3.org/2000/svg" width="22.182" height="24.462" viewBox="0 0 22.182 24.462"><defs><style>.a{fill:#d3d3d3;}</style></defs><path class="a" d="M23.837,11.29a12.616,12.616,0,0,1-.407,2.736,7.918,7.918,0,0,1-1.064,2.4,5.614,5.614,0,0,1-1.8,1.707,5.091,5.091,0,0,1-2.634.65,3.818,3.818,0,0,1-1.9-.466A3.262,3.262,0,0,1,14.737,17a4.08,4.08,0,0,1-3.452,1.733,3.51,3.51,0,0,1-3.013-1.62,5.3,5.3,0,0,1-.749-1.877,8.1,8.1,0,0,1-.1-2.449,11.375,11.375,0,0,1,.746-3,8.152,8.152,0,0,1,1.379-2.3,5.833,5.833,0,0,1,1.9-1.464,5.289,5.289,0,0,1,2.305-.512,7.168,7.168,0,0,1,1.379.118,5.644,5.644,0,0,1,1.07.321,5.786,5.786,0,0,1,.887.468c.271.174.543.355.813.538l-.67,7.7a2.561,2.561,0,0,0,.02.9,1.262,1.262,0,0,0,.275.556.99.99,0,0,0,.446.29A1.657,1.657,0,0,0,19.54,16.1a3.343,3.343,0,0,0,.841-1.07,6.891,6.891,0,0,0,.566-1.608,11.033,11.033,0,0,0,.248-2,12.8,12.8,0,0,0-.315-3.742,7.438,7.438,0,0,0-1.385-2.9,6.431,6.431,0,0,0-2.482-1.865A9.01,9.01,0,0,0,13.4,2.259a7.985,7.985,0,0,0-3.577.78A8.207,8.207,0,0,0,7.1,5.2,10.373,10.373,0,0,0,5.321,8.452,14.652,14.652,0,0,0,4.572,12.5a13.47,13.47,0,0,0,.382,4.133A7.465,7.465,0,0,0,6.465,19.6a6.3,6.3,0,0,0,2.559,1.779,9.815,9.815,0,0,0,3.531.59,12.094,12.094,0,0,0,2.317-.249c.382-.076.744-.168,1.09-.269a8.2,8.2,0,0,0,.939-.336l.485,2.18a5.379,5.379,0,0,1-1.05.52,10.109,10.109,0,0,1-1.241.359,12.111,12.111,0,0,1-2.592.29A13.6,13.6,0,0,1,7.775,23.7a8.7,8.7,0,0,1-3.445-2.265,9.514,9.514,0,0,1-2.068-3.74A15.955,15.955,0,0,1,1.683,12.5a15.836,15.836,0,0,1,.994-4.983A12.333,12.333,0,0,1,5.071,3.56,10.908,10.908,0,0,1,8.722.948,11.433,11.433,0,0,1,13.452,0a11.937,11.937,0,0,1,4.583.821,8.913,8.913,0,0,1,3.308,2.308A9.473,9.473,0,0,1,23.305,6.7,13.636,13.636,0,0,1,23.837,11.29Zm-13.128,1.5a5.2,5.2,0,0,0,.269,2.579,1.383,1.383,0,0,0,1.33.871,1.469,1.469,0,0,0,.456-.084,1.624,1.624,0,0,0,.524-.315,2.8,2.8,0,0,0,.532-.642,4.927,4.927,0,0,0,.489-1.085l.523-5.986a3.123,3.123,0,0,0-.813-.107,2.812,2.812,0,0,0-1.353.31,2.678,2.678,0,0,0-.958.911,5.35,5.35,0,0,0-.636,1.5,12.707,12.707,0,0,0-.361,2.048Z" transform="translate(-1.67)"/></svg>