<svg xmlns="http://www.w3.org/2000/svg" width="288.773" height="73.096" viewBox="0 0 288.773 73.096"><defs><style>.a{fill:#292728;}.b{fill:#005c7c;}.c{fill:#3dafa4;}</style></defs><g transform="translate(-511.663 -435.198)"><g transform="translate(571.404 435.198)"><path class="a" d="M690.989,456.026h5.3l2.392-10.64,1.538,7.65h3.93l4.613-8.542-1.623,11.532h5.04l2.99-20.16H709.1l-5.382,10.08-1.879-10.08h-6.663Z" transform="translate(-690.989 -435.643)"/><path class="a" d="M762.377,456.026H767.7l6.37-13.475,1.274,13.475h5.428l-2.936-20.16h-5.484Z" transform="translate(-738.595 -435.643)"/><path class="a" d="M881.858,456.026h5.318l6.37-13.475,1.274,13.475h5.428l-2.936-20.16h-5.484Z" transform="translate(-818.272 -435.643)"/><path class="a" d="M824.563,456.026h5.151l1.939-11.149,4.874,11.149h4.819L845,435.866h-5.1l-1.883,10.783-4.653-10.783h-5.262Z" transform="translate(-780.064 -435.643)"/><path class="a" d="M953.931,441.274s-.446-1.98-2.218-1.911a2.2,2.2,0,0,0-2.021,1.084,1.52,1.52,0,0,0-.242,1.026,1.813,1.813,0,0,0,1.042,1.245c1.2.609,2.586.72,3.79,1.313a5.977,5.977,0,0,1,2.286,1.869,6.149,6.149,0,0,1-.857,7.677,8.406,8.406,0,0,1-4.549,2.287,12.109,12.109,0,0,1-5.445-.282,29.175,29.175,0,0,1-3.434-1.289l1.5-4.542a8.047,8.047,0,0,0,3.545,1.773c1.355.169,3.153.3,4.154-.831a1.924,1.924,0,0,0-.767-2.886,10.467,10.467,0,0,0-2.317-.68,8.53,8.53,0,0,1-2.239-.934c-1.707-1.03-2.139-3.329-1.843-5.19.669-4.217,5.2-6.36,9.136-5.677a6.388,6.388,0,0,1,5.374,5.231Z" transform="translate(-858.566 -435.198)"/></g><g transform="translate(684.892 461.915)"><path class="b" d="M1052.877,528.06a7.508,7.508,0,0,0-1.222-3.27,5.129,5.129,0,0,0-4.44-1.962,5.846,5.846,0,0,0-5.871,4.251,17.638,17.638,0,0,0-.835,5.99,16.213,16.213,0,0,0,.835,5.723,5.666,5.666,0,0,0,5.722,4.043q2.98,0,4.232-1.605a7.977,7.977,0,0,0,1.52-4.162h8.651a14.168,14.168,0,0,1-2.8,7.314q-3.988,5.56-11.814,5.56T1035.34,545.3q-3.69-4.638-3.69-12.027,0-8.338,4.077-12.976t11.25-4.638a16.953,16.953,0,0,1,9.984,2.735q3.883,2.735,4.6,9.662Z" transform="translate(-1031.65 -515.574)"/><path class="b" d="M1139.95,529.131a13.4,13.4,0,0,0,3.384-.743,2.549,2.549,0,0,0,1.827-2.408,2.848,2.848,0,0,0-1.4-2.75,8.858,8.858,0,0,0-4.114-.758q-3.043,0-4.31,1.487a6.129,6.129,0,0,0-1.205,2.973h-8.176a12.4,12.4,0,0,1,2.389-6.987q3.374-4.281,11.586-4.281a20.665,20.665,0,0,1,9.5,2.111q4.15,2.112,4.15,7.968v14.865q0,1.546.059,3.746a4.713,4.713,0,0,0,.505,2.259,3.031,3.031,0,0,0,1.249.981v1.249h-9.216a9.385,9.385,0,0,1-.535-1.843q-.149-.862-.238-1.962a17.505,17.505,0,0,1-4.067,3.24,12.29,12.29,0,0,1-6.22,1.576,10.732,10.732,0,0,1-7.311-2.512,8.931,8.931,0,0,1-2.886-7.12q0-5.975,4.642-8.651a20.727,20.727,0,0,1,7.488-2.081Zm5.181,3.954a9.369,9.369,0,0,1-1.643.818,13.867,13.867,0,0,1-2.275.58l-1.929.357a12.691,12.691,0,0,0-3.895,1.16,3.869,3.869,0,0,0-2,3.6,3.759,3.759,0,0,0,1.223,3.137,4.646,4.646,0,0,0,2.973.966,8.856,8.856,0,0,0,5.117-1.605q2.34-1.606,2.43-5.857Z" transform="translate(-1093.844 -515.574)"/><path class="b" d="M1243.678,515.678c.109.01.352.025.729.045V524.4q-.8-.089-1.427-.119t-1.011-.03q-5.114,0-6.867,3.33a12.95,12.95,0,0,0-.981,5.768v15.489h-8.532V516.436h8.087v5.649a17.911,17.911,0,0,1,3.419-4.43,9.307,9.307,0,0,1,6.184-1.992C1243.435,515.663,1243.569,515.668,1243.678,515.678Z" transform="translate(-1160.979 -515.574)"/><path class="b" d="M1305.668,516.914a13.179,13.179,0,0,1,5.6,4.794,15.921,15.921,0,0,1,2.582,6.7,41.332,41.332,0,0,1,.279,6.432h-23.6q.2,4.876,3.389,6.838a8.6,8.6,0,0,0,4.672,1.219,6.581,6.581,0,0,0,6.448-3.716h8.651a10.582,10.582,0,0,1-3.141,5.857q-4.354,4.727-12.192,4.727a17.663,17.663,0,0,1-11.414-3.987q-4.945-3.987-4.945-12.974,0-8.42,4.464-12.913a15.623,15.623,0,0,1,11.588-4.493A18.445,18.445,0,0,1,1305.668,516.914Zm-12.676,7.319a8.8,8.8,0,0,0-2.257,5.016h14.6a7.07,7.07,0,0,0-2.257-5.12,7.426,7.426,0,0,0-5.026-1.747A6.722,6.722,0,0,0,1292.993,524.234Z" transform="translate(-1198.595 -515.396)"/></g><g transform="translate(571.299 453.768)"><path class="c" d="M803.015,517.984v19.532a10.267,10.267,0,0,0,.651,4.162q1.154,2.468,4.526,2.468,4.319,0,5.917-3.508a12.765,12.765,0,0,0,.828-5.024v-17.63h8.592V550.39h-2.761l-5.474-4.578q-.118.149-.593.892a5.965,5.965,0,0,1-1.127,1.308,11.755,11.755,0,0,1-3.839,2.438,13.059,13.059,0,0,1-4.343.654q-7.174,0-9.665-5.173-1.394-2.854-1.393-8.414V517.984Z" transform="translate(-759.8 -508.974)"/><path class="c" d="M912.946,517.984h9.1l-11.7,32.406h-8.934l-11.621-32.406H899.3l6.749,23.9Z" transform="translate(-823.453 -508.974)"/><path class="c" d="M1002.664,533.779h0v27.144h-8.592V542.371A8.592,8.592,0,0,1,1002.664,533.779Z" transform="translate(-892.997 -519.507)"/><path class="c" d="M722.871,517.984h-9.008l-6.689,23.9-7.076-23.9h-9.425l11.907,33.833c0,.009,0,.023,0,.033L698.522,563.5h8.494l5.638-16.176-.011,0Z" transform="translate(-690.673 -508.974)"/><path class="c" d="M1002.654,495.4c.006-.11,0-.171,0-.171a4.29,4.29,0,0,0-8.58,0c-.129,1.784,1.534,3.8,2.445,4.48a1.581,1.581,0,0,1,.266,2.126.4.4,0,0,0,0,.527c4.186-1.752,5.388-4.532,5.731-6.052A4.279,4.279,0,0,0,1002.654,495.4Z" transform="translate(-892.997 -490.939)"/></g><g transform="translate(511.663 455.77)"><path class="c" d="M564.191,522.634l-.018,0a26.257,26.257,0,0,0-52.477-.7l-.012,0L511.668,523c0,.071,0,.142,0,.214,0,.421.012.839.032,1.256.006.125.016.247.024.371.018.3.04.6.068.89,0,.035,0,.071.008.106l-.027,0,.176,1.206c0,.011,0,.022.005.032q.02.13.04.26.051.328.111.654c.008.043.017.085.024.128.021.108.041.216.062.323.005.026.01.051.015.077q.048.235.1.468l.022.091c.047.209.095.417.147.624h-.046l.329,1.028c.057.193.12.384.182.576s.117.372.181.556c.026.074.054.147.081.221.095.266.192.531.3.793.017.043.035.086.052.129.086.216.172.431.263.644l-.117-.02.786,1.447A26.063,26.063,0,0,0,525.392,546.3h0q.447.241.9.465l.2.094q.365.175.735.34l.3.128q.327.14.658.271.177.07.355.139c.207.079.415.154.625.227.13.046.26.092.39.136s.278.09.417.134c.107.034.215.067.322.1s.188.059.284.086l.138.04v.018l.637.157.063.016.171.042h.009l.013,0,.02,0h0l.027.006,1.372.339v-.042l.329.06h0l.148.026h0l.08.013h.009l.073.012c.148.024.3.049.444.07s.285.041.428.06h0q.231.03.463.056h0l.052.006.02,0,.294.031.018,0h.007l.209.02h.026q.416.036.833.059h.014l.237.011.136.006h0c.359.015.719.025,1.079.025h.007c.055,0,.114,0,.17,0,.386,0,.771-.01,1.155-.029.088,0,.175-.014.263-.019.357-.021.713-.046,1.067-.081.062-.006.123-.016.185-.022.382-.041.764-.088,1.143-.146l.039-.007a26.287,26.287,0,0,0,21.394-19.353c.048-.184.087-.371.131-.556.051-.216.1-.43.15-.648.07-.334.129-.671.186-1.009.012-.073.028-.144.039-.217.065-.405.119-.814.165-1.225l0-.025q.14-1.264.157-2.561c0-.005,0-.011,0-.016v-.015c0-.109.008-.217.008-.327,0-.036,0-.071,0-.106Zm-33.4,23.424c-.217-.068-.432-.143-.647-.217-.121-.042-.244-.082-.364-.126-.2-.073-.4-.15-.6-.228s-.39-.156-.583-.239c-.149-.063-.3-.126-.446-.192-.352-.159-.7-.323-1.046-.5l-.035-.018q-.577-.3-1.136-.621l-.021-.012a24.242,24.242,0,0,1-6.062-5.021l-.02-.023q-.408-.47-.792-.963l-.062-.079c-.225-.29-.44-.587-.651-.887a23.786,23.786,0,0,1,12.494,8.755C530.809,545.814,530.8,545.935,530.788,546.058Zm.83-4.973c-.017.065-.036.13-.053.2-.1.389-.194.78-.276,1.174v0c-.007.034-.013.068-.02.1a26.024,26.024,0,0,0-14.629-8.41c-.119-.23-.238-.46-.35-.694-.073-.154-.141-.311-.211-.466-.1-.224-.2-.448-.294-.675-.028-.068-.054-.137-.081-.205a23.888,23.888,0,0,1,16.146,8.163Q531.727,540.676,531.617,541.085Zm1.523-4.2q-.094.2-.185.408c-.076.172-.152.344-.224.517a26.181,26.181,0,0,0-17.835-8.066c-.05-.175-.1-.348-.149-.525l-.021-.084c-.083-.324-.157-.651-.227-.979-.012-.056-.025-.112-.036-.168l0-.012c0-.013,0-.026-.007-.039.359-.016.715-.025,1.063-.025a23.861,23.861,0,0,1,18.01,8.173Q533.326,536.485,533.14,536.887ZM515.516,525.6c-.462,0-.934.016-1.41.043-.005-.047-.008-.094-.012-.14q-.043-.448-.069-.9c-.007-.12-.012-.241-.017-.361S514,524,514,523.881a23.89,23.89,0,0,1,21.883,8.389q-.614.826-1.156,1.693A26.162,26.162,0,0,0,515.516,525.6Zm18.7,18.542c.014-7.778,6.265-12.745,6.265-12.745a17.338,17.338,0,0,1-.846,7.544C538.6,541.8,534.215,544.139,534.215,544.139Zm1.839,2.718a18.914,18.914,0,0,0,1.739-2.054,7.963,7.963,0,0,1,2.19-1.617c2.081-.988,4.144-.245,6.307-.078a16.412,16.412,0,0,0,2.905.188S545.919,547.981,536.054,546.857Zm9.6-19.365a18.772,18.772,0,0,1,3.292-1.759s.065.712,0,3.88c-.082,4.025-3.509,5.854-6.338,8.018C542.493,534.243,542.5,529.64,545.651,527.491Zm10.395,10.8a4.861,4.861,0,0,1-2.805,2.108c-2.932.849-5.83-.061-8.731-.591,2.4-2.064,4.606-4.164,7.948-4.373,1.673-.1,3.4.026,5.077.026A8.422,8.422,0,0,1,556.046,538.287Zm-3.987-12.373a3.366,3.366,0,0,1,2.717-1.739,39.91,39.91,0,0,1,4,0l-7.179,6.209C551.595,528.973,551.281,527.174,552.059,525.915Zm7.23,6.316c-1.6,1.252-3.89.623-5.736.382l7.4-5.857C560.814,528.618,560.9,530.968,559.289,532.231Zm-2.308-10.588a26.094,26.094,0,0,0-18.454,7.58c-.4.4-.781.806-1.153,1.223a26.145,26.145,0,0,0-23.326-8.909,23.939,23.939,0,0,1,47.794.561A26.309,26.309,0,0,0,556.98,521.643Z" transform="translate(-511.663 -496.949)"/><path class="c" d="M572.5,506.008l-6.525,18.183h7.712s-.159,11.917,0,11.757,6.488-17.861,6.488-17.861h-7.616Z" transform="translate(-547.881 -502.99)"/></g></g></svg>